solid LIGGGHTS_STL_EXPORT
  facet normal -1.7949e-09 -1 -1.7949e-09
    outer loop
      vertex 0.28238 -9.98852e-10 -0.0378843
      vertex 0.305 -1.07694e-09 -0.017
      vertex 0.00468 -5.37895e-10 -0.017
    endloop
  endfacet
  facet normal -3.22165e-18 -1.7949e-09 1
    outer loop
      vertex 0.305 0.4 -0.017
      vertex 0.00468 -5.37895e-10 -0.017
      vertex 0.305 -1.07694e-09 -0.017
    endloop
  endfacet
  facet normal -1.7949e-09 -1 -1.7949e-09
    outer loop
      vertex 0.00468 -5.00409e-10 -0.0378843
      vertex 0.28238 -9.98852e-10 -0.0378843
      vertex 0.00468 -5.37895e-10 -0.017
    endloop
  endfacet
  facet normal -1 1.7949e-09 3.22166e-18
    outer loop
      vertex 0.00468 0.4 -0.017
      vertex 0.00468 -5.00409e-10 -0.0378843
      vertex 0.00468 -5.37895e-10 -0.017
    endloop
  endfacet
  facet normal -3.22165e-18 -1.7949e-09 1
    outer loop
      vertex 0.305 0.4 -0.017
      vertex 0.00468 0.4 -0.017
      vertex 0.00468 -5.37895e-10 -0.017
    endloop
  endfacet
  facet normal -1.7949e-09 -1 -1.7949e-09
    outer loop
      vertex 0.28238 -9.98852e-10 -0.0378843
      vertex 0.305 -8.27986e-10 -0.1557
      vertex 0.305 -1.07694e-09 -0.017
    endloop
  endfacet
  facet normal 1 -1.7949e-09 -8.03671e-16
    outer loop
      vertex 0.305 0.4 -0.1557
      vertex 0.305 -1.07694e-09 -0.017
      vertex 0.305 -8.27986e-10 -0.1557
    endloop
  endfacet
  facet normal 1 -1.7949e-09 7.97228e-16
    outer loop
      vertex 0.305 0.4 -0.017
      vertex 0.305 -1.07694e-09 -0.017
      vertex 0.305 0.4 -0.1557
    endloop
  endfacet
  facet normal -1.7949e-09 -1 -1.7949e-09
    outer loop
      vertex 0.00468 -1.40104e-10 -0.238623
      vertex 0.00468 -9.20006e-11 -0.265423
      vertex 0.305 -8.27986e-10 -0.1557
    endloop
  endfacet
  facet normal 0.343168 1.06995e-09 -0.939274
    outer loop
      vertex 0.00468 0.4 -0.265423
      vertex 0.305 -8.27986e-10 -0.1557
      vertex 0.00468 -9.20006e-11 -0.265423
    endloop
  endfacet
  facet normal -1.7949e-09 -1 -1.7949e-09
    outer loop
      vertex 0.28238 -8.20655e-10 -0.137164
      vertex 0.00468 -1.40104e-10 -0.238623
      vertex 0.305 -8.27986e-10 -0.1557
    endloop
  endfacet
  facet normal -1.7949e-09 -1 -1.7949e-09
    outer loop
      vertex 0.28238 -9.98852e-10 -0.0378843
      vertex 0.28238 -8.20655e-10 -0.137164
      vertex 0.305 -8.27986e-10 -0.1557
    endloop
  endfacet
  facet normal 0.343168 1.06995e-09 -0.939274
    outer loop
      vertex 0.305 0.4 -0.1557
      vertex 0.305 -8.27986e-10 -0.1557
      vertex 0.00468 0.4 -0.265423
    endloop
  endfacet
  facet normal -1 1.7949e-09 3.22165e-18
    outer loop
      vertex 0.00468 0.4 -0.238623
      vertex 0.00468 -9.20006e-11 -0.265423
      vertex 0.00468 -1.40104e-10 -0.238623
    endloop
  endfacet
  facet normal -1 1.7949e-09 1.03888e-15
    outer loop
      vertex 0.00468 0.4 -0.265423
      vertex 0.00468 -9.20006e-11 -0.265423
      vertex 0.00468 0.4 -0.238623
    endloop
  endfacet
  facet normal -0.343168 -1.06995e-09 0.939274
    outer loop
      vertex 0.28238 0.4 -0.137164
      vertex 0.00468 -1.40104e-10 -0.238623
      vertex 0.28238 -8.20655e-10 -0.137164
    endloop
  endfacet
  facet normal -0.343168 -1.06995e-09 0.939274
    outer loop
      vertex 0.00468 0.4 -0.238623
      vertex 0.00468 -1.40104e-10 -0.238623
      vertex 0.28238 0.4 -0.137164
    endloop
  endfacet
  facet normal -1 1.7949e-09 3.22166e-18
    outer loop
      vertex 0.28238 0.4 -0.0378843
      vertex 0.28238 -8.20655e-10 -0.137164
      vertex 0.28238 -9.98852e-10 -0.0378843
    endloop
  endfacet
  facet normal -1 1.7949e-09 3.22165e-18
    outer loop
      vertex 0.28238 0.4 -0.137164
      vertex 0.28238 -8.20655e-10 -0.137164
      vertex 0.28238 0.4 -0.0378843
    endloop
  endfacet
  facet normal 3.22165e-18 1.7949e-09 -1
    outer loop
      vertex 0.00468 0.4 -0.0378843
      vertex 0.28238 -9.98852e-10 -0.0378843
      vertex 0.00468 -5.00409e-10 -0.0378843
    endloop
  endfacet
  facet normal 3.22165e-18 1.7949e-09 -1
    outer loop
      vertex 0.28238 0.4 -0.0378843
      vertex 0.28238 -9.98852e-10 -0.0378843
      vertex 0.00468 0.4 -0.0378843
    endloop
  endfacet
  facet normal -1 1.7949e-09 3.22166e-18
    outer loop
      vertex 0.00468 0.4 -0.0378843
      vertex 0.00468 -5.00409e-10 -0.0378843
      vertex 0.00468 0.4 -0.017
    endloop
  endfacet
  facet normal 1.7949e-09 1 1.7949e-09
    outer loop
      vertex 0.305 0.4 -0.017
      vertex 0.00468 0.4 -0.0378843
      vertex 0.00468 0.4 -0.017
    endloop
  endfacet
  facet normal 1.7949e-09 1 1.7949e-09
    outer loop
      vertex 0.305 0.4 -0.017
      vertex 0.28238 0.4 -0.0378843
      vertex 0.00468 0.4 -0.0378843
    endloop
  endfacet
  facet normal 1.7949e-09 1 1.7949e-09
    outer loop
      vertex 0.305 0.4 -0.017
      vertex 0.28238 0.4 -0.137164
      vertex 0.28238 0.4 -0.0378843
    endloop
  endfacet
  facet normal 1.7949e-09 1 1.7949e-09
    outer loop
      vertex 0.00468 0.4 -0.265423
      vertex 0.00468 0.4 -0.238623
      vertex 0.28238 0.4 -0.137164
    endloop
  endfacet
  facet normal 1.7949e-09 1 1.7949e-09
    outer loop
      vertex 0.305 0.4 -0.1557
      vertex 0.00468 0.4 -0.265423
      vertex 0.28238 0.4 -0.137164
    endloop
  endfacet
  facet normal 1.7949e-09 1 1.7949e-09
    outer loop
      vertex 0.305 0.4 -0.017
      vertex 0.305 0.4 -0.1557
      vertex 0.28238 0.4 -0.137164
    endloop
  endfacet
endsolid LIGGGHTS_STL_EXPORT
