solid LIGGGHTS_STL_EXPORT
  facet normal -1.7949e-09 -1 -1.7949e-09
    outer loop
      vertex 0.24738 -9.98852e-10 -0.0588843
      vertex 0.27 -1.07694e-09 -0.038
      vertex -0.03032 -5.37895e-10 -0.038
    endloop
  endfacet
  facet normal -3.22165e-18 -1.7949e-09 1
    outer loop
      vertex 0.27 0.4 -0.038
      vertex -0.03032 -5.37895e-10 -0.038
      vertex 0.27 -1.07694e-09 -0.038
    endloop
  endfacet
  facet normal -1.7949e-09 -1 -1.7949e-09
    outer loop
      vertex -0.03032 -5.00409e-10 -0.0588843
      vertex 0.24738 -9.98852e-10 -0.0588843
      vertex -0.03032 -5.37895e-10 -0.038
    endloop
  endfacet
  facet normal -1 1.7949e-09 3.22166e-18
    outer loop
      vertex -0.03032 0.4 -0.038
      vertex -0.03032 -5.00409e-10 -0.0588843
      vertex -0.03032 -5.37895e-10 -0.038
    endloop
  endfacet
  facet normal -3.22165e-18 -1.7949e-09 1
    outer loop
      vertex 0.27 0.4 -0.038
      vertex -0.03032 0.4 -0.038
      vertex -0.03032 -5.37895e-10 -0.038
    endloop
  endfacet
  facet normal -1.7949e-09 -1 -1.7949e-09
    outer loop
      vertex 0.24738 -9.98852e-10 -0.0588843
      vertex 0.27 -8.27986e-10 -0.1767
      vertex 0.27 -1.07694e-09 -0.038
    endloop
  endfacet
  facet normal 1 -1.7949e-09 -8.03671e-16
    outer loop
      vertex 0.27 0.4 -0.1767
      vertex 0.27 -1.07694e-09 -0.038
      vertex 0.27 -8.27986e-10 -0.1767
    endloop
  endfacet
  facet normal 1 -1.7949e-09 7.97228e-16
    outer loop
      vertex 0.27 0.4 -0.038
      vertex 0.27 -1.07694e-09 -0.038
      vertex 0.27 0.4 -0.1767
    endloop
  endfacet
  facet normal -1.7949e-09 -1 -1.7949e-09
    outer loop
      vertex -0.03032 -1.40104e-10 -0.259623
      vertex -0.03032 -9.20006e-11 -0.286423
      vertex 0.27 -8.27986e-10 -0.1767
    endloop
  endfacet
  facet normal 0.343168 1.06995e-09 -0.939274
    outer loop
      vertex -0.03032 0.4 -0.286423
      vertex 0.27 -8.27986e-10 -0.1767
      vertex -0.03032 -9.20006e-11 -0.286423
    endloop
  endfacet
  facet normal -1.7949e-09 -1 -1.7949e-09
    outer loop
      vertex 0.24738 -8.20655e-10 -0.158164
      vertex -0.03032 -1.40104e-10 -0.259623
      vertex 0.27 -8.27986e-10 -0.1767
    endloop
  endfacet
  facet normal -1.7949e-09 -1 -1.7949e-09
    outer loop
      vertex 0.24738 -9.98852e-10 -0.0588843
      vertex 0.24738 -8.20655e-10 -0.158164
      vertex 0.27 -8.27986e-10 -0.1767
    endloop
  endfacet
  facet normal 0.343168 1.06995e-09 -0.939274
    outer loop
      vertex 0.27 0.4 -0.1767
      vertex 0.27 -8.27986e-10 -0.1767
      vertex -0.03032 0.4 -0.286423
    endloop
  endfacet
  facet normal -1 1.7949e-09 3.22165e-18
    outer loop
      vertex -0.03032 0.4 -0.259623
      vertex -0.03032 -9.20006e-11 -0.286423
      vertex -0.03032 -1.40104e-10 -0.259623
    endloop
  endfacet
  facet normal -1 1.7949e-09 1.03888e-15
    outer loop
      vertex -0.03032 0.4 -0.286423
      vertex -0.03032 -9.20006e-11 -0.286423
      vertex -0.03032 0.4 -0.259623
    endloop
  endfacet
  facet normal -0.343168 -1.06995e-09 0.939274
    outer loop
      vertex 0.24738 0.4 -0.158164
      vertex -0.03032 -1.40104e-10 -0.259623
      vertex 0.24738 -8.20655e-10 -0.158164
    endloop
  endfacet
  facet normal -0.343168 -1.06995e-09 0.939274
    outer loop
      vertex -0.03032 0.4 -0.259623
      vertex -0.03032 -1.40104e-10 -0.259623
      vertex 0.24738 0.4 -0.158164
    endloop
  endfacet
  facet normal -1 1.7949e-09 3.22166e-18
    outer loop
      vertex 0.24738 0.4 -0.0588843
      vertex 0.24738 -8.20655e-10 -0.158164
      vertex 0.24738 -9.98852e-10 -0.0588843
    endloop
  endfacet
  facet normal -1 1.7949e-09 3.22165e-18
    outer loop
      vertex 0.24738 0.4 -0.158164
      vertex 0.24738 -8.20655e-10 -0.158164
      vertex 0.24738 0.4 -0.0588843
    endloop
  endfacet
  facet normal 3.22165e-18 1.7949e-09 -1
    outer loop
      vertex -0.03032 0.4 -0.0588843
      vertex 0.24738 -9.98852e-10 -0.0588843
      vertex -0.03032 -5.00409e-10 -0.0588843
    endloop
  endfacet
  facet normal 3.22165e-18 1.7949e-09 -1
    outer loop
      vertex 0.24738 0.4 -0.0588843
      vertex 0.24738 -9.98852e-10 -0.0588843
      vertex -0.03032 0.4 -0.0588843
    endloop
  endfacet
  facet normal -1 1.7949e-09 3.22166e-18
    outer loop
      vertex -0.03032 0.4 -0.0588843
      vertex -0.03032 -5.00409e-10 -0.0588843
      vertex -0.03032 0.4 -0.038
    endloop
  endfacet
  facet normal 1.7949e-09 1 1.7949e-09
    outer loop
      vertex 0.27 0.4 -0.038
      vertex -0.03032 0.4 -0.0588843
      vertex -0.03032 0.4 -0.038
    endloop
  endfacet
  facet normal 1.7949e-09 1 1.7949e-09
    outer loop
      vertex 0.27 0.4 -0.038
      vertex 0.24738 0.4 -0.0588843
      vertex -0.03032 0.4 -0.0588843
    endloop
  endfacet
  facet normal 1.7949e-09 1 1.7949e-09
    outer loop
      vertex 0.27 0.4 -0.038
      vertex 0.24738 0.4 -0.158164
      vertex 0.24738 0.4 -0.0588843
    endloop
  endfacet
  facet normal 1.7949e-09 1 1.7949e-09
    outer loop
      vertex -0.03032 0.4 -0.286423
      vertex -0.03032 0.4 -0.259623
      vertex 0.24738 0.4 -0.158164
    endloop
  endfacet
  facet normal 1.7949e-09 1 1.7949e-09
    outer loop
      vertex 0.27 0.4 -0.1767
      vertex -0.03032 0.4 -0.286423
      vertex 0.24738 0.4 -0.158164
    endloop
  endfacet
  facet normal 1.7949e-09 1 1.7949e-09
    outer loop
      vertex 0.27 0.4 -0.038
      vertex 0.27 0.4 -0.1767
      vertex 0.24738 0.4 -0.158164
    endloop
  endfacet
endsolid LIGGGHTS_STL_EXPORT
