solid LIGGGHTS_STL_EXPORT
  facet normal -1.7949e-09 -1 -1.7949e-09
    outer loop
      vertex 0.16238 -9.98852e-10 -0.109884
      vertex 0.185 -1.07694e-09 -0.089
      vertex -0.11532 -5.37895e-10 -0.089
    endloop
  endfacet
  facet normal -3.22165e-18 -1.7949e-09 1
    outer loop
      vertex 0.185 0.4 -0.089
      vertex -0.11532 -5.37895e-10 -0.089
      vertex 0.185 -1.07694e-09 -0.089
    endloop
  endfacet
  facet normal -1.7949e-09 -1 -1.7949e-09
    outer loop
      vertex -0.11532 -5.00409e-10 -0.109884
      vertex 0.16238 -9.98852e-10 -0.109884
      vertex -0.11532 -5.37895e-10 -0.089
    endloop
  endfacet
  facet normal -1 1.7949e-09 3.22166e-18
    outer loop
      vertex -0.11532 0.4 -0.089
      vertex -0.11532 -5.00409e-10 -0.109884
      vertex -0.11532 -5.37895e-10 -0.089
    endloop
  endfacet
  facet normal -3.22165e-18 -1.7949e-09 1
    outer loop
      vertex 0.185 0.4 -0.089
      vertex -0.11532 0.4 -0.089
      vertex -0.11532 -5.37895e-10 -0.089
    endloop
  endfacet
  facet normal -1.7949e-09 -1 -1.7949e-09
    outer loop
      vertex 0.16238 -9.98852e-10 -0.109884
      vertex 0.185 -8.27986e-10 -0.2277
      vertex 0.185 -1.07694e-09 -0.089
    endloop
  endfacet
  facet normal 1 -1.7949e-09 -8.03671e-16
    outer loop
      vertex 0.185 0.4 -0.2277
      vertex 0.185 -1.07694e-09 -0.089
      vertex 0.185 -8.27986e-10 -0.2277
    endloop
  endfacet
  facet normal 1 -1.7949e-09 7.97228e-16
    outer loop
      vertex 0.185 0.4 -0.089
      vertex 0.185 -1.07694e-09 -0.089
      vertex 0.185 0.4 -0.2277
    endloop
  endfacet
  facet normal -1.7949e-09 -1 -1.7949e-09
    outer loop
      vertex -0.11532 -1.40104e-10 -0.310623
      vertex -0.11532 -9.20006e-11 -0.337423
      vertex 0.185 -8.27986e-10 -0.2277
    endloop
  endfacet
  facet normal 0.343168 1.06995e-09 -0.939274
    outer loop
      vertex -0.11532 0.4 -0.337423
      vertex 0.185 -8.27986e-10 -0.2277
      vertex -0.11532 -9.20006e-11 -0.337423
    endloop
  endfacet
  facet normal -1.7949e-09 -1 -1.7949e-09
    outer loop
      vertex 0.16238 -8.20655e-10 -0.209164
      vertex -0.11532 -1.40104e-10 -0.310623
      vertex 0.185 -8.27986e-10 -0.2277
    endloop
  endfacet
  facet normal -1.7949e-09 -1 -1.7949e-09
    outer loop
      vertex 0.16238 -9.98852e-10 -0.109884
      vertex 0.16238 -8.20655e-10 -0.209164
      vertex 0.185 -8.27986e-10 -0.2277
    endloop
  endfacet
  facet normal 0.343168 1.06995e-09 -0.939274
    outer loop
      vertex 0.185 0.4 -0.2277
      vertex 0.185 -8.27986e-10 -0.2277
      vertex -0.11532 0.4 -0.337423
    endloop
  endfacet
  facet normal -1 1.7949e-09 3.22165e-18
    outer loop
      vertex -0.11532 0.4 -0.310623
      vertex -0.11532 -9.20006e-11 -0.337423
      vertex -0.11532 -1.40104e-10 -0.310623
    endloop
  endfacet
  facet normal -1 1.7949e-09 1.03888e-15
    outer loop
      vertex -0.11532 0.4 -0.337423
      vertex -0.11532 -9.20006e-11 -0.337423
      vertex -0.11532 0.4 -0.310623
    endloop
  endfacet
  facet normal -0.343168 -1.06995e-09 0.939274
    outer loop
      vertex 0.16238 0.4 -0.209164
      vertex -0.11532 -1.40104e-10 -0.310623
      vertex 0.16238 -8.20655e-10 -0.209164
    endloop
  endfacet
  facet normal -0.343168 -1.06995e-09 0.939274
    outer loop
      vertex -0.11532 0.4 -0.310623
      vertex -0.11532 -1.40104e-10 -0.310623
      vertex 0.16238 0.4 -0.209164
    endloop
  endfacet
  facet normal -1 1.7949e-09 3.22166e-18
    outer loop
      vertex 0.16238 0.4 -0.109884
      vertex 0.16238 -8.20655e-10 -0.209164
      vertex 0.16238 -9.98852e-10 -0.109884
    endloop
  endfacet
  facet normal -1 1.7949e-09 3.22165e-18
    outer loop
      vertex 0.16238 0.4 -0.209164
      vertex 0.16238 -8.20655e-10 -0.209164
      vertex 0.16238 0.4 -0.109884
    endloop
  endfacet
  facet normal 3.22165e-18 1.7949e-09 -1
    outer loop
      vertex -0.11532 0.4 -0.109884
      vertex 0.16238 -9.98852e-10 -0.109884
      vertex -0.11532 -5.00409e-10 -0.109884
    endloop
  endfacet
  facet normal 3.22165e-18 1.7949e-09 -1
    outer loop
      vertex 0.16238 0.4 -0.109884
      vertex 0.16238 -9.98852e-10 -0.109884
      vertex -0.11532 0.4 -0.109884
    endloop
  endfacet
  facet normal -1 1.7949e-09 3.22166e-18
    outer loop
      vertex -0.11532 0.4 -0.109884
      vertex -0.11532 -5.00409e-10 -0.109884
      vertex -0.11532 0.4 -0.089
    endloop
  endfacet
  facet normal 1.7949e-09 1 1.7949e-09
    outer loop
      vertex 0.185 0.4 -0.089
      vertex -0.11532 0.4 -0.109884
      vertex -0.11532 0.4 -0.089
    endloop
  endfacet
  facet normal 1.7949e-09 1 1.7949e-09
    outer loop
      vertex 0.185 0.4 -0.089
      vertex 0.16238 0.4 -0.109884
      vertex -0.11532 0.4 -0.109884
    endloop
  endfacet
  facet normal 1.7949e-09 1 1.7949e-09
    outer loop
      vertex 0.185 0.4 -0.089
      vertex 0.16238 0.4 -0.209164
      vertex 0.16238 0.4 -0.109884
    endloop
  endfacet
  facet normal 1.7949e-09 1 1.7949e-09
    outer loop
      vertex -0.11532 0.4 -0.337423
      vertex -0.11532 0.4 -0.310623
      vertex 0.16238 0.4 -0.209164
    endloop
  endfacet
  facet normal 1.7949e-09 1 1.7949e-09
    outer loop
      vertex 0.185 0.4 -0.2277
      vertex -0.11532 0.4 -0.337423
      vertex 0.16238 0.4 -0.209164
    endloop
  endfacet
  facet normal 1.7949e-09 1 1.7949e-09
    outer loop
      vertex 0.185 0.4 -0.089
      vertex 0.185 0.4 -0.2277
      vertex 0.16238 0.4 -0.209164
    endloop
  endfacet
endsolid LIGGGHTS_STL_EXPORT
