solid LIGGGHTS_STL_EXPORT
  facet normal -1.7949e-09 -1 -1.7949e-09
    outer loop
      vertex 0.31738 -9.98852e-10 -0.0168843
      vertex 0.34 -1.07694e-09 0.004
      vertex 0.03968 -5.37895e-10 0.004
    endloop
  endfacet
  facet normal -3.22165e-18 -1.7949e-09 1
    outer loop
      vertex 0.34 0.4 0.004
      vertex 0.03968 -5.37895e-10 0.004
      vertex 0.34 -1.07694e-09 0.004
    endloop
  endfacet
  facet normal -1.7949e-09 -1 -1.7949e-09
    outer loop
      vertex 0.03968 -5.00409e-10 -0.0168843
      vertex 0.31738 -9.98852e-10 -0.0168843
      vertex 0.03968 -5.37895e-10 0.004
    endloop
  endfacet
  facet normal -1 1.7949e-09 3.22166e-18
    outer loop
      vertex 0.03968 0.4 0.004
      vertex 0.03968 -5.00409e-10 -0.0168843
      vertex 0.03968 -5.37895e-10 0.004
    endloop
  endfacet
  facet normal -3.22165e-18 -1.7949e-09 1
    outer loop
      vertex 0.34 0.4 0.004
      vertex 0.03968 0.4 0.004
      vertex 0.03968 -5.37895e-10 0.004
    endloop
  endfacet
  facet normal -1.7949e-09 -1 -1.7949e-09
    outer loop
      vertex 0.31738 -9.98852e-10 -0.0168843
      vertex 0.34 -8.27986e-10 -0.1347
      vertex 0.34 -1.07694e-09 0.004
    endloop
  endfacet
  facet normal 1 -1.7949e-09 -8.03671e-16
    outer loop
      vertex 0.34 0.4 -0.1347
      vertex 0.34 -1.07694e-09 0.004
      vertex 0.34 -8.27986e-10 -0.1347
    endloop
  endfacet
  facet normal 1 -1.7949e-09 7.97228e-16
    outer loop
      vertex 0.34 0.4 0.004
      vertex 0.34 -1.07694e-09 0.004
      vertex 0.34 0.4 -0.1347
    endloop
  endfacet
  facet normal -1.7949e-09 -1 -1.7949e-09
    outer loop
      vertex 0.03968 -1.40104e-10 -0.217623
      vertex 0.03968 -9.20006e-11 -0.244423
      vertex 0.34 -8.27986e-10 -0.1347
    endloop
  endfacet
  facet normal 0.343168 1.06995e-09 -0.939274
    outer loop
      vertex 0.03968 0.4 -0.244423
      vertex 0.34 -8.27986e-10 -0.1347
      vertex 0.03968 -9.20006e-11 -0.244423
    endloop
  endfacet
  facet normal -1.7949e-09 -1 -1.7949e-09
    outer loop
      vertex 0.31738 -8.20655e-10 -0.116164
      vertex 0.03968 -1.40104e-10 -0.217623
      vertex 0.34 -8.27986e-10 -0.1347
    endloop
  endfacet
  facet normal -1.7949e-09 -1 -1.7949e-09
    outer loop
      vertex 0.31738 -9.98852e-10 -0.0168843
      vertex 0.31738 -8.20655e-10 -0.116164
      vertex 0.34 -8.27986e-10 -0.1347
    endloop
  endfacet
  facet normal 0.343168 1.06995e-09 -0.939274
    outer loop
      vertex 0.34 0.4 -0.1347
      vertex 0.34 -8.27986e-10 -0.1347
      vertex 0.03968 0.4 -0.244423
    endloop
  endfacet
  facet normal -1 1.7949e-09 3.22165e-18
    outer loop
      vertex 0.03968 0.4 -0.217623
      vertex 0.03968 -9.20006e-11 -0.244423
      vertex 0.03968 -1.40104e-10 -0.217623
    endloop
  endfacet
  facet normal -1 1.7949e-09 1.03888e-15
    outer loop
      vertex 0.03968 0.4 -0.244423
      vertex 0.03968 -9.20006e-11 -0.244423
      vertex 0.03968 0.4 -0.217623
    endloop
  endfacet
  facet normal -0.343168 -1.06995e-09 0.939274
    outer loop
      vertex 0.31738 0.4 -0.116164
      vertex 0.03968 -1.40104e-10 -0.217623
      vertex 0.31738 -8.20655e-10 -0.116164
    endloop
  endfacet
  facet normal -0.343168 -1.06995e-09 0.939274
    outer loop
      vertex 0.03968 0.4 -0.217623
      vertex 0.03968 -1.40104e-10 -0.217623
      vertex 0.31738 0.4 -0.116164
    endloop
  endfacet
  facet normal -1 1.7949e-09 3.22166e-18
    outer loop
      vertex 0.31738 0.4 -0.0168843
      vertex 0.31738 -8.20655e-10 -0.116164
      vertex 0.31738 -9.98852e-10 -0.0168843
    endloop
  endfacet
  facet normal -1 1.7949e-09 3.22165e-18
    outer loop
      vertex 0.31738 0.4 -0.116164
      vertex 0.31738 -8.20655e-10 -0.116164
      vertex 0.31738 0.4 -0.0168843
    endloop
  endfacet
  facet normal 3.22165e-18 1.7949e-09 -1
    outer loop
      vertex 0.03968 0.4 -0.0168843
      vertex 0.31738 -9.98852e-10 -0.0168843
      vertex 0.03968 -5.00409e-10 -0.0168843
    endloop
  endfacet
  facet normal 3.22165e-18 1.7949e-09 -1
    outer loop
      vertex 0.31738 0.4 -0.0168843
      vertex 0.31738 -9.98852e-10 -0.0168843
      vertex 0.03968 0.4 -0.0168843
    endloop
  endfacet
  facet normal -1 1.7949e-09 3.22166e-18
    outer loop
      vertex 0.03968 0.4 -0.0168843
      vertex 0.03968 -5.00409e-10 -0.0168843
      vertex 0.03968 0.4 0.004
    endloop
  endfacet
  facet normal 1.7949e-09 1 1.7949e-09
    outer loop
      vertex 0.34 0.4 0.004
      vertex 0.03968 0.4 -0.0168843
      vertex 0.03968 0.4 0.004
    endloop
  endfacet
  facet normal 1.7949e-09 1 1.7949e-09
    outer loop
      vertex 0.34 0.4 0.004
      vertex 0.31738 0.4 -0.0168843
      vertex 0.03968 0.4 -0.0168843
    endloop
  endfacet
  facet normal 1.7949e-09 1 1.7949e-09
    outer loop
      vertex 0.34 0.4 0.004
      vertex 0.31738 0.4 -0.116164
      vertex 0.31738 0.4 -0.0168843
    endloop
  endfacet
  facet normal 1.7949e-09 1 1.7949e-09
    outer loop
      vertex 0.03968 0.4 -0.244423
      vertex 0.03968 0.4 -0.217623
      vertex 0.31738 0.4 -0.116164
    endloop
  endfacet
  facet normal 1.7949e-09 1 1.7949e-09
    outer loop
      vertex 0.34 0.4 -0.1347
      vertex 0.03968 0.4 -0.244423
      vertex 0.31738 0.4 -0.116164
    endloop
  endfacet
  facet normal 1.7949e-09 1 1.7949e-09
    outer loop
      vertex 0.34 0.4 0.004
      vertex 0.34 0.4 -0.1347
      vertex 0.31738 0.4 -0.116164
    endloop
  endfacet
endsolid LIGGGHTS_STL_EXPORT
