solid LIGGGHTS_STL_EXPORT
  facet normal -2.05358e-09 -1 -1.49201e-09
    outer loop
      vertex 0.0782982 -9.98852e-10 -0.160104
      vertex 0.103907 -1.07694e-09 -0.143015
      vertex -0.192716 -5.37895e-10 -0.096035
    endloop
  endfacet
  facet normal 0.156434 -1.7949e-09 0.987688
    outer loop
      vertex 0.103907 0.4 -0.143015
      vertex -0.192716 -5.37895e-10 -0.096035
      vertex 0.103907 -1.07694e-09 -0.143015
    endloop
  endfacet
  facet normal -2.05358e-09 -1 -1.49202e-09
    outer loop
      vertex -0.195983 -5.00409e-10 -0.116662
      vertex 0.0782982 -9.98852e-10 -0.160104
      vertex -0.192716 -5.37895e-10 -0.096035
    endloop
  endfacet
  facet normal -0.987688 1.7949e-09 0.156434
    outer loop
      vertex -0.192716 0.4 -0.096035
      vertex -0.195983 -5.00409e-10 -0.116662
      vertex -0.192716 -5.37895e-10 -0.096035
    endloop
  endfacet
  facet normal 0.156434 -1.7949e-09 0.987688
    outer loop
      vertex 0.103907 0.4 -0.143015
      vertex -0.192716 0.4 -0.096035
      vertex -0.192716 -5.37895e-10 -0.096035
    endloop
  endfacet
  facet normal -2.05358e-09 -1 -1.49202e-09
    outer loop
      vertex 0.0782982 -9.98852e-10 -0.160104
      vertex 0.0822093 -8.27986e-10 -0.280008
      vertex 0.103907 -1.07694e-09 -0.143015
    endloop
  endfacet
  facet normal 0.987688 -1.7949e-09 -0.156434
    outer loop
      vertex 0.0822093 0.4 -0.280008
      vertex 0.103907 -1.07694e-09 -0.143015
      vertex 0.0822093 -8.27986e-10 -0.280008
    endloop
  endfacet
  facet normal 0.987688 -1.7949e-09 -0.156434
    outer loop
      vertex 0.103907 0.4 -0.143015
      vertex 0.103907 -1.07694e-09 -0.143015
      vertex 0.0822093 0.4 -0.280008
    endloop
  endfacet
  facet normal -2.05358e-09 -1 -1.49202e-09
    outer loop
      vertex -0.227385 -1.40104e-10 -0.31493
      vertex -0.231578 -9.20006e-11 -0.3414
      vertex 0.0822093 -8.27986e-10 -0.280008
    endloop
  endfacet
  facet normal 0.192008 1.06995e-09 -0.981393
    outer loop
      vertex -0.231578 0.4 -0.3414
      vertex 0.0822093 -8.27986e-10 -0.280008
      vertex -0.231578 -9.20006e-11 -0.3414
    endloop
  endfacet
  facet normal -2.05358e-09 -1 -1.49201e-09
    outer loop
      vertex 0.0627674 -8.20655e-10 -0.258162
      vertex -0.227385 -1.40104e-10 -0.31493
      vertex 0.0822093 -8.27986e-10 -0.280008
    endloop
  endfacet
  facet normal -2.05358e-09 -1 -1.49202e-09
    outer loop
      vertex 0.0782982 -9.98852e-10 -0.160104
      vertex 0.0627674 -8.20655e-10 -0.258162
      vertex 0.0822093 -8.27986e-10 -0.280008
    endloop
  endfacet
  facet normal 0.192008 1.06994e-09 -0.981393
    outer loop
      vertex 0.0822093 0.4 -0.280008
      vertex 0.0822093 -8.27986e-10 -0.280008
      vertex -0.231578 0.4 -0.3414
    endloop
  endfacet
  facet normal -0.987688 1.79489e-09 0.156434
    outer loop
      vertex -0.227385 0.4 -0.31493
      vertex -0.231578 -9.20006e-11 -0.3414
      vertex -0.227385 -1.40104e-10 -0.31493
    endloop
  endfacet
  facet normal -0.987688 1.79489e-09 0.156434
    outer loop
      vertex -0.231578 0.4 -0.3414
      vertex -0.231578 -9.20006e-11 -0.3414
      vertex -0.227385 0.4 -0.31493
    endloop
  endfacet
  facet normal -0.192008 -1.06995e-09 0.981393
    outer loop
      vertex 0.0627674 0.4 -0.258162
      vertex -0.227385 -1.40104e-10 -0.31493
      vertex 0.0627674 -8.20655e-10 -0.258162
    endloop
  endfacet
  facet normal -0.192008 -1.06995e-09 0.981393
    outer loop
      vertex -0.227385 0.4 -0.31493
      vertex -0.227385 -1.40104e-10 -0.31493
      vertex 0.0627674 0.4 -0.258162
    endloop
  endfacet
  facet normal -0.987688 1.7949e-09 0.156434
    outer loop
      vertex 0.0782982 0.4 -0.160104
      vertex 0.0627674 -8.20655e-10 -0.258162
      vertex 0.0782982 -9.98852e-10 -0.160104
    endloop
  endfacet
  facet normal -0.987688 1.7949e-09 0.156434
    outer loop
      vertex 0.0627674 0.4 -0.258162
      vertex 0.0627674 -8.20655e-10 -0.258162
      vertex 0.0782982 0.4 -0.160104
    endloop
  endfacet
  facet normal -0.156434 1.7949e-09 -0.987688
    outer loop
      vertex -0.195983 0.4 -0.116662
      vertex 0.0782982 -9.98852e-10 -0.160104
      vertex -0.195983 -5.00409e-10 -0.116662
    endloop
  endfacet
  facet normal -0.156434 1.7949e-09 -0.987688
    outer loop
      vertex 0.0782982 0.4 -0.160104
      vertex 0.0782982 -9.98852e-10 -0.160104
      vertex -0.195983 0.4 -0.116662
    endloop
  endfacet
  facet normal -0.987688 1.7949e-09 0.156434
    outer loop
      vertex -0.195983 0.4 -0.116662
      vertex -0.195983 -5.00409e-10 -0.116662
      vertex -0.192716 0.4 -0.096035
    endloop
  endfacet
  facet normal 2.05358e-09 1 1.49202e-09
    outer loop
      vertex 0.103907 0.4 -0.143015
      vertex -0.195983 0.4 -0.116662
      vertex -0.192716 0.4 -0.096035
    endloop
  endfacet
  facet normal 2.05383e-09 1 1.49478e-09
    outer loop
      vertex 0.103907 0.4 -0.143015
      vertex 0.0782982 0.4 -0.160104
      vertex -0.195983 0.4 -0.116662
    endloop
  endfacet
  facet normal 2.05592e-09 1 1.49165e-09
    outer loop
      vertex 0.103907 0.4 -0.143015
      vertex 0.0627674 0.4 -0.258162
      vertex 0.0782982 0.4 -0.160104
    endloop
  endfacet
  facet normal 2.05339e-09 1 1.49205e-09
    outer loop
      vertex -0.231578 0.4 -0.3414
      vertex -0.227385 0.4 -0.31493
      vertex 0.0627674 0.4 -0.258162
    endloop
  endfacet
  facet normal 2.05344e-09 1 1.49188e-09
    outer loop
      vertex 0.0822093 0.4 -0.280008
      vertex -0.231578 0.4 -0.3414
      vertex 0.0627674 0.4 -0.258162
    endloop
  endfacet
  facet normal 2.05396e-09 1 1.49235e-09
    outer loop
      vertex 0.103907 0.4 -0.143015
      vertex 0.0822093 0.4 -0.280008
      vertex 0.0627674 0.4 -0.258162
    endloop
  endfacet
endsolid LIGGGHTS_STL_EXPORT
