solid LIGGGHTS_STL_EXPORT
  facet normal -2.53711e-09 -1 -7.9731e-11
    outer loop
      vertex -0.0252329 -9.98852e-10 -0.176429
      vertex 0.00555269 -1.07694e-09 -0.176689
      vertex -0.213371 -5.37895e-10 0.0288937
    endloop
  endfacet
  facet normal 0.684547 -1.79489e-09 0.728969
    outer loop
      vertex 0.00555269 0.4 -0.176689
      vertex -0.213371 -5.37895e-10 0.0288937
      vertex 0.00555269 -1.07694e-09 -0.176689
    endloop
  endfacet
  facet normal -2.53712e-09 -1 -7.97323e-11
    outer loop
      vertex -0.227667 -5.00409e-10 0.0136697
      vertex -0.0252329 -9.98852e-10 -0.176429
      vertex -0.213371 -5.37895e-10 0.0288937
    endloop
  endfacet
  facet normal -0.728969 1.79489e-09 0.684547
    outer loop
      vertex -0.213371 0.4 0.0288937
      vertex -0.227667 -5.00409e-10 0.0136697
      vertex -0.213371 -5.37895e-10 0.0288937
    endloop
  endfacet
  facet normal 0.684547 -1.79489e-09 0.728969
    outer loop
      vertex 0.00555269 0.4 -0.176689
      vertex -0.213371 0.4 0.0288937
      vertex -0.213371 -5.37895e-10 0.0288937
    endloop
  endfacet
  facet normal -2.53711e-09 -1 -7.97331e-11
    outer loop
      vertex -0.0252329 -9.98852e-10 -0.176429
      vertex -0.089394 -8.27986e-10 -0.277797
      vertex 0.00555269 -1.07694e-09 -0.176689
    endloop
  endfacet
  facet normal 0.728969 -1.79489e-09 -0.684547
    outer loop
      vertex -0.089394 0.4 -0.277797
      vertex 0.00555269 -1.07694e-09 -0.176689
      vertex -0.089394 -8.27986e-10 -0.277797
    endloop
  endfacet
  facet normal 0.728969 -1.7949e-09 -0.684547
    outer loop
      vertex 0.00555269 0.4 -0.176689
      vertex 0.00555269 -1.07694e-09 -0.176689
      vertex -0.089394 0.4 -0.277797
    endloop
  endfacet
  facet normal -2.53711e-09 -1 -7.97324e-11
    outer loop
      vertex -0.365083 -1.40104e-10 -0.132663
      vertex -0.383429 -9.20006e-11 -0.152199
      vertex -0.089394 -8.27986e-10 -0.277797
    endloop
  endfacet
  facet normal -0.392819 1.06995e-09 -0.919616
    outer loop
      vertex -0.383429 0.4 -0.152199
      vertex -0.089394 -8.27986e-10 -0.277797
      vertex -0.383429 -9.20006e-11 -0.152199
    endloop
  endfacet
  facet normal -2.53711e-09 -1 -7.97307e-11
    outer loop
      vertex -0.0931947 -8.20655e-10 -0.248801
      vertex -0.365083 -1.40104e-10 -0.132663
      vertex -0.089394 -8.27986e-10 -0.277797
    endloop
  endfacet
  facet normal -2.53712e-09 -1 -7.97311e-11
    outer loop
      vertex -0.0252329 -9.98852e-10 -0.176429
      vertex -0.0931947 -8.20655e-10 -0.248801
      vertex -0.089394 -8.27986e-10 -0.277797
    endloop
  endfacet
  facet normal -0.392819 1.06995e-09 -0.919616
    outer loop
      vertex -0.089394 0.4 -0.277797
      vertex -0.089394 -8.27986e-10 -0.277797
      vertex -0.383429 0.4 -0.152199
    endloop
  endfacet
  facet normal -0.728969 1.7949e-09 0.684547
    outer loop
      vertex -0.365083 0.4 -0.132663
      vertex -0.383429 -9.20006e-11 -0.152199
      vertex -0.365083 -1.40104e-10 -0.132663
    endloop
  endfacet
  facet normal -0.728969 1.79489e-09 0.684547
    outer loop
      vertex -0.383429 0.4 -0.152199
      vertex -0.383429 -9.20006e-11 -0.152199
      vertex -0.365083 0.4 -0.132663
    endloop
  endfacet
  facet normal 0.392819 -1.06995e-09 0.919616
    outer loop
      vertex -0.0931947 0.4 -0.248801
      vertex -0.365083 -1.40104e-10 -0.132663
      vertex -0.0931947 -8.20655e-10 -0.248801
    endloop
  endfacet
  facet normal 0.392819 -1.06995e-09 0.919616
    outer loop
      vertex -0.365083 0.4 -0.132663
      vertex -0.365083 -1.40104e-10 -0.132663
      vertex -0.0931947 0.4 -0.248801
    endloop
  endfacet
  facet normal -0.728969 1.7949e-09 0.684547
    outer loop
      vertex -0.0252329 0.4 -0.176429
      vertex -0.0931947 -8.20655e-10 -0.248801
      vertex -0.0252329 -9.98852e-10 -0.176429
    endloop
  endfacet
  facet normal -0.728969 1.7949e-09 0.684547
    outer loop
      vertex -0.0931947 0.4 -0.248801
      vertex -0.0931947 -8.20655e-10 -0.248801
      vertex -0.0252329 0.4 -0.176429
    endloop
  endfacet
  facet normal -0.684547 1.7949e-09 -0.728969
    outer loop
      vertex -0.227667 0.4 0.0136697
      vertex -0.0252329 -9.98852e-10 -0.176429
      vertex -0.227667 -5.00409e-10 0.0136697
    endloop
  endfacet
  facet normal -0.684547 1.7949e-09 -0.728969
    outer loop
      vertex -0.0252329 0.4 -0.176429
      vertex -0.0252329 -9.98852e-10 -0.176429
      vertex -0.227667 0.4 0.0136697
    endloop
  endfacet
  facet normal -0.728969 1.7949e-09 0.684547
    outer loop
      vertex -0.227667 0.4 0.0136697
      vertex -0.227667 -5.00409e-10 0.0136697
      vertex -0.213371 0.4 0.0288937
    endloop
  endfacet
  facet normal 2.53712e-09 1 7.97335e-11
    outer loop
      vertex 0.00555269 0.4 -0.176689
      vertex -0.227667 0.4 0.0136697
      vertex -0.213371 0.4 0.0288937
    endloop
  endfacet
  facet normal 2.54581e-09 1 9.03799e-11
    outer loop
      vertex 0.00555269 0.4 -0.176689
      vertex -0.0252329 0.4 -0.176429
      vertex -0.227667 0.4 0.0136697
    endloop
  endfacet
  facet normal 2.54565e-09 1 7.17188e-11
    outer loop
      vertex 0.00555269 0.4 -0.176689
      vertex -0.0931947 0.4 -0.248801
      vertex -0.0252329 0.4 -0.176429
    endloop
  endfacet
  facet normal 2.53642e-09 1 8.03854e-11
    outer loop
      vertex -0.383429 0.4 -0.152199
      vertex -0.365083 0.4 -0.132663
      vertex -0.0931947 0.4 -0.248801
    endloop
  endfacet
  facet normal 2.53616e-09 1 7.96057e-11
    outer loop
      vertex -0.089394 0.4 -0.277797
      vertex -0.383429 0.4 -0.152199
      vertex -0.0931947 0.4 -0.248801
    endloop
  endfacet
  facet normal 2.53956e-09 1 8.00517e-11
    outer loop
      vertex 0.00555269 0.4 -0.176689
      vertex -0.089394 0.4 -0.277797
      vertex -0.0931947 0.4 -0.248801
    endloop
  endfacet
endsolid LIGGGHTS_STL_EXPORT
