solid LIGGGHTS_STL_EXPORT
  facet normal -1.7949e-09 -1 -1.7949e-09
    outer loop
      vertex 0.15738 -9.98852e-10 -0.112884
      vertex 0.18 -1.07694e-09 -0.092
      vertex -0.12032 -5.37895e-10 -0.092
    endloop
  endfacet
  facet normal -3.22165e-18 -1.7949e-09 1
    outer loop
      vertex 0.18 0.4 -0.092
      vertex -0.12032 -5.37895e-10 -0.092
      vertex 0.18 -1.07694e-09 -0.092
    endloop
  endfacet
  facet normal -1.7949e-09 -1 -1.7949e-09
    outer loop
      vertex -0.12032 -5.00409e-10 -0.112884
      vertex 0.15738 -9.98852e-10 -0.112884
      vertex -0.12032 -5.37895e-10 -0.092
    endloop
  endfacet
  facet normal -1 1.7949e-09 3.22166e-18
    outer loop
      vertex -0.12032 0.4 -0.092
      vertex -0.12032 -5.00409e-10 -0.112884
      vertex -0.12032 -5.37895e-10 -0.092
    endloop
  endfacet
  facet normal -3.22165e-18 -1.7949e-09 1
    outer loop
      vertex 0.18 0.4 -0.092
      vertex -0.12032 0.4 -0.092
      vertex -0.12032 -5.37895e-10 -0.092
    endloop
  endfacet
  facet normal -1.7949e-09 -1 -1.7949e-09
    outer loop
      vertex 0.15738 -9.98852e-10 -0.112884
      vertex 0.18 -8.27986e-10 -0.2307
      vertex 0.18 -1.07694e-09 -0.092
    endloop
  endfacet
  facet normal 1 -1.7949e-09 -8.03671e-16
    outer loop
      vertex 0.18 0.4 -0.2307
      vertex 0.18 -1.07694e-09 -0.092
      vertex 0.18 -8.27986e-10 -0.2307
    endloop
  endfacet
  facet normal 1 -1.7949e-09 7.97228e-16
    outer loop
      vertex 0.18 0.4 -0.092
      vertex 0.18 -1.07694e-09 -0.092
      vertex 0.18 0.4 -0.2307
    endloop
  endfacet
  facet normal -1.7949e-09 -1 -1.7949e-09
    outer loop
      vertex -0.12032 -1.40104e-10 -0.313623
      vertex -0.12032 -9.20006e-11 -0.340423
      vertex 0.18 -8.27986e-10 -0.2307
    endloop
  endfacet
  facet normal 0.343168 1.06995e-09 -0.939274
    outer loop
      vertex -0.12032 0.4 -0.340423
      vertex 0.18 -8.27986e-10 -0.2307
      vertex -0.12032 -9.20006e-11 -0.340423
    endloop
  endfacet
  facet normal -1.7949e-09 -1 -1.7949e-09
    outer loop
      vertex 0.15738 -8.20655e-10 -0.212164
      vertex -0.12032 -1.40104e-10 -0.313623
      vertex 0.18 -8.27986e-10 -0.2307
    endloop
  endfacet
  facet normal -1.7949e-09 -1 -1.7949e-09
    outer loop
      vertex 0.15738 -9.98852e-10 -0.112884
      vertex 0.15738 -8.20655e-10 -0.212164
      vertex 0.18 -8.27986e-10 -0.2307
    endloop
  endfacet
  facet normal 0.343168 1.06995e-09 -0.939274
    outer loop
      vertex 0.18 0.4 -0.2307
      vertex 0.18 -8.27986e-10 -0.2307
      vertex -0.12032 0.4 -0.340423
    endloop
  endfacet
  facet normal -1 1.7949e-09 3.22165e-18
    outer loop
      vertex -0.12032 0.4 -0.313623
      vertex -0.12032 -9.20006e-11 -0.340423
      vertex -0.12032 -1.40104e-10 -0.313623
    endloop
  endfacet
  facet normal -1 1.7949e-09 1.03888e-15
    outer loop
      vertex -0.12032 0.4 -0.340423
      vertex -0.12032 -9.20006e-11 -0.340423
      vertex -0.12032 0.4 -0.313623
    endloop
  endfacet
  facet normal -0.343168 -1.06995e-09 0.939274
    outer loop
      vertex 0.15738 0.4 -0.212164
      vertex -0.12032 -1.40104e-10 -0.313623
      vertex 0.15738 -8.20655e-10 -0.212164
    endloop
  endfacet
  facet normal -0.343168 -1.06995e-09 0.939274
    outer loop
      vertex -0.12032 0.4 -0.313623
      vertex -0.12032 -1.40104e-10 -0.313623
      vertex 0.15738 0.4 -0.212164
    endloop
  endfacet
  facet normal -1 1.7949e-09 3.22166e-18
    outer loop
      vertex 0.15738 0.4 -0.112884
      vertex 0.15738 -8.20655e-10 -0.212164
      vertex 0.15738 -9.98852e-10 -0.112884
    endloop
  endfacet
  facet normal -1 1.7949e-09 3.22165e-18
    outer loop
      vertex 0.15738 0.4 -0.212164
      vertex 0.15738 -8.20655e-10 -0.212164
      vertex 0.15738 0.4 -0.112884
    endloop
  endfacet
  facet normal 3.22165e-18 1.7949e-09 -1
    outer loop
      vertex -0.12032 0.4 -0.112884
      vertex 0.15738 -9.98852e-10 -0.112884
      vertex -0.12032 -5.00409e-10 -0.112884
    endloop
  endfacet
  facet normal 3.22165e-18 1.7949e-09 -1
    outer loop
      vertex 0.15738 0.4 -0.112884
      vertex 0.15738 -9.98852e-10 -0.112884
      vertex -0.12032 0.4 -0.112884
    endloop
  endfacet
  facet normal -1 1.7949e-09 3.22166e-18
    outer loop
      vertex -0.12032 0.4 -0.112884
      vertex -0.12032 -5.00409e-10 -0.112884
      vertex -0.12032 0.4 -0.092
    endloop
  endfacet
  facet normal 1.7949e-09 1 1.7949e-09
    outer loop
      vertex 0.18 0.4 -0.092
      vertex -0.12032 0.4 -0.112884
      vertex -0.12032 0.4 -0.092
    endloop
  endfacet
  facet normal 1.7949e-09 1 1.7949e-09
    outer loop
      vertex 0.18 0.4 -0.092
      vertex 0.15738 0.4 -0.112884
      vertex -0.12032 0.4 -0.112884
    endloop
  endfacet
  facet normal 1.7949e-09 1 1.7949e-09
    outer loop
      vertex 0.18 0.4 -0.092
      vertex 0.15738 0.4 -0.212164
      vertex 0.15738 0.4 -0.112884
    endloop
  endfacet
  facet normal 1.7949e-09 1 1.7949e-09
    outer loop
      vertex -0.12032 0.4 -0.340423
      vertex -0.12032 0.4 -0.313623
      vertex 0.15738 0.4 -0.212164
    endloop
  endfacet
  facet normal 1.7949e-09 1 1.7949e-09
    outer loop
      vertex 0.18 0.4 -0.2307
      vertex -0.12032 0.4 -0.340423
      vertex 0.15738 0.4 -0.212164
    endloop
  endfacet
  facet normal 1.7949e-09 1 1.7949e-09
    outer loop
      vertex 0.18 0.4 -0.092
      vertex 0.18 0.4 -0.2307
      vertex 0.15738 0.4 -0.212164
    endloop
  endfacet
endsolid LIGGGHTS_STL_EXPORT
