solid LIGGGHTS_STL_EXPORT
  facet normal -1.90406e-09 -1 1.67865e-09
    outer loop
      vertex -0.139168 -9.98852e-10 -0.111338
      vertex -0.116905 -1.07694e-09 -0.132602
      vertex -0.135762 -5.37895e-10 0.167125
    endloop
  endfacet
  facet normal 0.998027 -1.7949e-09 0.0627905
    outer loop
      vertex -0.116905 0.4 -0.132602
      vertex -0.135762 -5.37895e-10 0.167125
      vertex -0.116905 -1.07694e-09 -0.132602
    endloop
  endfacet
  facet normal -1.90406e-09 -1 1.67865e-09
    outer loop
      vertex -0.156605 -5.00409e-10 0.165814
      vertex -0.139168 -9.98852e-10 -0.111338
      vertex -0.135762 -5.37895e-10 0.167125
    endloop
  endfacet
  facet normal -0.0627905 1.7949e-09 0.998027
    outer loop
      vertex -0.135762 0.4 0.167125
      vertex -0.156605 -5.00409e-10 0.165814
      vertex -0.135762 -5.37895e-10 0.167125
    endloop
  endfacet
  facet normal 0.998027 -1.7949e-09 0.0627905
    outer loop
      vertex -0.116905 0.4 -0.132602
      vertex -0.135762 0.4 0.167125
      vertex -0.135762 -5.37895e-10 0.167125
    endloop
  endfacet
  facet normal -1.90406e-09 -1 1.67865e-09
    outer loop
      vertex -0.139168 -9.98852e-10 -0.111338
      vertex -0.255331 -8.27986e-10 -0.141311
      vertex -0.116905 -1.07694e-09 -0.132602
    endloop
  endfacet
  facet normal 0.0627905 -1.7949e-09 -0.998027
    outer loop
      vertex -0.255331 0.4 -0.141311
      vertex -0.116905 -1.07694e-09 -0.132602
      vertex -0.255331 -8.27986e-10 -0.141311
    endloop
  endfacet
  facet normal 0.0627905 -1.7949e-09 -0.998027
    outer loop
      vertex -0.116905 0.4 -0.132602
      vertex -0.116905 -1.07694e-09 -0.132602
      vertex -0.255331 0.4 -0.141311
    endloop
  endfacet
  facet normal -1.90406e-09 -1 1.67865e-09
    outer loop
      vertex -0.356948 -1.40104e-10 0.153209
      vertex -0.383695 -9.20006e-11 0.151527
      vertex -0.255331 -8.27986e-10 -0.141311
    endloop
  endfacet
  facet normal -0.915873 1.06995e-09 -0.401468
    outer loop
      vertex -0.383695 0.4 0.151527
      vertex -0.255331 -8.27986e-10 -0.141311
      vertex -0.383695 -9.20006e-11 0.151527
    endloop
  endfacet
  facet normal -1.90406e-09 -1 1.67865e-09
    outer loop
      vertex -0.238252 -8.20655e-10 -0.117572
      vertex -0.356948 -1.40104e-10 0.153209
      vertex -0.255331 -8.27986e-10 -0.141311
    endloop
  endfacet
  facet normal -1.90406e-09 -1 1.67865e-09
    outer loop
      vertex -0.139168 -9.98852e-10 -0.111338
      vertex -0.238252 -8.20655e-10 -0.117572
      vertex -0.255331 -8.27986e-10 -0.141311
    endloop
  endfacet
  facet normal -0.915873 1.06995e-09 -0.401468
    outer loop
      vertex -0.255331 0.4 -0.141311
      vertex -0.255331 -8.27986e-10 -0.141311
      vertex -0.383695 0.4 0.151527
    endloop
  endfacet
  facet normal -0.0627905 1.79489e-09 0.998027
    outer loop
      vertex -0.356948 0.4 0.153209
      vertex -0.383695 -9.20006e-11 0.151527
      vertex -0.356948 -1.40104e-10 0.153209
    endloop
  endfacet
  facet normal -0.0627905 1.79489e-09 0.998027
    outer loop
      vertex -0.383695 0.4 0.151527
      vertex -0.383695 -9.20006e-11 0.151527
      vertex -0.356948 0.4 0.153209
    endloop
  endfacet
  facet normal 0.915873 -1.06995e-09 0.401468
    outer loop
      vertex -0.238252 0.4 -0.117572
      vertex -0.356948 -1.40104e-10 0.153209
      vertex -0.238252 -8.20655e-10 -0.117572
    endloop
  endfacet
  facet normal 0.915873 -1.06994e-09 0.401468
    outer loop
      vertex -0.356948 0.4 0.153209
      vertex -0.356948 -1.40104e-10 0.153209
      vertex -0.238252 0.4 -0.117572
    endloop
  endfacet
  facet normal -0.0627905 1.79489e-09 0.998027
    outer loop
      vertex -0.139168 0.4 -0.111338
      vertex -0.238252 -8.20655e-10 -0.117572
      vertex -0.139168 -9.98852e-10 -0.111338
    endloop
  endfacet
  facet normal -0.0627905 1.7949e-09 0.998027
    outer loop
      vertex -0.238252 0.4 -0.117572
      vertex -0.238252 -8.20655e-10 -0.117572
      vertex -0.139168 0.4 -0.111338
    endloop
  endfacet
  facet normal -0.998027 1.7949e-09 -0.0627905
    outer loop
      vertex -0.156605 0.4 0.165814
      vertex -0.139168 -9.98852e-10 -0.111338
      vertex -0.156605 -5.00409e-10 0.165814
    endloop
  endfacet
  facet normal -0.998027 1.79489e-09 -0.0627905
    outer loop
      vertex -0.139168 0.4 -0.111338
      vertex -0.139168 -9.98852e-10 -0.111338
      vertex -0.156605 0.4 0.165814
    endloop
  endfacet
  facet normal -0.0627905 1.7949e-09 0.998027
    outer loop
      vertex -0.156605 0.4 0.165814
      vertex -0.156605 -5.00409e-10 0.165814
      vertex -0.135762 0.4 0.167125
    endloop
  endfacet
  facet normal 1.90406e-09 1 -1.67865e-09
    outer loop
      vertex -0.116905 0.4 -0.132602
      vertex -0.156605 0.4 0.165814
      vertex -0.135762 0.4 0.167125
    endloop
  endfacet
  facet normal 1.93076e-09 1 -1.6751e-09
    outer loop
      vertex -0.116905 0.4 -0.132602
      vertex -0.139168 0.4 -0.111338
      vertex -0.156605 0.4 0.165814
    endloop
  endfacet
  facet normal 1.9055e-09 1 -1.70155e-09
    outer loop
      vertex -0.116905 0.4 -0.132602
      vertex -0.238252 0.4 -0.117572
      vertex -0.139168 0.4 -0.111338
    endloop
  endfacet
  facet normal 1.90394e-09 1 -1.67679e-09
    outer loop
      vertex -0.383695 0.4 0.151527
      vertex -0.356948 0.4 0.153209
      vertex -0.238252 0.4 -0.117572
    endloop
  endfacet
  facet normal 1.90253e-09 1 -1.67755e-09
    outer loop
      vertex -0.255331 0.4 -0.141311
      vertex -0.383695 0.4 0.151527
      vertex -0.238252 0.4 -0.117572
    endloop
  endfacet
  facet normal 1.90798e-09 1 -1.68148e-09
    outer loop
      vertex -0.116905 0.4 -0.132602
      vertex -0.255331 0.4 -0.141311
      vertex -0.238252 0.4 -0.117572
    endloop
  endfacet
endsolid LIGGGHTS_STL_EXPORT
