solid LIGGGHTS_STL_EXPORT
  facet normal -1.7949e-09 -1 -1.7949e-09
    outer loop
      vertex 0.11238 -9.98852e-10 -0.139884
      vertex 0.135 -1.07694e-09 -0.119
      vertex -0.16532 -5.37895e-10 -0.119
    endloop
  endfacet
  facet normal -3.22165e-18 -1.7949e-09 1
    outer loop
      vertex 0.135 0.4 -0.119
      vertex -0.16532 -5.37895e-10 -0.119
      vertex 0.135 -1.07694e-09 -0.119
    endloop
  endfacet
  facet normal -1.7949e-09 -1 -1.7949e-09
    outer loop
      vertex -0.16532 -5.00409e-10 -0.139884
      vertex 0.11238 -9.98852e-10 -0.139884
      vertex -0.16532 -5.37895e-10 -0.119
    endloop
  endfacet
  facet normal -1 1.7949e-09 3.22166e-18
    outer loop
      vertex -0.16532 0.4 -0.119
      vertex -0.16532 -5.00409e-10 -0.139884
      vertex -0.16532 -5.37895e-10 -0.119
    endloop
  endfacet
  facet normal -3.22165e-18 -1.7949e-09 1
    outer loop
      vertex 0.135 0.4 -0.119
      vertex -0.16532 0.4 -0.119
      vertex -0.16532 -5.37895e-10 -0.119
    endloop
  endfacet
  facet normal -1.7949e-09 -1 -1.7949e-09
    outer loop
      vertex 0.11238 -9.98852e-10 -0.139884
      vertex 0.135 -8.27986e-10 -0.2577
      vertex 0.135 -1.07694e-09 -0.119
    endloop
  endfacet
  facet normal 1 -1.7949e-09 -8.03671e-16
    outer loop
      vertex 0.135 0.4 -0.2577
      vertex 0.135 -1.07694e-09 -0.119
      vertex 0.135 -8.27986e-10 -0.2577
    endloop
  endfacet
  facet normal 1 -1.7949e-09 7.97228e-16
    outer loop
      vertex 0.135 0.4 -0.119
      vertex 0.135 -1.07694e-09 -0.119
      vertex 0.135 0.4 -0.2577
    endloop
  endfacet
  facet normal -1.7949e-09 -1 -1.7949e-09
    outer loop
      vertex -0.16532 -1.40104e-10 -0.340623
      vertex -0.16532 -9.20006e-11 -0.367423
      vertex 0.135 -8.27986e-10 -0.2577
    endloop
  endfacet
  facet normal 0.343168 1.06995e-09 -0.939274
    outer loop
      vertex -0.16532 0.4 -0.367423
      vertex 0.135 -8.27986e-10 -0.2577
      vertex -0.16532 -9.20006e-11 -0.367423
    endloop
  endfacet
  facet normal -1.7949e-09 -1 -1.7949e-09
    outer loop
      vertex 0.11238 -8.20655e-10 -0.239164
      vertex -0.16532 -1.40104e-10 -0.340623
      vertex 0.135 -8.27986e-10 -0.2577
    endloop
  endfacet
  facet normal -1.7949e-09 -1 -1.7949e-09
    outer loop
      vertex 0.11238 -9.98852e-10 -0.139884
      vertex 0.11238 -8.20655e-10 -0.239164
      vertex 0.135 -8.27986e-10 -0.2577
    endloop
  endfacet
  facet normal 0.343168 1.06995e-09 -0.939274
    outer loop
      vertex 0.135 0.4 -0.2577
      vertex 0.135 -8.27986e-10 -0.2577
      vertex -0.16532 0.4 -0.367423
    endloop
  endfacet
  facet normal -1 1.7949e-09 3.22165e-18
    outer loop
      vertex -0.16532 0.4 -0.340623
      vertex -0.16532 -9.20006e-11 -0.367423
      vertex -0.16532 -1.40104e-10 -0.340623
    endloop
  endfacet
  facet normal -1 1.7949e-09 1.03888e-15
    outer loop
      vertex -0.16532 0.4 -0.367423
      vertex -0.16532 -9.20006e-11 -0.367423
      vertex -0.16532 0.4 -0.340623
    endloop
  endfacet
  facet normal -0.343168 -1.06995e-09 0.939274
    outer loop
      vertex 0.11238 0.4 -0.239164
      vertex -0.16532 -1.40104e-10 -0.340623
      vertex 0.11238 -8.20655e-10 -0.239164
    endloop
  endfacet
  facet normal -0.343168 -1.06995e-09 0.939274
    outer loop
      vertex -0.16532 0.4 -0.340623
      vertex -0.16532 -1.40104e-10 -0.340623
      vertex 0.11238 0.4 -0.239164
    endloop
  endfacet
  facet normal -1 1.7949e-09 3.22166e-18
    outer loop
      vertex 0.11238 0.4 -0.139884
      vertex 0.11238 -8.20655e-10 -0.239164
      vertex 0.11238 -9.98852e-10 -0.139884
    endloop
  endfacet
  facet normal -1 1.7949e-09 3.22165e-18
    outer loop
      vertex 0.11238 0.4 -0.239164
      vertex 0.11238 -8.20655e-10 -0.239164
      vertex 0.11238 0.4 -0.139884
    endloop
  endfacet
  facet normal 3.22165e-18 1.7949e-09 -1
    outer loop
      vertex -0.16532 0.4 -0.139884
      vertex 0.11238 -9.98852e-10 -0.139884
      vertex -0.16532 -5.00409e-10 -0.139884
    endloop
  endfacet
  facet normal 3.22165e-18 1.7949e-09 -1
    outer loop
      vertex 0.11238 0.4 -0.139884
      vertex 0.11238 -9.98852e-10 -0.139884
      vertex -0.16532 0.4 -0.139884
    endloop
  endfacet
  facet normal -1 1.7949e-09 3.22166e-18
    outer loop
      vertex -0.16532 0.4 -0.139884
      vertex -0.16532 -5.00409e-10 -0.139884
      vertex -0.16532 0.4 -0.119
    endloop
  endfacet
  facet normal 1.7949e-09 1 1.7949e-09
    outer loop
      vertex 0.135 0.4 -0.119
      vertex -0.16532 0.4 -0.139884
      vertex -0.16532 0.4 -0.119
    endloop
  endfacet
  facet normal 1.7949e-09 1 1.7949e-09
    outer loop
      vertex 0.135 0.4 -0.119
      vertex 0.11238 0.4 -0.139884
      vertex -0.16532 0.4 -0.139884
    endloop
  endfacet
  facet normal 1.7949e-09 1 1.7949e-09
    outer loop
      vertex 0.135 0.4 -0.119
      vertex 0.11238 0.4 -0.239164
      vertex 0.11238 0.4 -0.139884
    endloop
  endfacet
  facet normal 1.7949e-09 1 1.7949e-09
    outer loop
      vertex -0.16532 0.4 -0.367423
      vertex -0.16532 0.4 -0.340623
      vertex 0.11238 0.4 -0.239164
    endloop
  endfacet
  facet normal 1.7949e-09 1 1.7949e-09
    outer loop
      vertex 0.135 0.4 -0.2577
      vertex -0.16532 0.4 -0.367423
      vertex 0.11238 0.4 -0.239164
    endloop
  endfacet
  facet normal 1.7949e-09 1 1.7949e-09
    outer loop
      vertex 0.135 0.4 -0.119
      vertex 0.135 0.4 -0.2577
      vertex 0.11238 0.4 -0.239164
    endloop
  endfacet
endsolid LIGGGHTS_STL_EXPORT
