solid LIGGGHTS_STL_EXPORT
  facet normal -1.7949e-09 -1 -1.7949e-09
    outer loop
      vertex 0.14238 -9.98852e-10 -0.121884
      vertex 0.165 -1.07694e-09 -0.101
      vertex -0.13532 -5.37895e-10 -0.101
    endloop
  endfacet
  facet normal -3.22165e-18 -1.7949e-09 1
    outer loop
      vertex 0.165 0.4 -0.101
      vertex -0.13532 -5.37895e-10 -0.101
      vertex 0.165 -1.07694e-09 -0.101
    endloop
  endfacet
  facet normal -1.7949e-09 -1 -1.7949e-09
    outer loop
      vertex -0.13532 -5.00409e-10 -0.121884
      vertex 0.14238 -9.98852e-10 -0.121884
      vertex -0.13532 -5.37895e-10 -0.101
    endloop
  endfacet
  facet normal -1 1.7949e-09 3.22166e-18
    outer loop
      vertex -0.13532 0.4 -0.101
      vertex -0.13532 -5.00409e-10 -0.121884
      vertex -0.13532 -5.37895e-10 -0.101
    endloop
  endfacet
  facet normal -3.22165e-18 -1.7949e-09 1
    outer loop
      vertex 0.165 0.4 -0.101
      vertex -0.13532 0.4 -0.101
      vertex -0.13532 -5.37895e-10 -0.101
    endloop
  endfacet
  facet normal -1.7949e-09 -1 -1.7949e-09
    outer loop
      vertex 0.14238 -9.98852e-10 -0.121884
      vertex 0.165 -8.27986e-10 -0.2397
      vertex 0.165 -1.07694e-09 -0.101
    endloop
  endfacet
  facet normal 1 -1.7949e-09 -8.03671e-16
    outer loop
      vertex 0.165 0.4 -0.2397
      vertex 0.165 -1.07694e-09 -0.101
      vertex 0.165 -8.27986e-10 -0.2397
    endloop
  endfacet
  facet normal 1 -1.7949e-09 7.97228e-16
    outer loop
      vertex 0.165 0.4 -0.101
      vertex 0.165 -1.07694e-09 -0.101
      vertex 0.165 0.4 -0.2397
    endloop
  endfacet
  facet normal -1.7949e-09 -1 -1.7949e-09
    outer loop
      vertex -0.13532 -1.40104e-10 -0.322623
      vertex -0.13532 -9.20006e-11 -0.349423
      vertex 0.165 -8.27986e-10 -0.2397
    endloop
  endfacet
  facet normal 0.343168 1.06995e-09 -0.939274
    outer loop
      vertex -0.13532 0.4 -0.349423
      vertex 0.165 -8.27986e-10 -0.2397
      vertex -0.13532 -9.20006e-11 -0.349423
    endloop
  endfacet
  facet normal -1.7949e-09 -1 -1.7949e-09
    outer loop
      vertex 0.14238 -8.20655e-10 -0.221164
      vertex -0.13532 -1.40104e-10 -0.322623
      vertex 0.165 -8.27986e-10 -0.2397
    endloop
  endfacet
  facet normal -1.7949e-09 -1 -1.7949e-09
    outer loop
      vertex 0.14238 -9.98852e-10 -0.121884
      vertex 0.14238 -8.20655e-10 -0.221164
      vertex 0.165 -8.27986e-10 -0.2397
    endloop
  endfacet
  facet normal 0.343168 1.06995e-09 -0.939274
    outer loop
      vertex 0.165 0.4 -0.2397
      vertex 0.165 -8.27986e-10 -0.2397
      vertex -0.13532 0.4 -0.349423
    endloop
  endfacet
  facet normal -1 1.7949e-09 3.22165e-18
    outer loop
      vertex -0.13532 0.4 -0.322623
      vertex -0.13532 -9.20006e-11 -0.349423
      vertex -0.13532 -1.40104e-10 -0.322623
    endloop
  endfacet
  facet normal -1 1.7949e-09 1.03888e-15
    outer loop
      vertex -0.13532 0.4 -0.349423
      vertex -0.13532 -9.20006e-11 -0.349423
      vertex -0.13532 0.4 -0.322623
    endloop
  endfacet
  facet normal -0.343168 -1.06995e-09 0.939274
    outer loop
      vertex 0.14238 0.4 -0.221164
      vertex -0.13532 -1.40104e-10 -0.322623
      vertex 0.14238 -8.20655e-10 -0.221164
    endloop
  endfacet
  facet normal -0.343168 -1.06995e-09 0.939274
    outer loop
      vertex -0.13532 0.4 -0.322623
      vertex -0.13532 -1.40104e-10 -0.322623
      vertex 0.14238 0.4 -0.221164
    endloop
  endfacet
  facet normal -1 1.7949e-09 3.22166e-18
    outer loop
      vertex 0.14238 0.4 -0.121884
      vertex 0.14238 -8.20655e-10 -0.221164
      vertex 0.14238 -9.98852e-10 -0.121884
    endloop
  endfacet
  facet normal -1 1.7949e-09 3.22165e-18
    outer loop
      vertex 0.14238 0.4 -0.221164
      vertex 0.14238 -8.20655e-10 -0.221164
      vertex 0.14238 0.4 -0.121884
    endloop
  endfacet
  facet normal 3.22165e-18 1.7949e-09 -1
    outer loop
      vertex -0.13532 0.4 -0.121884
      vertex 0.14238 -9.98852e-10 -0.121884
      vertex -0.13532 -5.00409e-10 -0.121884
    endloop
  endfacet
  facet normal 3.22165e-18 1.7949e-09 -1
    outer loop
      vertex 0.14238 0.4 -0.121884
      vertex 0.14238 -9.98852e-10 -0.121884
      vertex -0.13532 0.4 -0.121884
    endloop
  endfacet
  facet normal -1 1.7949e-09 3.22166e-18
    outer loop
      vertex -0.13532 0.4 -0.121884
      vertex -0.13532 -5.00409e-10 -0.121884
      vertex -0.13532 0.4 -0.101
    endloop
  endfacet
  facet normal 1.7949e-09 1 1.7949e-09
    outer loop
      vertex 0.165 0.4 -0.101
      vertex -0.13532 0.4 -0.121884
      vertex -0.13532 0.4 -0.101
    endloop
  endfacet
  facet normal 1.7949e-09 1 1.7949e-09
    outer loop
      vertex 0.165 0.4 -0.101
      vertex 0.14238 0.4 -0.121884
      vertex -0.13532 0.4 -0.121884
    endloop
  endfacet
  facet normal 1.7949e-09 1 1.7949e-09
    outer loop
      vertex 0.165 0.4 -0.101
      vertex 0.14238 0.4 -0.221164
      vertex 0.14238 0.4 -0.121884
    endloop
  endfacet
  facet normal 1.7949e-09 1 1.7949e-09
    outer loop
      vertex -0.13532 0.4 -0.349423
      vertex -0.13532 0.4 -0.322623
      vertex 0.14238 0.4 -0.221164
    endloop
  endfacet
  facet normal 1.7949e-09 1 1.7949e-09
    outer loop
      vertex 0.165 0.4 -0.2397
      vertex -0.13532 0.4 -0.349423
      vertex 0.14238 0.4 -0.221164
    endloop
  endfacet
  facet normal 1.7949e-09 1 1.7949e-09
    outer loop
      vertex 0.165 0.4 -0.101
      vertex 0.165 0.4 -0.2397
      vertex 0.14238 0.4 -0.221164
    endloop
  endfacet
endsolid LIGGGHTS_STL_EXPORT
