solid LIGGGHTS_STL_EXPORT
  facet normal -1.7949e-09 -1 -1.7949e-09
    outer loop
      vertex 0.34238 -9.98852e-10 -0.00188432
      vertex 0.365 -1.07694e-09 0.019
      vertex 0.06468 -5.37895e-10 0.019
    endloop
  endfacet
  facet normal -3.22165e-18 -1.7949e-09 1
    outer loop
      vertex 0.365 0.4 0.019
      vertex 0.06468 -5.37895e-10 0.019
      vertex 0.365 -1.07694e-09 0.019
    endloop
  endfacet
  facet normal -1.7949e-09 -1 -1.7949e-09
    outer loop
      vertex 0.06468 -5.00409e-10 -0.00188432
      vertex 0.34238 -9.98852e-10 -0.00188432
      vertex 0.06468 -5.37895e-10 0.019
    endloop
  endfacet
  facet normal -1 1.7949e-09 3.22166e-18
    outer loop
      vertex 0.06468 0.4 0.019
      vertex 0.06468 -5.00409e-10 -0.00188432
      vertex 0.06468 -5.37895e-10 0.019
    endloop
  endfacet
  facet normal -3.22165e-18 -1.7949e-09 1
    outer loop
      vertex 0.365 0.4 0.019
      vertex 0.06468 0.4 0.019
      vertex 0.06468 -5.37895e-10 0.019
    endloop
  endfacet
  facet normal -1.7949e-09 -1 -1.7949e-09
    outer loop
      vertex 0.34238 -9.98852e-10 -0.00188432
      vertex 0.365 -8.27986e-10 -0.1197
      vertex 0.365 -1.07694e-09 0.019
    endloop
  endfacet
  facet normal 1 -1.7949e-09 -8.03671e-16
    outer loop
      vertex 0.365 0.4 -0.1197
      vertex 0.365 -1.07694e-09 0.019
      vertex 0.365 -8.27986e-10 -0.1197
    endloop
  endfacet
  facet normal 1 -1.7949e-09 7.97228e-16
    outer loop
      vertex 0.365 0.4 0.019
      vertex 0.365 -1.07694e-09 0.019
      vertex 0.365 0.4 -0.1197
    endloop
  endfacet
  facet normal -1.7949e-09 -1 -1.7949e-09
    outer loop
      vertex 0.06468 -1.40104e-10 -0.202623
      vertex 0.06468 -9.20006e-11 -0.229423
      vertex 0.365 -8.27986e-10 -0.1197
    endloop
  endfacet
  facet normal 0.343168 1.06995e-09 -0.939274
    outer loop
      vertex 0.06468 0.4 -0.229423
      vertex 0.365 -8.27986e-10 -0.1197
      vertex 0.06468 -9.20006e-11 -0.229423
    endloop
  endfacet
  facet normal -1.7949e-09 -1 -1.7949e-09
    outer loop
      vertex 0.34238 -8.20655e-10 -0.101164
      vertex 0.06468 -1.40104e-10 -0.202623
      vertex 0.365 -8.27986e-10 -0.1197
    endloop
  endfacet
  facet normal -1.7949e-09 -1 -1.7949e-09
    outer loop
      vertex 0.34238 -9.98852e-10 -0.00188432
      vertex 0.34238 -8.20655e-10 -0.101164
      vertex 0.365 -8.27986e-10 -0.1197
    endloop
  endfacet
  facet normal 0.343168 1.06995e-09 -0.939274
    outer loop
      vertex 0.365 0.4 -0.1197
      vertex 0.365 -8.27986e-10 -0.1197
      vertex 0.06468 0.4 -0.229423
    endloop
  endfacet
  facet normal -1 1.7949e-09 3.22165e-18
    outer loop
      vertex 0.06468 0.4 -0.202623
      vertex 0.06468 -9.20006e-11 -0.229423
      vertex 0.06468 -1.40104e-10 -0.202623
    endloop
  endfacet
  facet normal -1 1.7949e-09 1.03888e-15
    outer loop
      vertex 0.06468 0.4 -0.229423
      vertex 0.06468 -9.20006e-11 -0.229423
      vertex 0.06468 0.4 -0.202623
    endloop
  endfacet
  facet normal -0.343168 -1.06995e-09 0.939274
    outer loop
      vertex 0.34238 0.4 -0.101164
      vertex 0.06468 -1.40104e-10 -0.202623
      vertex 0.34238 -8.20655e-10 -0.101164
    endloop
  endfacet
  facet normal -0.343168 -1.06995e-09 0.939274
    outer loop
      vertex 0.06468 0.4 -0.202623
      vertex 0.06468 -1.40104e-10 -0.202623
      vertex 0.34238 0.4 -0.101164
    endloop
  endfacet
  facet normal -1 1.7949e-09 3.22166e-18
    outer loop
      vertex 0.34238 0.4 -0.00188432
      vertex 0.34238 -8.20655e-10 -0.101164
      vertex 0.34238 -9.98852e-10 -0.00188432
    endloop
  endfacet
  facet normal -1 1.7949e-09 3.22165e-18
    outer loop
      vertex 0.34238 0.4 -0.101164
      vertex 0.34238 -8.20655e-10 -0.101164
      vertex 0.34238 0.4 -0.00188432
    endloop
  endfacet
  facet normal 3.22165e-18 1.7949e-09 -1
    outer loop
      vertex 0.06468 0.4 -0.00188432
      vertex 0.34238 -9.98852e-10 -0.00188432
      vertex 0.06468 -5.00409e-10 -0.00188432
    endloop
  endfacet
  facet normal 3.22165e-18 1.7949e-09 -1
    outer loop
      vertex 0.34238 0.4 -0.00188432
      vertex 0.34238 -9.98852e-10 -0.00188432
      vertex 0.06468 0.4 -0.00188432
    endloop
  endfacet
  facet normal -1 1.7949e-09 3.22166e-18
    outer loop
      vertex 0.06468 0.4 -0.00188432
      vertex 0.06468 -5.00409e-10 -0.00188432
      vertex 0.06468 0.4 0.019
    endloop
  endfacet
  facet normal 1.7949e-09 1 1.7949e-09
    outer loop
      vertex 0.365 0.4 0.019
      vertex 0.06468 0.4 -0.00188432
      vertex 0.06468 0.4 0.019
    endloop
  endfacet
  facet normal 1.7949e-09 1 1.7949e-09
    outer loop
      vertex 0.365 0.4 0.019
      vertex 0.34238 0.4 -0.00188432
      vertex 0.06468 0.4 -0.00188432
    endloop
  endfacet
  facet normal 1.7949e-09 1 1.7949e-09
    outer loop
      vertex 0.365 0.4 0.019
      vertex 0.34238 0.4 -0.101164
      vertex 0.34238 0.4 -0.00188432
    endloop
  endfacet
  facet normal 1.7949e-09 1 1.7949e-09
    outer loop
      vertex 0.06468 0.4 -0.229423
      vertex 0.06468 0.4 -0.202623
      vertex 0.34238 0.4 -0.101164
    endloop
  endfacet
  facet normal 1.7949e-09 1 1.7949e-09
    outer loop
      vertex 0.365 0.4 -0.1197
      vertex 0.06468 0.4 -0.229423
      vertex 0.34238 0.4 -0.101164
    endloop
  endfacet
  facet normal 1.7949e-09 1 1.7949e-09
    outer loop
      vertex 0.365 0.4 0.019
      vertex 0.365 0.4 -0.1197
      vertex 0.34238 0.4 -0.101164
    endloop
  endfacet
endsolid LIGGGHTS_STL_EXPORT
