solid LIGGGHTS_STL_EXPORT
  facet normal -1.7949e-09 -1 -1.7949e-09
    outer loop
      vertex 0.39738 -9.98852e-10 0.0311157
      vertex 0.42 -1.07694e-09 0.052
      vertex 0.11968 -5.37895e-10 0.052
    endloop
  endfacet
  facet normal -3.22165e-18 -1.7949e-09 1
    outer loop
      vertex 0.42 0.4 0.052
      vertex 0.11968 -5.37895e-10 0.052
      vertex 0.42 -1.07694e-09 0.052
    endloop
  endfacet
  facet normal -1.7949e-09 -1 -1.7949e-09
    outer loop
      vertex 0.11968 -5.00409e-10 0.0311157
      vertex 0.39738 -9.98852e-10 0.0311157
      vertex 0.11968 -5.37895e-10 0.052
    endloop
  endfacet
  facet normal -1 1.7949e-09 3.22166e-18
    outer loop
      vertex 0.11968 0.4 0.052
      vertex 0.11968 -5.00409e-10 0.0311157
      vertex 0.11968 -5.37895e-10 0.052
    endloop
  endfacet
  facet normal -3.22165e-18 -1.7949e-09 1
    outer loop
      vertex 0.42 0.4 0.052
      vertex 0.11968 0.4 0.052
      vertex 0.11968 -5.37895e-10 0.052
    endloop
  endfacet
  facet normal -1.7949e-09 -1 -1.7949e-09
    outer loop
      vertex 0.39738 -9.98852e-10 0.0311157
      vertex 0.42 -8.27986e-10 -0.0867
      vertex 0.42 -1.07694e-09 0.052
    endloop
  endfacet
  facet normal 1 -1.7949e-09 -8.03671e-16
    outer loop
      vertex 0.42 0.4 -0.0867
      vertex 0.42 -1.07694e-09 0.052
      vertex 0.42 -8.27986e-10 -0.0867
    endloop
  endfacet
  facet normal 1 -1.7949e-09 7.97228e-16
    outer loop
      vertex 0.42 0.4 0.052
      vertex 0.42 -1.07694e-09 0.052
      vertex 0.42 0.4 -0.0867
    endloop
  endfacet
  facet normal -1.7949e-09 -1 -1.7949e-09
    outer loop
      vertex 0.11968 -1.40104e-10 -0.169623
      vertex 0.11968 -9.20006e-11 -0.196423
      vertex 0.42 -8.27986e-10 -0.0867
    endloop
  endfacet
  facet normal 0.343168 1.06995e-09 -0.939274
    outer loop
      vertex 0.11968 0.4 -0.196423
      vertex 0.42 -8.27986e-10 -0.0867
      vertex 0.11968 -9.20006e-11 -0.196423
    endloop
  endfacet
  facet normal -1.7949e-09 -1 -1.7949e-09
    outer loop
      vertex 0.39738 -8.20655e-10 -0.0681643
      vertex 0.11968 -1.40104e-10 -0.169623
      vertex 0.42 -8.27986e-10 -0.0867
    endloop
  endfacet
  facet normal -1.7949e-09 -1 -1.7949e-09
    outer loop
      vertex 0.39738 -9.98852e-10 0.0311157
      vertex 0.39738 -8.20655e-10 -0.0681643
      vertex 0.42 -8.27986e-10 -0.0867
    endloop
  endfacet
  facet normal 0.343168 1.06995e-09 -0.939274
    outer loop
      vertex 0.42 0.4 -0.0867
      vertex 0.42 -8.27986e-10 -0.0867
      vertex 0.11968 0.4 -0.196423
    endloop
  endfacet
  facet normal -1 1.7949e-09 3.22165e-18
    outer loop
      vertex 0.11968 0.4 -0.169623
      vertex 0.11968 -9.20006e-11 -0.196423
      vertex 0.11968 -1.40104e-10 -0.169623
    endloop
  endfacet
  facet normal -1 1.7949e-09 1.03888e-15
    outer loop
      vertex 0.11968 0.4 -0.196423
      vertex 0.11968 -9.20006e-11 -0.196423
      vertex 0.11968 0.4 -0.169623
    endloop
  endfacet
  facet normal -0.343168 -1.06995e-09 0.939274
    outer loop
      vertex 0.39738 0.4 -0.0681643
      vertex 0.11968 -1.40104e-10 -0.169623
      vertex 0.39738 -8.20655e-10 -0.0681643
    endloop
  endfacet
  facet normal -0.343168 -1.06995e-09 0.939274
    outer loop
      vertex 0.11968 0.4 -0.169623
      vertex 0.11968 -1.40104e-10 -0.169623
      vertex 0.39738 0.4 -0.0681643
    endloop
  endfacet
  facet normal -1 1.7949e-09 3.22166e-18
    outer loop
      vertex 0.39738 0.4 0.0311157
      vertex 0.39738 -8.20655e-10 -0.0681643
      vertex 0.39738 -9.98852e-10 0.0311157
    endloop
  endfacet
  facet normal -1 1.7949e-09 3.22165e-18
    outer loop
      vertex 0.39738 0.4 -0.0681643
      vertex 0.39738 -8.20655e-10 -0.0681643
      vertex 0.39738 0.4 0.0311157
    endloop
  endfacet
  facet normal 3.22165e-18 1.7949e-09 -1
    outer loop
      vertex 0.11968 0.4 0.0311157
      vertex 0.39738 -9.98852e-10 0.0311157
      vertex 0.11968 -5.00409e-10 0.0311157
    endloop
  endfacet
  facet normal 3.22165e-18 1.7949e-09 -1
    outer loop
      vertex 0.39738 0.4 0.0311157
      vertex 0.39738 -9.98852e-10 0.0311157
      vertex 0.11968 0.4 0.0311157
    endloop
  endfacet
  facet normal -1 1.7949e-09 3.22166e-18
    outer loop
      vertex 0.11968 0.4 0.0311157
      vertex 0.11968 -5.00409e-10 0.0311157
      vertex 0.11968 0.4 0.052
    endloop
  endfacet
  facet normal 1.7949e-09 1 1.7949e-09
    outer loop
      vertex 0.42 0.4 0.052
      vertex 0.11968 0.4 0.0311157
      vertex 0.11968 0.4 0.052
    endloop
  endfacet
  facet normal 1.7949e-09 1 1.7949e-09
    outer loop
      vertex 0.42 0.4 0.052
      vertex 0.39738 0.4 0.0311157
      vertex 0.11968 0.4 0.0311157
    endloop
  endfacet
  facet normal 1.7949e-09 1 1.7949e-09
    outer loop
      vertex 0.42 0.4 0.052
      vertex 0.39738 0.4 -0.0681643
      vertex 0.39738 0.4 0.0311157
    endloop
  endfacet
  facet normal 1.7949e-09 1 1.7949e-09
    outer loop
      vertex 0.11968 0.4 -0.196423
      vertex 0.11968 0.4 -0.169623
      vertex 0.39738 0.4 -0.0681643
    endloop
  endfacet
  facet normal 1.7949e-09 1 1.7949e-09
    outer loop
      vertex 0.42 0.4 -0.0867
      vertex 0.11968 0.4 -0.196423
      vertex 0.39738 0.4 -0.0681643
    endloop
  endfacet
  facet normal 1.7949e-09 1 1.7949e-09
    outer loop
      vertex 0.42 0.4 0.052
      vertex 0.42 0.4 -0.0867
      vertex 0.39738 0.4 -0.0681643
    endloop
  endfacet
endsolid LIGGGHTS_STL_EXPORT
