solid LIGGGHTS_STL_EXPORT
  facet normal -2.51835e-09 -1 3.18143e-10
    outer loop
      vertex -0.0525218 -9.98852e-10 -0.17031
      vertex -0.022156 -1.07694e-09 -0.175383
      vertex -0.206224 -5.37895e-10 0.0619166
    endloop
  endfacet
  facet normal 0.790155 -1.7949e-09 0.612907
    outer loop
      vertex -0.022156 0.4 -0.175383
      vertex -0.206224 -5.37895e-10 0.0619166
      vertex -0.022156 -1.07694e-09 -0.175383
    endloop
  endfacet
  facet normal -2.51835e-09 -1 3.18142e-10
    outer loop
      vertex -0.222726 -5.00409e-10 0.0491164
      vertex -0.0525218 -9.98852e-10 -0.17031
      vertex -0.206224 -5.37895e-10 0.0619166
    endloop
  endfacet
  facet normal -0.612907 1.79489e-09 0.790155
    outer loop
      vertex -0.206224 0.4 0.0619166
      vertex -0.222726 -5.00409e-10 0.0491164
      vertex -0.206224 -5.37895e-10 0.0619166
    endloop
  endfacet
  facet normal 0.790155 -1.79489e-09 0.612907
    outer loop
      vertex -0.022156 0.4 -0.175383
      vertex -0.206224 0.4 0.0619166
      vertex -0.206224 -5.37895e-10 0.0619166
    endloop
  endfacet
  facet normal -2.51835e-09 -1 3.18141e-10
    outer loop
      vertex -0.0525218 -9.98852e-10 -0.17031
      vertex -0.13175 -8.27986e-10 -0.260393
      vertex -0.022156 -1.07694e-09 -0.175383
    endloop
  endfacet
  facet normal 0.612907 -1.7949e-09 -0.790155
    outer loop
      vertex -0.13175 0.4 -0.260393
      vertex -0.022156 -1.07694e-09 -0.175383
      vertex -0.13175 -8.27986e-10 -0.260393
    endloop
  endfacet
  facet normal 0.612907 -1.7949e-09 -0.790155
    outer loop
      vertex -0.022156 0.4 -0.175383
      vertex -0.022156 -1.07694e-09 -0.175383
      vertex -0.13175 0.4 -0.260393
    endloop
  endfacet
  facet normal -2.51835e-09 -1 3.18141e-10
    outer loop
      vertex -0.381341 -1.40104e-10 -0.0739178
      vertex -0.402517 -9.20006e-11 -0.0903437
      vertex -0.13175 -8.27986e-10 -0.260393
    endloop
  endfacet
  facet normal -0.531842 1.06995e-09 -0.846843
    outer loop
      vertex -0.402517 0.4 -0.0903437
      vertex -0.13175 -8.27986e-10 -0.260393
      vertex -0.402517 -9.20006e-11 -0.0903437
    endloop
  endfacet
  facet normal -2.51835e-09 -1 3.18143e-10
    outer loop
      vertex -0.130968 -8.20655e-10 -0.231159
      vertex -0.381341 -1.40104e-10 -0.0739178
      vertex -0.13175 -8.27986e-10 -0.260393
    endloop
  endfacet
  facet normal -2.51835e-09 -1 3.18143e-10
    outer loop
      vertex -0.0525218 -9.98852e-10 -0.17031
      vertex -0.130968 -8.20655e-10 -0.231159
      vertex -0.13175 -8.27986e-10 -0.260393
    endloop
  endfacet
  facet normal -0.531842 1.06995e-09 -0.846843
    outer loop
      vertex -0.13175 0.4 -0.260393
      vertex -0.13175 -8.27986e-10 -0.260393
      vertex -0.402517 0.4 -0.0903437
    endloop
  endfacet
  facet normal -0.612907 1.7949e-09 0.790155
    outer loop
      vertex -0.381341 0.4 -0.0739178
      vertex -0.402517 -9.20006e-11 -0.0903437
      vertex -0.381341 -1.40104e-10 -0.0739178
    endloop
  endfacet
  facet normal -0.612907 1.79489e-09 0.790155
    outer loop
      vertex -0.402517 0.4 -0.0903437
      vertex -0.402517 -9.20006e-11 -0.0903437
      vertex -0.381341 0.4 -0.0739178
    endloop
  endfacet
  facet normal 0.531842 -1.06995e-09 0.846843
    outer loop
      vertex -0.130968 0.4 -0.231159
      vertex -0.381341 -1.40104e-10 -0.0739178
      vertex -0.130968 -8.20655e-10 -0.231159
    endloop
  endfacet
  facet normal 0.531842 -1.06995e-09 0.846843
    outer loop
      vertex -0.381341 0.4 -0.0739178
      vertex -0.381341 -1.40104e-10 -0.0739178
      vertex -0.130968 0.4 -0.231159
    endloop
  endfacet
  facet normal -0.612907 1.7949e-09 0.790155
    outer loop
      vertex -0.0525218 0.4 -0.17031
      vertex -0.130968 -8.20655e-10 -0.231159
      vertex -0.0525218 -9.98852e-10 -0.17031
    endloop
  endfacet
  facet normal -0.612907 1.7949e-09 0.790155
    outer loop
      vertex -0.130968 0.4 -0.231159
      vertex -0.130968 -8.20655e-10 -0.231159
      vertex -0.0525218 0.4 -0.17031
    endloop
  endfacet
  facet normal -0.790155 1.7949e-09 -0.612907
    outer loop
      vertex -0.222726 0.4 0.0491164
      vertex -0.0525218 -9.98852e-10 -0.17031
      vertex -0.222726 -5.00409e-10 0.0491164
    endloop
  endfacet
  facet normal -0.790155 1.7949e-09 -0.612907
    outer loop
      vertex -0.0525218 0.4 -0.17031
      vertex -0.0525218 -9.98852e-10 -0.17031
      vertex -0.222726 0.4 0.0491164
    endloop
  endfacet
  facet normal -0.612907 1.7949e-09 0.790155
    outer loop
      vertex -0.222726 0.4 0.0491164
      vertex -0.222726 -5.00409e-10 0.0491164
      vertex -0.206224 0.4 0.0619166
    endloop
  endfacet
  facet normal 2.51835e-09 1 -3.18141e-10
    outer loop
      vertex -0.022156 0.4 -0.175383
      vertex -0.222726 0.4 0.0491164
      vertex -0.206224 0.4 0.0619166
    endloop
  endfacet
  facet normal 2.53018e-09 1 -3.07575e-10
    outer loop
      vertex -0.022156 0.4 -0.175383
      vertex -0.0525218 0.4 -0.17031
      vertex -0.222726 0.4 0.0491164
    endloop
  endfacet
  facet normal 2.52663e-09 1 -3.28815e-10
    outer loop
      vertex -0.022156 0.4 -0.175383
      vertex -0.130968 0.4 -0.231159
      vertex -0.0525218 0.4 -0.17031
    endloop
  endfacet
  facet normal 2.51768e-09 1 -3.17272e-10
    outer loop
      vertex -0.402517 0.4 -0.0903437
      vertex -0.381341 0.4 -0.0739178
      vertex -0.130968 0.4 -0.231159
    endloop
  endfacet
  facet normal 2.51724e-09 1 -3.18113e-10
    outer loop
      vertex -0.13175 0.4 -0.260393
      vertex -0.402517 0.4 -0.0903437
      vertex -0.130968 0.4 -0.231159
    endloop
  endfacet
  facet normal 2.5212e-09 1 -3.18219e-10
    outer loop
      vertex -0.022156 0.4 -0.175383
      vertex -0.13175 0.4 -0.260393
      vertex -0.130968 0.4 -0.231159
    endloop
  endfacet
endsolid LIGGGHTS_STL_EXPORT
