solid LIGGGHTS_STL_EXPORT
  facet normal -1.7949e-09 -1 -1.7949e-09
    outer loop
      vertex 0.26738 -9.98852e-10 -0.0468843
      vertex 0.29 -1.07694e-09 -0.026
      vertex -0.01032 -5.37895e-10 -0.026
    endloop
  endfacet
  facet normal -3.22165e-18 -1.7949e-09 1
    outer loop
      vertex 0.29 0.4 -0.026
      vertex -0.01032 -5.37895e-10 -0.026
      vertex 0.29 -1.07694e-09 -0.026
    endloop
  endfacet
  facet normal -1.7949e-09 -1 -1.7949e-09
    outer loop
      vertex -0.01032 -5.00409e-10 -0.0468843
      vertex 0.26738 -9.98852e-10 -0.0468843
      vertex -0.01032 -5.37895e-10 -0.026
    endloop
  endfacet
  facet normal -1 1.7949e-09 3.22166e-18
    outer loop
      vertex -0.01032 0.4 -0.026
      vertex -0.01032 -5.00409e-10 -0.0468843
      vertex -0.01032 -5.37895e-10 -0.026
    endloop
  endfacet
  facet normal -3.22165e-18 -1.7949e-09 1
    outer loop
      vertex 0.29 0.4 -0.026
      vertex -0.01032 0.4 -0.026
      vertex -0.01032 -5.37895e-10 -0.026
    endloop
  endfacet
  facet normal -1.7949e-09 -1 -1.7949e-09
    outer loop
      vertex 0.26738 -9.98852e-10 -0.0468843
      vertex 0.29 -8.27986e-10 -0.1647
      vertex 0.29 -1.07694e-09 -0.026
    endloop
  endfacet
  facet normal 1 -1.7949e-09 -8.03671e-16
    outer loop
      vertex 0.29 0.4 -0.1647
      vertex 0.29 -1.07694e-09 -0.026
      vertex 0.29 -8.27986e-10 -0.1647
    endloop
  endfacet
  facet normal 1 -1.7949e-09 7.97228e-16
    outer loop
      vertex 0.29 0.4 -0.026
      vertex 0.29 -1.07694e-09 -0.026
      vertex 0.29 0.4 -0.1647
    endloop
  endfacet
  facet normal -1.7949e-09 -1 -1.7949e-09
    outer loop
      vertex -0.01032 -1.40104e-10 -0.247623
      vertex -0.01032 -9.20006e-11 -0.274423
      vertex 0.29 -8.27986e-10 -0.1647
    endloop
  endfacet
  facet normal 0.343168 1.06995e-09 -0.939274
    outer loop
      vertex -0.01032 0.4 -0.274423
      vertex 0.29 -8.27986e-10 -0.1647
      vertex -0.01032 -9.20006e-11 -0.274423
    endloop
  endfacet
  facet normal -1.7949e-09 -1 -1.7949e-09
    outer loop
      vertex 0.26738 -8.20655e-10 -0.146164
      vertex -0.01032 -1.40104e-10 -0.247623
      vertex 0.29 -8.27986e-10 -0.1647
    endloop
  endfacet
  facet normal -1.7949e-09 -1 -1.7949e-09
    outer loop
      vertex 0.26738 -9.98852e-10 -0.0468843
      vertex 0.26738 -8.20655e-10 -0.146164
      vertex 0.29 -8.27986e-10 -0.1647
    endloop
  endfacet
  facet normal 0.343168 1.06995e-09 -0.939274
    outer loop
      vertex 0.29 0.4 -0.1647
      vertex 0.29 -8.27986e-10 -0.1647
      vertex -0.01032 0.4 -0.274423
    endloop
  endfacet
  facet normal -1 1.7949e-09 3.22165e-18
    outer loop
      vertex -0.01032 0.4 -0.247623
      vertex -0.01032 -9.20006e-11 -0.274423
      vertex -0.01032 -1.40104e-10 -0.247623
    endloop
  endfacet
  facet normal -1 1.7949e-09 1.03888e-15
    outer loop
      vertex -0.01032 0.4 -0.274423
      vertex -0.01032 -9.20006e-11 -0.274423
      vertex -0.01032 0.4 -0.247623
    endloop
  endfacet
  facet normal -0.343168 -1.06995e-09 0.939274
    outer loop
      vertex 0.26738 0.4 -0.146164
      vertex -0.01032 -1.40104e-10 -0.247623
      vertex 0.26738 -8.20655e-10 -0.146164
    endloop
  endfacet
  facet normal -0.343168 -1.06995e-09 0.939274
    outer loop
      vertex -0.01032 0.4 -0.247623
      vertex -0.01032 -1.40104e-10 -0.247623
      vertex 0.26738 0.4 -0.146164
    endloop
  endfacet
  facet normal -1 1.7949e-09 3.22166e-18
    outer loop
      vertex 0.26738 0.4 -0.0468843
      vertex 0.26738 -8.20655e-10 -0.146164
      vertex 0.26738 -9.98852e-10 -0.0468843
    endloop
  endfacet
  facet normal -1 1.7949e-09 3.22165e-18
    outer loop
      vertex 0.26738 0.4 -0.146164
      vertex 0.26738 -8.20655e-10 -0.146164
      vertex 0.26738 0.4 -0.0468843
    endloop
  endfacet
  facet normal 3.22165e-18 1.7949e-09 -1
    outer loop
      vertex -0.01032 0.4 -0.0468843
      vertex 0.26738 -9.98852e-10 -0.0468843
      vertex -0.01032 -5.00409e-10 -0.0468843
    endloop
  endfacet
  facet normal 3.22165e-18 1.7949e-09 -1
    outer loop
      vertex 0.26738 0.4 -0.0468843
      vertex 0.26738 -9.98852e-10 -0.0468843
      vertex -0.01032 0.4 -0.0468843
    endloop
  endfacet
  facet normal -1 1.7949e-09 3.22166e-18
    outer loop
      vertex -0.01032 0.4 -0.0468843
      vertex -0.01032 -5.00409e-10 -0.0468843
      vertex -0.01032 0.4 -0.026
    endloop
  endfacet
  facet normal 1.7949e-09 1 1.7949e-09
    outer loop
      vertex 0.29 0.4 -0.026
      vertex -0.01032 0.4 -0.0468843
      vertex -0.01032 0.4 -0.026
    endloop
  endfacet
  facet normal 1.7949e-09 1 1.7949e-09
    outer loop
      vertex 0.29 0.4 -0.026
      vertex 0.26738 0.4 -0.0468843
      vertex -0.01032 0.4 -0.0468843
    endloop
  endfacet
  facet normal 1.7949e-09 1 1.7949e-09
    outer loop
      vertex 0.29 0.4 -0.026
      vertex 0.26738 0.4 -0.146164
      vertex 0.26738 0.4 -0.0468843
    endloop
  endfacet
  facet normal 1.7949e-09 1 1.7949e-09
    outer loop
      vertex -0.01032 0.4 -0.274423
      vertex -0.01032 0.4 -0.247623
      vertex 0.26738 0.4 -0.146164
    endloop
  endfacet
  facet normal 1.7949e-09 1 1.7949e-09
    outer loop
      vertex 0.29 0.4 -0.1647
      vertex -0.01032 0.4 -0.274423
      vertex 0.26738 0.4 -0.146164
    endloop
  endfacet
  facet normal 1.7949e-09 1 1.7949e-09
    outer loop
      vertex 0.29 0.4 -0.026
      vertex 0.29 0.4 -0.1647
      vertex 0.26738 0.4 -0.146164
    endloop
  endfacet
endsolid LIGGGHTS_STL_EXPORT
