solid LIGGGHTS_STL_EXPORT
  facet normal -1.7949e-09 -1 -1.7949e-09
    outer loop
      vertex 0.30738 -9.98852e-10 -0.0228843
      vertex 0.33 -1.07694e-09 -0.002
      vertex 0.02968 -5.37895e-10 -0.002
    endloop
  endfacet
  facet normal -3.22165e-18 -1.7949e-09 1
    outer loop
      vertex 0.33 0.4 -0.002
      vertex 0.02968 -5.37895e-10 -0.002
      vertex 0.33 -1.07694e-09 -0.002
    endloop
  endfacet
  facet normal -1.7949e-09 -1 -1.7949e-09
    outer loop
      vertex 0.02968 -5.00409e-10 -0.0228843
      vertex 0.30738 -9.98852e-10 -0.0228843
      vertex 0.02968 -5.37895e-10 -0.002
    endloop
  endfacet
  facet normal -1 1.7949e-09 3.22166e-18
    outer loop
      vertex 0.02968 0.4 -0.002
      vertex 0.02968 -5.00409e-10 -0.0228843
      vertex 0.02968 -5.37895e-10 -0.002
    endloop
  endfacet
  facet normal -3.22165e-18 -1.7949e-09 1
    outer loop
      vertex 0.33 0.4 -0.002
      vertex 0.02968 0.4 -0.002
      vertex 0.02968 -5.37895e-10 -0.002
    endloop
  endfacet
  facet normal -1.7949e-09 -1 -1.7949e-09
    outer loop
      vertex 0.30738 -9.98852e-10 -0.0228843
      vertex 0.33 -8.27986e-10 -0.1407
      vertex 0.33 -1.07694e-09 -0.002
    endloop
  endfacet
  facet normal 1 -1.7949e-09 -8.03671e-16
    outer loop
      vertex 0.33 0.4 -0.1407
      vertex 0.33 -1.07694e-09 -0.002
      vertex 0.33 -8.27986e-10 -0.1407
    endloop
  endfacet
  facet normal 1 -1.7949e-09 7.97228e-16
    outer loop
      vertex 0.33 0.4 -0.002
      vertex 0.33 -1.07694e-09 -0.002
      vertex 0.33 0.4 -0.1407
    endloop
  endfacet
  facet normal -1.7949e-09 -1 -1.7949e-09
    outer loop
      vertex 0.02968 -1.40104e-10 -0.223623
      vertex 0.02968 -9.20006e-11 -0.250423
      vertex 0.33 -8.27986e-10 -0.1407
    endloop
  endfacet
  facet normal 0.343168 1.06995e-09 -0.939274
    outer loop
      vertex 0.02968 0.4 -0.250423
      vertex 0.33 -8.27986e-10 -0.1407
      vertex 0.02968 -9.20006e-11 -0.250423
    endloop
  endfacet
  facet normal -1.7949e-09 -1 -1.7949e-09
    outer loop
      vertex 0.30738 -8.20655e-10 -0.122164
      vertex 0.02968 -1.40104e-10 -0.223623
      vertex 0.33 -8.27986e-10 -0.1407
    endloop
  endfacet
  facet normal -1.7949e-09 -1 -1.7949e-09
    outer loop
      vertex 0.30738 -9.98852e-10 -0.0228843
      vertex 0.30738 -8.20655e-10 -0.122164
      vertex 0.33 -8.27986e-10 -0.1407
    endloop
  endfacet
  facet normal 0.343168 1.06995e-09 -0.939274
    outer loop
      vertex 0.33 0.4 -0.1407
      vertex 0.33 -8.27986e-10 -0.1407
      vertex 0.02968 0.4 -0.250423
    endloop
  endfacet
  facet normal -1 1.7949e-09 3.22165e-18
    outer loop
      vertex 0.02968 0.4 -0.223623
      vertex 0.02968 -9.20006e-11 -0.250423
      vertex 0.02968 -1.40104e-10 -0.223623
    endloop
  endfacet
  facet normal -1 1.7949e-09 1.03888e-15
    outer loop
      vertex 0.02968 0.4 -0.250423
      vertex 0.02968 -9.20006e-11 -0.250423
      vertex 0.02968 0.4 -0.223623
    endloop
  endfacet
  facet normal -0.343168 -1.06995e-09 0.939274
    outer loop
      vertex 0.30738 0.4 -0.122164
      vertex 0.02968 -1.40104e-10 -0.223623
      vertex 0.30738 -8.20655e-10 -0.122164
    endloop
  endfacet
  facet normal -0.343168 -1.06995e-09 0.939274
    outer loop
      vertex 0.02968 0.4 -0.223623
      vertex 0.02968 -1.40104e-10 -0.223623
      vertex 0.30738 0.4 -0.122164
    endloop
  endfacet
  facet normal -1 1.7949e-09 3.22166e-18
    outer loop
      vertex 0.30738 0.4 -0.0228843
      vertex 0.30738 -8.20655e-10 -0.122164
      vertex 0.30738 -9.98852e-10 -0.0228843
    endloop
  endfacet
  facet normal -1 1.7949e-09 3.22165e-18
    outer loop
      vertex 0.30738 0.4 -0.122164
      vertex 0.30738 -8.20655e-10 -0.122164
      vertex 0.30738 0.4 -0.0228843
    endloop
  endfacet
  facet normal 3.22165e-18 1.7949e-09 -1
    outer loop
      vertex 0.02968 0.4 -0.0228843
      vertex 0.30738 -9.98852e-10 -0.0228843
      vertex 0.02968 -5.00409e-10 -0.0228843
    endloop
  endfacet
  facet normal 3.22165e-18 1.7949e-09 -1
    outer loop
      vertex 0.30738 0.4 -0.0228843
      vertex 0.30738 -9.98852e-10 -0.0228843
      vertex 0.02968 0.4 -0.0228843
    endloop
  endfacet
  facet normal -1 1.7949e-09 3.22166e-18
    outer loop
      vertex 0.02968 0.4 -0.0228843
      vertex 0.02968 -5.00409e-10 -0.0228843
      vertex 0.02968 0.4 -0.002
    endloop
  endfacet
  facet normal 1.7949e-09 1 1.7949e-09
    outer loop
      vertex 0.33 0.4 -0.002
      vertex 0.02968 0.4 -0.0228843
      vertex 0.02968 0.4 -0.002
    endloop
  endfacet
  facet normal 1.7949e-09 1 1.7949e-09
    outer loop
      vertex 0.33 0.4 -0.002
      vertex 0.30738 0.4 -0.0228843
      vertex 0.02968 0.4 -0.0228843
    endloop
  endfacet
  facet normal 1.7949e-09 1 1.7949e-09
    outer loop
      vertex 0.33 0.4 -0.002
      vertex 0.30738 0.4 -0.122164
      vertex 0.30738 0.4 -0.0228843
    endloop
  endfacet
  facet normal 1.7949e-09 1 1.7949e-09
    outer loop
      vertex 0.02968 0.4 -0.250423
      vertex 0.02968 0.4 -0.223623
      vertex 0.30738 0.4 -0.122164
    endloop
  endfacet
  facet normal 1.7949e-09 1 1.7949e-09
    outer loop
      vertex 0.33 0.4 -0.1407
      vertex 0.02968 0.4 -0.250423
      vertex 0.30738 0.4 -0.122164
    endloop
  endfacet
  facet normal 1.7949e-09 1 1.7949e-09
    outer loop
      vertex 0.33 0.4 -0.002
      vertex 0.33 0.4 -0.1407
      vertex 0.30738 0.4 -0.122164
    endloop
  endfacet
endsolid LIGGGHTS_STL_EXPORT
