solid LIGGGHTS_STL_EXPORT
  facet normal -1.7949e-09 -1 -1.7949e-09
    outer loop
      vertex 0.33738 -9.98852e-10 -0.00488432
      vertex 0.36 -1.07694e-09 0.016
      vertex 0.05968 -5.37895e-10 0.016
    endloop
  endfacet
  facet normal -3.22165e-18 -1.7949e-09 1
    outer loop
      vertex 0.36 0.4 0.016
      vertex 0.05968 -5.37895e-10 0.016
      vertex 0.36 -1.07694e-09 0.016
    endloop
  endfacet
  facet normal -1.7949e-09 -1 -1.7949e-09
    outer loop
      vertex 0.05968 -5.00409e-10 -0.00488432
      vertex 0.33738 -9.98852e-10 -0.00488432
      vertex 0.05968 -5.37895e-10 0.016
    endloop
  endfacet
  facet normal -1 1.7949e-09 3.22166e-18
    outer loop
      vertex 0.05968 0.4 0.016
      vertex 0.05968 -5.00409e-10 -0.00488432
      vertex 0.05968 -5.37895e-10 0.016
    endloop
  endfacet
  facet normal -3.22165e-18 -1.7949e-09 1
    outer loop
      vertex 0.36 0.4 0.016
      vertex 0.05968 0.4 0.016
      vertex 0.05968 -5.37895e-10 0.016
    endloop
  endfacet
  facet normal -1.7949e-09 -1 -1.7949e-09
    outer loop
      vertex 0.33738 -9.98852e-10 -0.00488432
      vertex 0.36 -8.27986e-10 -0.1227
      vertex 0.36 -1.07694e-09 0.016
    endloop
  endfacet
  facet normal 1 -1.7949e-09 -8.03671e-16
    outer loop
      vertex 0.36 0.4 -0.1227
      vertex 0.36 -1.07694e-09 0.016
      vertex 0.36 -8.27986e-10 -0.1227
    endloop
  endfacet
  facet normal 1 -1.7949e-09 7.97228e-16
    outer loop
      vertex 0.36 0.4 0.016
      vertex 0.36 -1.07694e-09 0.016
      vertex 0.36 0.4 -0.1227
    endloop
  endfacet
  facet normal -1.7949e-09 -1 -1.7949e-09
    outer loop
      vertex 0.05968 -1.40104e-10 -0.205623
      vertex 0.05968 -9.20006e-11 -0.232423
      vertex 0.36 -8.27986e-10 -0.1227
    endloop
  endfacet
  facet normal 0.343168 1.06995e-09 -0.939274
    outer loop
      vertex 0.05968 0.4 -0.232423
      vertex 0.36 -8.27986e-10 -0.1227
      vertex 0.05968 -9.20006e-11 -0.232423
    endloop
  endfacet
  facet normal -1.7949e-09 -1 -1.7949e-09
    outer loop
      vertex 0.33738 -8.20655e-10 -0.104164
      vertex 0.05968 -1.40104e-10 -0.205623
      vertex 0.36 -8.27986e-10 -0.1227
    endloop
  endfacet
  facet normal -1.7949e-09 -1 -1.7949e-09
    outer loop
      vertex 0.33738 -9.98852e-10 -0.00488432
      vertex 0.33738 -8.20655e-10 -0.104164
      vertex 0.36 -8.27986e-10 -0.1227
    endloop
  endfacet
  facet normal 0.343168 1.06995e-09 -0.939274
    outer loop
      vertex 0.36 0.4 -0.1227
      vertex 0.36 -8.27986e-10 -0.1227
      vertex 0.05968 0.4 -0.232423
    endloop
  endfacet
  facet normal -1 1.7949e-09 3.22165e-18
    outer loop
      vertex 0.05968 0.4 -0.205623
      vertex 0.05968 -9.20006e-11 -0.232423
      vertex 0.05968 -1.40104e-10 -0.205623
    endloop
  endfacet
  facet normal -1 1.7949e-09 1.03888e-15
    outer loop
      vertex 0.05968 0.4 -0.232423
      vertex 0.05968 -9.20006e-11 -0.232423
      vertex 0.05968 0.4 -0.205623
    endloop
  endfacet
  facet normal -0.343168 -1.06995e-09 0.939274
    outer loop
      vertex 0.33738 0.4 -0.104164
      vertex 0.05968 -1.40104e-10 -0.205623
      vertex 0.33738 -8.20655e-10 -0.104164
    endloop
  endfacet
  facet normal -0.343168 -1.06995e-09 0.939274
    outer loop
      vertex 0.05968 0.4 -0.205623
      vertex 0.05968 -1.40104e-10 -0.205623
      vertex 0.33738 0.4 -0.104164
    endloop
  endfacet
  facet normal -1 1.7949e-09 3.22166e-18
    outer loop
      vertex 0.33738 0.4 -0.00488432
      vertex 0.33738 -8.20655e-10 -0.104164
      vertex 0.33738 -9.98852e-10 -0.00488432
    endloop
  endfacet
  facet normal -1 1.7949e-09 3.22165e-18
    outer loop
      vertex 0.33738 0.4 -0.104164
      vertex 0.33738 -8.20655e-10 -0.104164
      vertex 0.33738 0.4 -0.00488432
    endloop
  endfacet
  facet normal 3.22165e-18 1.7949e-09 -1
    outer loop
      vertex 0.05968 0.4 -0.00488432
      vertex 0.33738 -9.98852e-10 -0.00488432
      vertex 0.05968 -5.00409e-10 -0.00488432
    endloop
  endfacet
  facet normal 3.22165e-18 1.7949e-09 -1
    outer loop
      vertex 0.33738 0.4 -0.00488432
      vertex 0.33738 -9.98852e-10 -0.00488432
      vertex 0.05968 0.4 -0.00488432
    endloop
  endfacet
  facet normal -1 1.7949e-09 3.22166e-18
    outer loop
      vertex 0.05968 0.4 -0.00488432
      vertex 0.05968 -5.00409e-10 -0.00488432
      vertex 0.05968 0.4 0.016
    endloop
  endfacet
  facet normal 1.7949e-09 1 1.7949e-09
    outer loop
      vertex 0.36 0.4 0.016
      vertex 0.05968 0.4 -0.00488432
      vertex 0.05968 0.4 0.016
    endloop
  endfacet
  facet normal 1.7949e-09 1 1.7949e-09
    outer loop
      vertex 0.36 0.4 0.016
      vertex 0.33738 0.4 -0.00488432
      vertex 0.05968 0.4 -0.00488432
    endloop
  endfacet
  facet normal 1.7949e-09 1 1.7949e-09
    outer loop
      vertex 0.36 0.4 0.016
      vertex 0.33738 0.4 -0.104164
      vertex 0.33738 0.4 -0.00488432
    endloop
  endfacet
  facet normal 1.7949e-09 1 1.7949e-09
    outer loop
      vertex 0.05968 0.4 -0.232423
      vertex 0.05968 0.4 -0.205623
      vertex 0.33738 0.4 -0.104164
    endloop
  endfacet
  facet normal 1.7949e-09 1 1.7949e-09
    outer loop
      vertex 0.36 0.4 -0.1227
      vertex 0.05968 0.4 -0.232423
      vertex 0.33738 0.4 -0.104164
    endloop
  endfacet
  facet normal 1.7949e-09 1 1.7949e-09
    outer loop
      vertex 0.36 0.4 0.016
      vertex 0.36 0.4 -0.1227
      vertex 0.33738 0.4 -0.104164
    endloop
  endfacet
endsolid LIGGGHTS_STL_EXPORT
