solid LIGGGHTS_STL_EXPORT
  facet normal 1.1524e-09 -1 2.2617e-09
    outer loop
      vertex -0.14245 -9.98852e-10 0.107107
      vertex -0.157509 -1.07694e-09 0.0802549
      vertex 0.128112 -5.37895e-10 0.173059
    endloop
  endfacet
  facet normal 0.309017 -1.79489e-09 -0.951057
    outer loop
      vertex -0.157509 0.4 0.0802549
      vertex 0.128112 -5.37895e-10 0.173059
      vertex -0.157509 -1.07694e-09 0.0802549
    endloop
  endfacet
  facet normal 1.15239e-09 -1 2.2617e-09
    outer loop
      vertex 0.121658 -5.00409e-10 0.192921
      vertex -0.14245 -9.98852e-10 0.107107
      vertex 0.128112 -5.37895e-10 0.173059
    endloop
  endfacet
  facet normal 0.951057 1.79489e-09 0.309017
    outer loop
      vertex 0.128112 0.4 0.173059
      vertex 0.121658 -5.00409e-10 0.192921
      vertex 0.128112 -5.37895e-10 0.173059
    endloop
  endfacet
  facet normal 0.309017 -1.79489e-09 -0.951057
    outer loop
      vertex -0.157509 0.4 0.0802549
      vertex 0.128112 0.4 0.173059
      vertex 0.128112 -5.37895e-10 0.173059
    endloop
  endfacet
  facet normal 1.15239e-09 -1 2.2617e-09
    outer loop
      vertex -0.14245 -9.98852e-10 0.107107
      vertex -0.20037 -8.27986e-10 0.212166
      vertex -0.157509 -1.07694e-09 0.0802549
    endloop
  endfacet
  facet normal -0.951057 -1.7949e-09 -0.309017
    outer loop
      vertex -0.20037 0.4 0.212166
      vertex -0.157509 -1.07694e-09 0.0802549
      vertex -0.20037 -8.27986e-10 0.212166
    endloop
  endfacet
  facet normal -0.951057 -1.7949e-09 -0.309017
    outer loop
      vertex -0.157509 0.4 0.0802549
      vertex -0.157509 -1.07694e-09 0.0802549
      vertex -0.20037 0.4 0.212166
    endloop
  endfacet
  facet normal 1.15239e-09 -1 2.2617e-09
    outer loop
      vertex 0.0596268 -1.40104e-10 0.383835
      vertex 0.0513451 -9.20006e-11 0.409323
      vertex -0.20037 -8.27986e-10 0.212166
    endloop
  endfacet
  facet normal -0.616624 1.06996e-09 0.787258
    outer loop
      vertex 0.0513451 0.4 0.409323
      vertex -0.20037 -8.27986e-10 0.212166
      vertex 0.0513451 -9.20006e-11 0.409323
    endloop
  endfacet
  facet normal 1.1524e-09 -1 2.2617e-09
    outer loop
      vertex -0.173129 -8.20655e-10 0.201528
      vertex 0.0596268 -1.40104e-10 0.383835
      vertex -0.20037 -8.27986e-10 0.212166
    endloop
  endfacet
  facet normal 1.1524e-09 -1 2.2617e-09
    outer loop
      vertex -0.14245 -9.98852e-10 0.107107
      vertex -0.173129 -8.20655e-10 0.201528
      vertex -0.20037 -8.27986e-10 0.212166
    endloop
  endfacet
  facet normal -0.616624 1.06995e-09 0.787258
    outer loop
      vertex -0.20037 0.4 0.212166
      vertex -0.20037 -8.27986e-10 0.212166
      vertex 0.0513451 0.4 0.409323
    endloop
  endfacet
  facet normal 0.951057 1.7949e-09 0.309017
    outer loop
      vertex 0.0596268 0.4 0.383835
      vertex 0.0513451 -9.20006e-11 0.409323
      vertex 0.0596268 -1.40104e-10 0.383835
    endloop
  endfacet
  facet normal 0.951057 1.79488e-09 0.309017
    outer loop
      vertex 0.0513451 0.4 0.409323
      vertex 0.0513451 -9.20006e-11 0.409323
      vertex 0.0596268 0.4 0.383835
    endloop
  endfacet
  facet normal 0.616624 -1.06995e-09 -0.787258
    outer loop
      vertex -0.173129 0.4 0.201528
      vertex 0.0596268 -1.40104e-10 0.383835
      vertex -0.173129 -8.20655e-10 0.201528
    endloop
  endfacet
  facet normal 0.616624 -1.06994e-09 -0.787258
    outer loop
      vertex 0.0596268 0.4 0.383835
      vertex 0.0596268 -1.40104e-10 0.383835
      vertex -0.173129 0.4 0.201528
    endloop
  endfacet
  facet normal 0.951057 1.79489e-09 0.309017
    outer loop
      vertex -0.14245 0.4 0.107107
      vertex -0.173129 -8.20655e-10 0.201528
      vertex -0.14245 -9.98852e-10 0.107107
    endloop
  endfacet
  facet normal 0.951057 1.7949e-09 0.309017
    outer loop
      vertex -0.173129 0.4 0.201528
      vertex -0.173129 -8.20655e-10 0.201528
      vertex -0.14245 0.4 0.107107
    endloop
  endfacet
  facet normal -0.309017 1.7949e-09 0.951057
    outer loop
      vertex 0.121658 0.4 0.192921
      vertex -0.14245 -9.98852e-10 0.107107
      vertex 0.121658 -5.00409e-10 0.192921
    endloop
  endfacet
  facet normal -0.309017 1.79489e-09 0.951057
    outer loop
      vertex -0.14245 0.4 0.107107
      vertex -0.14245 -9.98852e-10 0.107107
      vertex 0.121658 0.4 0.192921
    endloop
  endfacet
  facet normal 0.951057 1.7949e-09 0.309017
    outer loop
      vertex 0.121658 0.4 0.192921
      vertex 0.121658 -5.00409e-10 0.192921
      vertex 0.128112 0.4 0.173059
    endloop
  endfacet
  facet normal -1.15239e-09 1 -2.2617e-09
    outer loop
      vertex -0.157509 0.4 0.0802549
      vertex 0.121658 0.4 0.192921
      vertex 0.128112 0.4 0.173059
    endloop
  endfacet
  facet normal -1.13317e-09 1 -2.30934e-09
    outer loop
      vertex -0.157509 0.4 0.0802549
      vertex -0.14245 0.4 0.107107
      vertex 0.121658 0.4 0.192921
    endloop
  endfacet
  facet normal -1.194e-09 1 -2.27522e-09
    outer loop
      vertex -0.157509 0.4 0.0802549
      vertex -0.173129 0.4 0.201528
      vertex -0.14245 0.4 0.107107
    endloop
  endfacet
  facet normal -1.149e-09 1 -2.2606e-09
    outer loop
      vertex 0.0513451 0.4 0.409323
      vertex 0.0596268 0.4 0.383835
      vertex -0.173129 0.4 0.201528
    endloop
  endfacet
  facet normal -1.15109e-09 1 -2.25835e-09
    outer loop
      vertex -0.20037 0.4 0.212166
      vertex 0.0513451 0.4 0.409323
      vertex -0.173129 0.4 0.201528
    endloop
  endfacet
  facet normal -1.15575e-09 1 -2.27029e-09
    outer loop
      vertex -0.157509 0.4 0.0802549
      vertex -0.20037 0.4 0.212166
      vertex -0.173129 0.4 0.201528
    endloop
  endfacet
endsolid LIGGGHTS_STL_EXPORT
