solid LIGGGHTS_STL_EXPORT
  facet normal -1.7949e-09 -1 -1.7949e-09
    outer loop
      vertex 0.12738 -9.98852e-10 -0.130884
      vertex 0.15 -1.07694e-09 -0.11
      vertex -0.15032 -5.37895e-10 -0.11
    endloop
  endfacet
  facet normal -3.22165e-18 -1.7949e-09 1
    outer loop
      vertex 0.15 0.4 -0.11
      vertex -0.15032 -5.37895e-10 -0.11
      vertex 0.15 -1.07694e-09 -0.11
    endloop
  endfacet
  facet normal -1.7949e-09 -1 -1.7949e-09
    outer loop
      vertex -0.15032 -5.00409e-10 -0.130884
      vertex 0.12738 -9.98852e-10 -0.130884
      vertex -0.15032 -5.37895e-10 -0.11
    endloop
  endfacet
  facet normal -1 1.7949e-09 3.22166e-18
    outer loop
      vertex -0.15032 0.4 -0.11
      vertex -0.15032 -5.00409e-10 -0.130884
      vertex -0.15032 -5.37895e-10 -0.11
    endloop
  endfacet
  facet normal -3.22165e-18 -1.7949e-09 1
    outer loop
      vertex 0.15 0.4 -0.11
      vertex -0.15032 0.4 -0.11
      vertex -0.15032 -5.37895e-10 -0.11
    endloop
  endfacet
  facet normal -1.7949e-09 -1 -1.7949e-09
    outer loop
      vertex 0.12738 -9.98852e-10 -0.130884
      vertex 0.15 -8.27986e-10 -0.2487
      vertex 0.15 -1.07694e-09 -0.11
    endloop
  endfacet
  facet normal 1 -1.7949e-09 -8.03671e-16
    outer loop
      vertex 0.15 0.4 -0.2487
      vertex 0.15 -1.07694e-09 -0.11
      vertex 0.15 -8.27986e-10 -0.2487
    endloop
  endfacet
  facet normal 1 -1.7949e-09 7.97228e-16
    outer loop
      vertex 0.15 0.4 -0.11
      vertex 0.15 -1.07694e-09 -0.11
      vertex 0.15 0.4 -0.2487
    endloop
  endfacet
  facet normal -1.7949e-09 -1 -1.7949e-09
    outer loop
      vertex -0.15032 -1.40104e-10 -0.331623
      vertex -0.15032 -9.20006e-11 -0.358423
      vertex 0.15 -8.27986e-10 -0.2487
    endloop
  endfacet
  facet normal 0.343168 1.06995e-09 -0.939274
    outer loop
      vertex -0.15032 0.4 -0.358423
      vertex 0.15 -8.27986e-10 -0.2487
      vertex -0.15032 -9.20006e-11 -0.358423
    endloop
  endfacet
  facet normal -1.7949e-09 -1 -1.7949e-09
    outer loop
      vertex 0.12738 -8.20655e-10 -0.230164
      vertex -0.15032 -1.40104e-10 -0.331623
      vertex 0.15 -8.27986e-10 -0.2487
    endloop
  endfacet
  facet normal -1.7949e-09 -1 -1.7949e-09
    outer loop
      vertex 0.12738 -9.98852e-10 -0.130884
      vertex 0.12738 -8.20655e-10 -0.230164
      vertex 0.15 -8.27986e-10 -0.2487
    endloop
  endfacet
  facet normal 0.343168 1.06995e-09 -0.939274
    outer loop
      vertex 0.15 0.4 -0.2487
      vertex 0.15 -8.27986e-10 -0.2487
      vertex -0.15032 0.4 -0.358423
    endloop
  endfacet
  facet normal -1 1.7949e-09 3.22165e-18
    outer loop
      vertex -0.15032 0.4 -0.331623
      vertex -0.15032 -9.20006e-11 -0.358423
      vertex -0.15032 -1.40104e-10 -0.331623
    endloop
  endfacet
  facet normal -1 1.7949e-09 1.03888e-15
    outer loop
      vertex -0.15032 0.4 -0.358423
      vertex -0.15032 -9.20006e-11 -0.358423
      vertex -0.15032 0.4 -0.331623
    endloop
  endfacet
  facet normal -0.343168 -1.06995e-09 0.939274
    outer loop
      vertex 0.12738 0.4 -0.230164
      vertex -0.15032 -1.40104e-10 -0.331623
      vertex 0.12738 -8.20655e-10 -0.230164
    endloop
  endfacet
  facet normal -0.343168 -1.06995e-09 0.939274
    outer loop
      vertex -0.15032 0.4 -0.331623
      vertex -0.15032 -1.40104e-10 -0.331623
      vertex 0.12738 0.4 -0.230164
    endloop
  endfacet
  facet normal -1 1.7949e-09 3.22166e-18
    outer loop
      vertex 0.12738 0.4 -0.130884
      vertex 0.12738 -8.20655e-10 -0.230164
      vertex 0.12738 -9.98852e-10 -0.130884
    endloop
  endfacet
  facet normal -1 1.7949e-09 3.22165e-18
    outer loop
      vertex 0.12738 0.4 -0.230164
      vertex 0.12738 -8.20655e-10 -0.230164
      vertex 0.12738 0.4 -0.130884
    endloop
  endfacet
  facet normal 3.22165e-18 1.7949e-09 -1
    outer loop
      vertex -0.15032 0.4 -0.130884
      vertex 0.12738 -9.98852e-10 -0.130884
      vertex -0.15032 -5.00409e-10 -0.130884
    endloop
  endfacet
  facet normal 3.22165e-18 1.7949e-09 -1
    outer loop
      vertex 0.12738 0.4 -0.130884
      vertex 0.12738 -9.98852e-10 -0.130884
      vertex -0.15032 0.4 -0.130884
    endloop
  endfacet
  facet normal -1 1.7949e-09 3.22166e-18
    outer loop
      vertex -0.15032 0.4 -0.130884
      vertex -0.15032 -5.00409e-10 -0.130884
      vertex -0.15032 0.4 -0.11
    endloop
  endfacet
  facet normal 1.7949e-09 1 1.7949e-09
    outer loop
      vertex 0.15 0.4 -0.11
      vertex -0.15032 0.4 -0.130884
      vertex -0.15032 0.4 -0.11
    endloop
  endfacet
  facet normal 1.7949e-09 1 1.7949e-09
    outer loop
      vertex 0.15 0.4 -0.11
      vertex 0.12738 0.4 -0.130884
      vertex -0.15032 0.4 -0.130884
    endloop
  endfacet
  facet normal 1.7949e-09 1 1.7949e-09
    outer loop
      vertex 0.15 0.4 -0.11
      vertex 0.12738 0.4 -0.230164
      vertex 0.12738 0.4 -0.130884
    endloop
  endfacet
  facet normal 1.7949e-09 1 1.7949e-09
    outer loop
      vertex -0.15032 0.4 -0.358423
      vertex -0.15032 0.4 -0.331623
      vertex 0.12738 0.4 -0.230164
    endloop
  endfacet
  facet normal 1.7949e-09 1 1.7949e-09
    outer loop
      vertex 0.15 0.4 -0.2487
      vertex -0.15032 0.4 -0.358423
      vertex 0.12738 0.4 -0.230164
    endloop
  endfacet
  facet normal 1.7949e-09 1 1.7949e-09
    outer loop
      vertex 0.15 0.4 -0.11
      vertex 0.15 0.4 -0.2487
      vertex 0.12738 0.4 -0.230164
    endloop
  endfacet
endsolid LIGGGHTS_STL_EXPORT
