solid LIGGGHTS_STL_EXPORT
  facet normal -1.7949e-09 -1 -1.7949e-09
    outer loop
      vertex 0.36238 -9.98852e-10 0.0101157
      vertex 0.385 -1.07694e-09 0.031
      vertex 0.08468 -5.37895e-10 0.031
    endloop
  endfacet
  facet normal -3.22165e-18 -1.7949e-09 1
    outer loop
      vertex 0.385 0.4 0.031
      vertex 0.08468 -5.37895e-10 0.031
      vertex 0.385 -1.07694e-09 0.031
    endloop
  endfacet
  facet normal -1.7949e-09 -1 -1.7949e-09
    outer loop
      vertex 0.08468 -5.00409e-10 0.0101157
      vertex 0.36238 -9.98852e-10 0.0101157
      vertex 0.08468 -5.37895e-10 0.031
    endloop
  endfacet
  facet normal -1 1.7949e-09 3.22166e-18
    outer loop
      vertex 0.08468 0.4 0.031
      vertex 0.08468 -5.00409e-10 0.0101157
      vertex 0.08468 -5.37895e-10 0.031
    endloop
  endfacet
  facet normal -3.22165e-18 -1.7949e-09 1
    outer loop
      vertex 0.385 0.4 0.031
      vertex 0.08468 0.4 0.031
      vertex 0.08468 -5.37895e-10 0.031
    endloop
  endfacet
  facet normal -1.7949e-09 -1 -1.7949e-09
    outer loop
      vertex 0.36238 -9.98852e-10 0.0101157
      vertex 0.385 -8.27986e-10 -0.1077
      vertex 0.385 -1.07694e-09 0.031
    endloop
  endfacet
  facet normal 1 -1.7949e-09 -8.03671e-16
    outer loop
      vertex 0.385 0.4 -0.1077
      vertex 0.385 -1.07694e-09 0.031
      vertex 0.385 -8.27986e-10 -0.1077
    endloop
  endfacet
  facet normal 1 -1.7949e-09 7.97228e-16
    outer loop
      vertex 0.385 0.4 0.031
      vertex 0.385 -1.07694e-09 0.031
      vertex 0.385 0.4 -0.1077
    endloop
  endfacet
  facet normal -1.7949e-09 -1 -1.7949e-09
    outer loop
      vertex 0.08468 -1.40104e-10 -0.190623
      vertex 0.08468 -9.20006e-11 -0.217423
      vertex 0.385 -8.27986e-10 -0.1077
    endloop
  endfacet
  facet normal 0.343168 1.06995e-09 -0.939274
    outer loop
      vertex 0.08468 0.4 -0.217423
      vertex 0.385 -8.27986e-10 -0.1077
      vertex 0.08468 -9.20006e-11 -0.217423
    endloop
  endfacet
  facet normal -1.7949e-09 -1 -1.7949e-09
    outer loop
      vertex 0.36238 -8.20655e-10 -0.0891643
      vertex 0.08468 -1.40104e-10 -0.190623
      vertex 0.385 -8.27986e-10 -0.1077
    endloop
  endfacet
  facet normal -1.7949e-09 -1 -1.7949e-09
    outer loop
      vertex 0.36238 -9.98852e-10 0.0101157
      vertex 0.36238 -8.20655e-10 -0.0891643
      vertex 0.385 -8.27986e-10 -0.1077
    endloop
  endfacet
  facet normal 0.343168 1.06995e-09 -0.939274
    outer loop
      vertex 0.385 0.4 -0.1077
      vertex 0.385 -8.27986e-10 -0.1077
      vertex 0.08468 0.4 -0.217423
    endloop
  endfacet
  facet normal -1 1.7949e-09 3.22165e-18
    outer loop
      vertex 0.08468 0.4 -0.190623
      vertex 0.08468 -9.20006e-11 -0.217423
      vertex 0.08468 -1.40104e-10 -0.190623
    endloop
  endfacet
  facet normal -1 1.7949e-09 1.03888e-15
    outer loop
      vertex 0.08468 0.4 -0.217423
      vertex 0.08468 -9.20006e-11 -0.217423
      vertex 0.08468 0.4 -0.190623
    endloop
  endfacet
  facet normal -0.343168 -1.06995e-09 0.939274
    outer loop
      vertex 0.36238 0.4 -0.0891643
      vertex 0.08468 -1.40104e-10 -0.190623
      vertex 0.36238 -8.20655e-10 -0.0891643
    endloop
  endfacet
  facet normal -0.343168 -1.06995e-09 0.939274
    outer loop
      vertex 0.08468 0.4 -0.190623
      vertex 0.08468 -1.40104e-10 -0.190623
      vertex 0.36238 0.4 -0.0891643
    endloop
  endfacet
  facet normal -1 1.7949e-09 3.22166e-18
    outer loop
      vertex 0.36238 0.4 0.0101157
      vertex 0.36238 -8.20655e-10 -0.0891643
      vertex 0.36238 -9.98852e-10 0.0101157
    endloop
  endfacet
  facet normal -1 1.7949e-09 3.22165e-18
    outer loop
      vertex 0.36238 0.4 -0.0891643
      vertex 0.36238 -8.20655e-10 -0.0891643
      vertex 0.36238 0.4 0.0101157
    endloop
  endfacet
  facet normal 3.22165e-18 1.7949e-09 -1
    outer loop
      vertex 0.08468 0.4 0.0101157
      vertex 0.36238 -9.98852e-10 0.0101157
      vertex 0.08468 -5.00409e-10 0.0101157
    endloop
  endfacet
  facet normal 3.22165e-18 1.7949e-09 -1
    outer loop
      vertex 0.36238 0.4 0.0101157
      vertex 0.36238 -9.98852e-10 0.0101157
      vertex 0.08468 0.4 0.0101157
    endloop
  endfacet
  facet normal -1 1.7949e-09 3.22166e-18
    outer loop
      vertex 0.08468 0.4 0.0101157
      vertex 0.08468 -5.00409e-10 0.0101157
      vertex 0.08468 0.4 0.031
    endloop
  endfacet
  facet normal 1.7949e-09 1 1.7949e-09
    outer loop
      vertex 0.385 0.4 0.031
      vertex 0.08468 0.4 0.0101157
      vertex 0.08468 0.4 0.031
    endloop
  endfacet
  facet normal 1.7949e-09 1 1.7949e-09
    outer loop
      vertex 0.385 0.4 0.031
      vertex 0.36238 0.4 0.0101157
      vertex 0.08468 0.4 0.0101157
    endloop
  endfacet
  facet normal 1.7949e-09 1 1.7949e-09
    outer loop
      vertex 0.385 0.4 0.031
      vertex 0.36238 0.4 -0.0891643
      vertex 0.36238 0.4 0.0101157
    endloop
  endfacet
  facet normal 1.7949e-09 1 1.7949e-09
    outer loop
      vertex 0.08468 0.4 -0.217423
      vertex 0.08468 0.4 -0.190623
      vertex 0.36238 0.4 -0.0891643
    endloop
  endfacet
  facet normal 1.7949e-09 1 1.7949e-09
    outer loop
      vertex 0.385 0.4 -0.1077
      vertex 0.08468 0.4 -0.217423
      vertex 0.36238 0.4 -0.0891643
    endloop
  endfacet
  facet normal 1.7949e-09 1 1.7949e-09
    outer loop
      vertex 0.385 0.4 0.031
      vertex 0.385 0.4 -0.1077
      vertex 0.36238 0.4 -0.0891643
    endloop
  endfacet
endsolid LIGGGHTS_STL_EXPORT
