solid LIGGGHTS_STL_EXPORT
  facet normal -2.09943e-09 -1 1.42677e-09
    outer loop
      vertex -0.124116 -9.98852e-10 -0.127903
      vertex -0.0993632 -1.07694e-09 -0.146209
      vertex -0.155638 -5.37895e-10 0.148792
    endloop
  endfacet
  facet normal 0.982287 -1.79489e-09 0.187381
    outer loop
      vertex -0.0993632 0.4 -0.146209
      vertex -0.155638 -5.37895e-10 0.148792
      vertex -0.0993632 -1.07694e-09 -0.146209
    endloop
  endfacet
  facet normal -2.09943e-09 -1 1.42677e-09
    outer loop
      vertex -0.176152 -5.00409e-10 0.144879
      vertex -0.124116 -9.98852e-10 -0.127903
      vertex -0.155638 -5.37895e-10 0.148792
    endloop
  endfacet
  facet normal -0.187381 1.7949e-09 0.982287
    outer loop
      vertex -0.155638 0.4 0.148792
      vertex -0.176152 -5.00409e-10 0.144879
      vertex -0.155638 -5.37895e-10 0.148792
    endloop
  endfacet
  facet normal 0.982287 -1.7949e-09 0.187381
    outer loop
      vertex -0.0993632 0.4 -0.146209
      vertex -0.155638 0.4 0.148792
      vertex -0.155638 -5.37895e-10 0.148792
    endloop
  endfacet
  facet normal -2.09943e-09 -1 1.42677e-09
    outer loop
      vertex -0.124116 -9.98852e-10 -0.127903
      vertex -0.235606 -8.27986e-10 -0.172198
      vertex -0.0993632 -1.07694e-09 -0.146209
    endloop
  endfacet
  facet normal 0.187381 -1.7949e-09 -0.982287
    outer loop
      vertex -0.235606 0.4 -0.172198
      vertex -0.0993632 -1.07694e-09 -0.146209
      vertex -0.235606 -8.27986e-10 -0.172198
    endloop
  endfacet
  facet normal 0.187381 -1.7949e-09 -0.982287
    outer loop
      vertex -0.0993632 0.4 -0.146209
      vertex -0.0993632 -1.07694e-09 -0.146209
      vertex -0.235606 0.4 -0.172198
    endloop
  endfacet
  facet normal -2.09943e-09 -1 1.42677e-09
    outer loop
      vertex -0.373335 -1.40104e-10 0.107264
      vertex -0.399661 -9.20006e-11 0.102242
      vertex -0.235606 -8.27986e-10 -0.172198
    endloop
  endfacet
  facet normal -0.858334 1.06995e-09 -0.513092
    outer loop
      vertex -0.399661 0.4 0.102242
      vertex -0.235606 -8.27986e-10 -0.172198
      vertex -0.399661 -9.20006e-11 0.102242
    endloop
  endfacet
  facet normal -2.09943e-09 -1 1.42677e-09
    outer loop
      vertex -0.221638 -8.20655e-10 -0.146506
      vertex -0.373335 -1.40104e-10 0.107264
      vertex -0.235606 -8.27986e-10 -0.172198
    endloop
  endfacet
  facet normal -2.09944e-09 -1 1.42678e-09
    outer loop
      vertex -0.124116 -9.98852e-10 -0.127903
      vertex -0.221638 -8.20655e-10 -0.146506
      vertex -0.235606 -8.27986e-10 -0.172198
    endloop
  endfacet
  facet normal -0.858334 1.06995e-09 -0.513092
    outer loop
      vertex -0.235606 0.4 -0.172198
      vertex -0.235606 -8.27986e-10 -0.172198
      vertex -0.399661 0.4 0.102242
    endloop
  endfacet
  facet normal -0.187381 1.7949e-09 0.982287
    outer loop
      vertex -0.373335 0.4 0.107264
      vertex -0.399661 -9.20006e-11 0.102242
      vertex -0.373335 -1.40104e-10 0.107264
    endloop
  endfacet
  facet normal -0.187381 1.79489e-09 0.982287
    outer loop
      vertex -0.399661 0.4 0.102242
      vertex -0.399661 -9.20006e-11 0.102242
      vertex -0.373335 0.4 0.107264
    endloop
  endfacet
  facet normal 0.858334 -1.06995e-09 0.513092
    outer loop
      vertex -0.221638 0.4 -0.146506
      vertex -0.373335 -1.40104e-10 0.107264
      vertex -0.221638 -8.20655e-10 -0.146506
    endloop
  endfacet
  facet normal 0.858334 -1.06994e-09 0.513092
    outer loop
      vertex -0.373335 0.4 0.107264
      vertex -0.373335 -1.40104e-10 0.107264
      vertex -0.221638 0.4 -0.146506
    endloop
  endfacet
  facet normal -0.187381 1.79489e-09 0.982287
    outer loop
      vertex -0.124116 0.4 -0.127903
      vertex -0.221638 -8.20655e-10 -0.146506
      vertex -0.124116 -9.98852e-10 -0.127903
    endloop
  endfacet
  facet normal -0.187381 1.7949e-09 0.982287
    outer loop
      vertex -0.221638 0.4 -0.146506
      vertex -0.221638 -8.20655e-10 -0.146506
      vertex -0.124116 0.4 -0.127903
    endloop
  endfacet
  facet normal -0.982287 1.7949e-09 -0.187381
    outer loop
      vertex -0.176152 0.4 0.144879
      vertex -0.124116 -9.98852e-10 -0.127903
      vertex -0.176152 -5.00409e-10 0.144879
    endloop
  endfacet
  facet normal -0.982287 1.7949e-09 -0.187381
    outer loop
      vertex -0.124116 0.4 -0.127903
      vertex -0.124116 -9.98852e-10 -0.127903
      vertex -0.176152 0.4 0.144879
    endloop
  endfacet
  facet normal -0.187381 1.7949e-09 0.982287
    outer loop
      vertex -0.176152 0.4 0.144879
      vertex -0.176152 -5.00409e-10 0.144879
      vertex -0.155638 0.4 0.148792
    endloop
  endfacet
  facet normal 2.09944e-09 1 -1.42677e-09
    outer loop
      vertex -0.0993632 0.4 -0.146209
      vertex -0.176152 0.4 0.144879
      vertex -0.155638 0.4 0.148792
    endloop
  endfacet
  facet normal 2.12385e-09 1 -1.42033e-09
    outer loop
      vertex -0.0993632 0.4 -0.146209
      vertex -0.124116 0.4 -0.127903
      vertex -0.176152 0.4 0.144879
    endloop
  endfacet
  facet normal 2.10346e-09 1 -1.4479e-09
    outer loop
      vertex -0.0993632 0.4 -0.146209
      vertex -0.221638 0.4 -0.146506
      vertex -0.124116 0.4 -0.127903
    endloop
  endfacet
  facet normal 2.09911e-09 1 -1.42505e-09
    outer loop
      vertex -0.399661 0.4 0.102242
      vertex -0.373335 0.4 0.107264
      vertex -0.221638 0.4 -0.146506
    endloop
  endfacet
  facet normal 2.09788e-09 1 -1.42593e-09
    outer loop
      vertex -0.235606 0.4 -0.172198
      vertex -0.399661 0.4 0.102242
      vertex -0.221638 0.4 -0.146506
    endloop
  endfacet
  facet normal 2.10342e-09 1 -1.42894e-09
    outer loop
      vertex -0.0993632 0.4 -0.146209
      vertex -0.235606 0.4 -0.172198
      vertex -0.221638 0.4 -0.146506
    endloop
  endfacet
endsolid LIGGGHTS_STL_EXPORT
