solid LIGGGHTS_STL_EXPORT
  facet normal -1.7949e-09 -1 -1.7949e-09
    outer loop
      vertex 0.32238 -9.98852e-10 -0.0138843
      vertex 0.345 -1.07694e-09 0.007
      vertex 0.04468 -5.37895e-10 0.007
    endloop
  endfacet
  facet normal -3.22165e-18 -1.7949e-09 1
    outer loop
      vertex 0.345 0.4 0.007
      vertex 0.04468 -5.37895e-10 0.007
      vertex 0.345 -1.07694e-09 0.007
    endloop
  endfacet
  facet normal -1.7949e-09 -1 -1.7949e-09
    outer loop
      vertex 0.04468 -5.00409e-10 -0.0138843
      vertex 0.32238 -9.98852e-10 -0.0138843
      vertex 0.04468 -5.37895e-10 0.007
    endloop
  endfacet
  facet normal -1 1.7949e-09 3.22166e-18
    outer loop
      vertex 0.04468 0.4 0.007
      vertex 0.04468 -5.00409e-10 -0.0138843
      vertex 0.04468 -5.37895e-10 0.007
    endloop
  endfacet
  facet normal -3.22165e-18 -1.7949e-09 1
    outer loop
      vertex 0.345 0.4 0.007
      vertex 0.04468 0.4 0.007
      vertex 0.04468 -5.37895e-10 0.007
    endloop
  endfacet
  facet normal -1.7949e-09 -1 -1.7949e-09
    outer loop
      vertex 0.32238 -9.98852e-10 -0.0138843
      vertex 0.345 -8.27986e-10 -0.1317
      vertex 0.345 -1.07694e-09 0.007
    endloop
  endfacet
  facet normal 1 -1.7949e-09 -8.03671e-16
    outer loop
      vertex 0.345 0.4 -0.1317
      vertex 0.345 -1.07694e-09 0.007
      vertex 0.345 -8.27986e-10 -0.1317
    endloop
  endfacet
  facet normal 1 -1.7949e-09 7.97228e-16
    outer loop
      vertex 0.345 0.4 0.007
      vertex 0.345 -1.07694e-09 0.007
      vertex 0.345 0.4 -0.1317
    endloop
  endfacet
  facet normal -1.7949e-09 -1 -1.7949e-09
    outer loop
      vertex 0.04468 -1.40104e-10 -0.214623
      vertex 0.04468 -9.20006e-11 -0.241423
      vertex 0.345 -8.27986e-10 -0.1317
    endloop
  endfacet
  facet normal 0.343168 1.06995e-09 -0.939274
    outer loop
      vertex 0.04468 0.4 -0.241423
      vertex 0.345 -8.27986e-10 -0.1317
      vertex 0.04468 -9.20006e-11 -0.241423
    endloop
  endfacet
  facet normal -1.7949e-09 -1 -1.7949e-09
    outer loop
      vertex 0.32238 -8.20655e-10 -0.113164
      vertex 0.04468 -1.40104e-10 -0.214623
      vertex 0.345 -8.27986e-10 -0.1317
    endloop
  endfacet
  facet normal -1.7949e-09 -1 -1.7949e-09
    outer loop
      vertex 0.32238 -9.98852e-10 -0.0138843
      vertex 0.32238 -8.20655e-10 -0.113164
      vertex 0.345 -8.27986e-10 -0.1317
    endloop
  endfacet
  facet normal 0.343168 1.06995e-09 -0.939274
    outer loop
      vertex 0.345 0.4 -0.1317
      vertex 0.345 -8.27986e-10 -0.1317
      vertex 0.04468 0.4 -0.241423
    endloop
  endfacet
  facet normal -1 1.7949e-09 3.22165e-18
    outer loop
      vertex 0.04468 0.4 -0.214623
      vertex 0.04468 -9.20006e-11 -0.241423
      vertex 0.04468 -1.40104e-10 -0.214623
    endloop
  endfacet
  facet normal -1 1.7949e-09 1.03888e-15
    outer loop
      vertex 0.04468 0.4 -0.241423
      vertex 0.04468 -9.20006e-11 -0.241423
      vertex 0.04468 0.4 -0.214623
    endloop
  endfacet
  facet normal -0.343168 -1.06995e-09 0.939274
    outer loop
      vertex 0.32238 0.4 -0.113164
      vertex 0.04468 -1.40104e-10 -0.214623
      vertex 0.32238 -8.20655e-10 -0.113164
    endloop
  endfacet
  facet normal -0.343168 -1.06995e-09 0.939274
    outer loop
      vertex 0.04468 0.4 -0.214623
      vertex 0.04468 -1.40104e-10 -0.214623
      vertex 0.32238 0.4 -0.113164
    endloop
  endfacet
  facet normal -1 1.7949e-09 3.22166e-18
    outer loop
      vertex 0.32238 0.4 -0.0138843
      vertex 0.32238 -8.20655e-10 -0.113164
      vertex 0.32238 -9.98852e-10 -0.0138843
    endloop
  endfacet
  facet normal -1 1.7949e-09 3.22165e-18
    outer loop
      vertex 0.32238 0.4 -0.113164
      vertex 0.32238 -8.20655e-10 -0.113164
      vertex 0.32238 0.4 -0.0138843
    endloop
  endfacet
  facet normal 3.22165e-18 1.7949e-09 -1
    outer loop
      vertex 0.04468 0.4 -0.0138843
      vertex 0.32238 -9.98852e-10 -0.0138843
      vertex 0.04468 -5.00409e-10 -0.0138843
    endloop
  endfacet
  facet normal 3.22165e-18 1.7949e-09 -1
    outer loop
      vertex 0.32238 0.4 -0.0138843
      vertex 0.32238 -9.98852e-10 -0.0138843
      vertex 0.04468 0.4 -0.0138843
    endloop
  endfacet
  facet normal -1 1.7949e-09 3.22166e-18
    outer loop
      vertex 0.04468 0.4 -0.0138843
      vertex 0.04468 -5.00409e-10 -0.0138843
      vertex 0.04468 0.4 0.007
    endloop
  endfacet
  facet normal 1.7949e-09 1 1.7949e-09
    outer loop
      vertex 0.345 0.4 0.007
      vertex 0.04468 0.4 -0.0138843
      vertex 0.04468 0.4 0.007
    endloop
  endfacet
  facet normal 1.7949e-09 1 1.7949e-09
    outer loop
      vertex 0.345 0.4 0.007
      vertex 0.32238 0.4 -0.0138843
      vertex 0.04468 0.4 -0.0138843
    endloop
  endfacet
  facet normal 1.7949e-09 1 1.7949e-09
    outer loop
      vertex 0.345 0.4 0.007
      vertex 0.32238 0.4 -0.113164
      vertex 0.32238 0.4 -0.0138843
    endloop
  endfacet
  facet normal 1.7949e-09 1 1.7949e-09
    outer loop
      vertex 0.04468 0.4 -0.241423
      vertex 0.04468 0.4 -0.214623
      vertex 0.32238 0.4 -0.113164
    endloop
  endfacet
  facet normal 1.7949e-09 1 1.7949e-09
    outer loop
      vertex 0.345 0.4 -0.1317
      vertex 0.04468 0.4 -0.241423
      vertex 0.32238 0.4 -0.113164
    endloop
  endfacet
  facet normal 1.7949e-09 1 1.7949e-09
    outer loop
      vertex 0.345 0.4 0.007
      vertex 0.345 0.4 -0.1317
      vertex 0.32238 0.4 -0.113164
    endloop
  endfacet
endsolid LIGGGHTS_STL_EXPORT
