solid LIGGGHTS_STL_EXPORT
  facet normal -2.53711e-09 -1 7.9733e-11
    outer loop
      vertex -0.0362612 -9.98852e-10 -0.174496
      vertex -0.00555269 -1.07694e-09 -0.176689
      vertex -0.211136 -5.37895e-10 0.0422344
    endloop
  endfacet
  facet normal 0.728969 -1.79489e-09 0.684547
    outer loop
      vertex -0.00555269 0.4 -0.176689
      vertex -0.211136 -5.37895e-10 0.0422344
      vertex -0.00555269 -1.07694e-09 -0.176689
    endloop
  endfacet
  facet normal -2.53712e-09 -1 7.97318e-11
    outer loop
      vertex -0.22636 -5.00409e-10 0.0279381
      vertex -0.0362612 -9.98852e-10 -0.174496
      vertex -0.211136 -5.37895e-10 0.0422344
    endloop
  endfacet
  facet normal -0.684547 1.79489e-09 0.728969
    outer loop
      vertex -0.211136 0.4 0.0422344
      vertex -0.22636 -5.00409e-10 0.0279381
      vertex -0.211136 -5.37895e-10 0.0422344
    endloop
  endfacet
  facet normal 0.728969 -1.79489e-09 0.684547
    outer loop
      vertex -0.00555269 0.4 -0.176689
      vertex -0.211136 0.4 0.0422344
      vertex -0.211136 -5.37895e-10 0.0422344
    endloop
  endfacet
  facet normal -2.53711e-09 -1 7.97309e-11
    outer loop
      vertex -0.0362612 -9.98852e-10 -0.174496
      vertex -0.106661 -8.27986e-10 -0.271636
      vertex -0.00555269 -1.07694e-09 -0.176689
    endloop
  endfacet
  facet normal 0.684547 -1.79489e-09 -0.728969
    outer loop
      vertex -0.106661 0.4 -0.271636
      vertex -0.00555269 -1.07694e-09 -0.176689
      vertex -0.106661 -8.27986e-10 -0.271636
    endloop
  endfacet
  facet normal 0.684547 -1.7949e-09 -0.728969
    outer loop
      vertex -0.00555269 0.4 -0.176689
      vertex -0.00555269 -1.07694e-09 -0.176689
      vertex -0.106661 0.4 -0.271636
    endloop
  endfacet
  facet normal -2.53712e-09 -1 7.97317e-11
    outer loop
      vertex -0.372692 -1.40104e-10 -0.109477
      vertex -0.392229 -9.20006e-11 -0.127823
      vertex -0.106661 -8.27986e-10 -0.271636
    endloop
  endfacet
  facet normal -0.449787 1.06995e-09 -0.893136
    outer loop
      vertex -0.392229 0.4 -0.127823
      vertex -0.106661 -8.27986e-10 -0.271636
      vertex -0.392229 -9.20006e-11 -0.127823
    endloop
  endfacet
  facet normal -2.53711e-09 -1 7.97333e-11
    outer loop
      vertex -0.108633 -8.20655e-10 -0.242458
      vertex -0.372692 -1.40104e-10 -0.109477
      vertex -0.106661 -8.27986e-10 -0.271636
    endloop
  endfacet
  facet normal -2.53712e-09 -1 7.97331e-11
    outer loop
      vertex -0.0362612 -9.98852e-10 -0.174496
      vertex -0.108633 -8.20655e-10 -0.242458
      vertex -0.106661 -8.27986e-10 -0.271636
    endloop
  endfacet
  facet normal -0.449787 1.06995e-09 -0.893136
    outer loop
      vertex -0.106661 0.4 -0.271636
      vertex -0.106661 -8.27986e-10 -0.271636
      vertex -0.392229 0.4 -0.127823
    endloop
  endfacet
  facet normal -0.684547 1.7949e-09 0.728969
    outer loop
      vertex -0.372692 0.4 -0.109477
      vertex -0.392229 -9.20006e-11 -0.127823
      vertex -0.372692 -1.40104e-10 -0.109477
    endloop
  endfacet
  facet normal -0.684547 1.79489e-09 0.728969
    outer loop
      vertex -0.392229 0.4 -0.127823
      vertex -0.392229 -9.20006e-11 -0.127823
      vertex -0.372692 0.4 -0.109477
    endloop
  endfacet
  facet normal 0.449787 -1.06995e-09 0.893136
    outer loop
      vertex -0.108633 0.4 -0.242458
      vertex -0.372692 -1.40104e-10 -0.109477
      vertex -0.108633 -8.20655e-10 -0.242458
    endloop
  endfacet
  facet normal 0.449787 -1.06995e-09 0.893136
    outer loop
      vertex -0.372692 0.4 -0.109477
      vertex -0.372692 -1.40104e-10 -0.109477
      vertex -0.108633 0.4 -0.242458
    endloop
  endfacet
  facet normal -0.684547 1.7949e-09 0.728969
    outer loop
      vertex -0.0362612 0.4 -0.174496
      vertex -0.108633 -8.20655e-10 -0.242458
      vertex -0.0362612 -9.98852e-10 -0.174496
    endloop
  endfacet
  facet normal -0.684547 1.7949e-09 0.728969
    outer loop
      vertex -0.108633 0.4 -0.242458
      vertex -0.108633 -8.20655e-10 -0.242458
      vertex -0.0362612 0.4 -0.174496
    endloop
  endfacet
  facet normal -0.728969 1.7949e-09 -0.684547
    outer loop
      vertex -0.22636 0.4 0.0279381
      vertex -0.0362612 -9.98852e-10 -0.174496
      vertex -0.22636 -5.00409e-10 0.0279381
    endloop
  endfacet
  facet normal -0.728969 1.7949e-09 -0.684547
    outer loop
      vertex -0.0362612 0.4 -0.174496
      vertex -0.0362612 -9.98852e-10 -0.174496
      vertex -0.22636 0.4 0.0279381
    endloop
  endfacet
  facet normal -0.684547 1.7949e-09 0.728969
    outer loop
      vertex -0.22636 0.4 0.0279381
      vertex -0.22636 -5.00409e-10 0.0279381
      vertex -0.211136 0.4 0.0422344
    endloop
  endfacet
  facet normal 2.53712e-09 1 -7.97307e-11
    outer loop
      vertex -0.00555269 0.4 -0.176689
      vertex -0.22636 0.4 0.0279381
      vertex -0.211136 0.4 0.0422344
    endloop
  endfacet
  facet normal 2.54716e-09 1 -6.88964e-11
    outer loop
      vertex -0.00555269 0.4 -0.176689
      vertex -0.0362612 0.4 -0.174496
      vertex -0.22636 0.4 0.0279381
    endloop
  endfacet
  facet normal 2.54573e-09 1 -8.89039e-11
    outer loop
      vertex -0.00555269 0.4 -0.176689
      vertex -0.108633 0.4 -0.242458
      vertex -0.0362612 0.4 -0.174496
    endloop
  endfacet
  facet normal 2.53641e-09 1 -7.89843e-11
    outer loop
      vertex -0.392229 0.4 -0.127823
      vertex -0.372692 0.4 -0.109477
      vertex -0.108633 0.4 -0.242458
    endloop
  endfacet
  facet normal 2.53608e-09 1 -7.98031e-11
    outer loop
      vertex -0.106661 0.4 -0.271636
      vertex -0.392229 0.4 -0.127823
      vertex -0.108633 0.4 -0.242458
    endloop
  endfacet
  facet normal 2.53976e-09 1 -7.95543e-11
    outer loop
      vertex -0.00555269 0.4 -0.176689
      vertex -0.106661 0.4 -0.271636
      vertex -0.108633 0.4 -0.242458
    endloop
  endfacet
endsolid LIGGGHTS_STL_EXPORT
