solid LIGGGHTS_STL_EXPORT
  facet normal 1.73763e-09 -1 1.85039e-09
    outer loop
      vertex -0.106912 -9.98852e-10 0.142597
      vertex -0.128865 -1.07694e-09 0.121012
      vertex 0.171307 -5.37895e-10 0.130445
    endloop
  endfacet
  facet normal 0.0314108 -1.79489e-09 -0.999507
    outer loop
      vertex -0.128865 0.4 0.121012
      vertex 0.171307 -5.37895e-10 0.130445
      vertex -0.128865 -1.07694e-09 0.121012
    endloop
  endfacet
  facet normal 1.73763e-09 -1 1.85039e-09
    outer loop
      vertex 0.170651 -5.00409e-10 0.151319
      vertex -0.106912 -9.98852e-10 0.142597
      vertex 0.171307 -5.37895e-10 0.130445
    endloop
  endfacet
  facet normal 0.999507 1.79489e-09 0.0314108
    outer loop
      vertex 0.171307 0.4 0.130445
      vertex 0.170651 -5.00409e-10 0.151319
      vertex 0.171307 -5.37895e-10 0.130445
    endloop
  endfacet
  facet normal 0.0314108 -1.7949e-09 -0.999507
    outer loop
      vertex -0.128865 0.4 0.121012
      vertex 0.171307 0.4 0.130445
      vertex 0.171307 -5.37895e-10 0.130445
    endloop
  endfacet
  facet normal 1.73763e-09 -1 1.85039e-09
    outer loop
      vertex -0.106912 -9.98852e-10 0.142597
      vertex -0.133221 -8.27986e-10 0.259644
      vertex -0.128865 -1.07694e-09 0.121012
    endloop
  endfacet
  facet normal -0.999507 -1.7949e-09 -0.0314108
    outer loop
      vertex -0.133221 0.4 0.259644
      vertex -0.128865 -1.07694e-09 0.121012
      vertex -0.133221 -8.27986e-10 0.259644
    endloop
  endfacet
  facet normal -0.999507 -1.7949e-09 -0.0314108
    outer loop
      vertex -0.128865 0.4 0.121012
      vertex -0.128865 -1.07694e-09 0.121012
      vertex -0.133221 0.4 0.259644
    endloop
  endfacet
  facet normal 1.73763e-09 -1 1.85039e-09
    outer loop
      vertex 0.164346 -1.40104e-10 0.351959
      vertex 0.163504 -9.20006e-11 0.378746
      vertex -0.133221 -8.27986e-10 0.259644
    endloop
  endfacet
  facet normal -0.372502 1.06997e-09 0.928031
    outer loop
      vertex 0.163504 0.4 0.378746
      vertex -0.133221 -8.27986e-10 0.259644
      vertex 0.163504 -9.20006e-11 0.378746
    endloop
  endfacet
  facet normal 1.73763e-09 -1 1.85039e-09
    outer loop
      vertex -0.11003 -8.20655e-10 0.241828
      vertex 0.164346 -1.40104e-10 0.351959
      vertex -0.133221 -8.27986e-10 0.259644
    endloop
  endfacet
  facet normal 1.73763e-09 -1 1.85039e-09
    outer loop
      vertex -0.106912 -9.98852e-10 0.142597
      vertex -0.11003 -8.20655e-10 0.241828
      vertex -0.133221 -8.27986e-10 0.259644
    endloop
  endfacet
  facet normal -0.372502 1.06995e-09 0.928031
    outer loop
      vertex -0.133221 0.4 0.259644
      vertex -0.133221 -8.27986e-10 0.259644
      vertex 0.163504 0.4 0.378746
    endloop
  endfacet
  facet normal 0.999507 1.7949e-09 0.0314108
    outer loop
      vertex 0.164346 0.4 0.351959
      vertex 0.163504 -9.20006e-11 0.378746
      vertex 0.164346 -1.40104e-10 0.351959
    endloop
  endfacet
  facet normal 0.999507 1.79488e-09 0.0314108
    outer loop
      vertex 0.163504 0.4 0.378746
      vertex 0.163504 -9.20006e-11 0.378746
      vertex 0.164346 0.4 0.351959
    endloop
  endfacet
  facet normal 0.372502 -1.06996e-09 -0.928031
    outer loop
      vertex -0.11003 0.4 0.241828
      vertex 0.164346 -1.40104e-10 0.351959
      vertex -0.11003 -8.20655e-10 0.241828
    endloop
  endfacet
  facet normal 0.372502 -1.06994e-09 -0.928031
    outer loop
      vertex 0.164346 0.4 0.351959
      vertex 0.164346 -1.40104e-10 0.351959
      vertex -0.11003 0.4 0.241828
    endloop
  endfacet
  facet normal 0.999507 1.79489e-09 0.0314108
    outer loop
      vertex -0.106912 0.4 0.142597
      vertex -0.11003 -8.20655e-10 0.241828
      vertex -0.106912 -9.98852e-10 0.142597
    endloop
  endfacet
  facet normal 0.999507 1.7949e-09 0.0314108
    outer loop
      vertex -0.11003 0.4 0.241828
      vertex -0.11003 -8.20655e-10 0.241828
      vertex -0.106912 0.4 0.142597
    endloop
  endfacet
  facet normal -0.0314108 1.79491e-09 0.999507
    outer loop
      vertex 0.170651 0.4 0.151319
      vertex -0.106912 -9.98852e-10 0.142597
      vertex 0.170651 -5.00409e-10 0.151319
    endloop
  endfacet
  facet normal -0.0314108 1.7949e-09 0.999507
    outer loop
      vertex -0.106912 0.4 0.142597
      vertex -0.106912 -9.98852e-10 0.142597
      vertex 0.170651 0.4 0.151319
    endloop
  endfacet
  facet normal 0.999507 1.7949e-09 0.0314108
    outer loop
      vertex 0.170651 0.4 0.151319
      vertex 0.170651 -5.00409e-10 0.151319
      vertex 0.171307 0.4 0.130445
    endloop
  endfacet
  facet normal -1.73763e-09 1 -1.85039e-09
    outer loop
      vertex -0.128865 0.4 0.121012
      vertex 0.170651 0.4 0.151319
      vertex 0.171307 0.4 0.130445
    endloop
  endfacet
  facet normal -1.73193e-09 1 -1.90675e-09
    outer loop
      vertex -0.128865 0.4 0.121012
      vertex -0.106912 0.4 0.142597
      vertex 0.170651 0.4 0.151319
    endloop
  endfacet
  facet normal -1.78586e-09 1 -1.85191e-09
    outer loop
      vertex -0.128865 0.4 0.121012
      vertex -0.11003 0.4 0.241828
      vertex -0.106912 0.4 0.142597
    endloop
  endfacet
  facet normal -1.7337e-09 1 -1.85027e-09
    outer loop
      vertex 0.163504 0.4 0.378746
      vertex 0.164346 0.4 0.351959
      vertex -0.11003 0.4 0.241828
    endloop
  endfacet
  facet normal -1.73522e-09 1 -1.84724e-09
    outer loop
      vertex -0.133221 0.4 0.259644
      vertex 0.163504 0.4 0.378746
      vertex -0.11003 0.4 0.241828
    endloop
  endfacet
  facet normal -1.74383e-09 1 -1.85846e-09
    outer loop
      vertex -0.128865 0.4 0.121012
      vertex -0.133221 0.4 0.259644
      vertex -0.11003 0.4 0.241828
    endloop
  endfacet
endsolid LIGGGHTS_STL_EXPORT
