solid LIGGGHTS_STL_EXPORT
  facet normal -1.7949e-09 -1 -1.7949e-09
    outer loop
      vertex 0.42238 -9.98852e-10 0.0461157
      vertex 0.445 -1.07694e-09 0.067
      vertex 0.14468 -5.37895e-10 0.067
    endloop
  endfacet
  facet normal -3.22165e-18 -1.7949e-09 1
    outer loop
      vertex 0.445 0.4 0.067
      vertex 0.14468 -5.37895e-10 0.067
      vertex 0.445 -1.07694e-09 0.067
    endloop
  endfacet
  facet normal -1.7949e-09 -1 -1.7949e-09
    outer loop
      vertex 0.14468 -5.00409e-10 0.0461157
      vertex 0.42238 -9.98852e-10 0.0461157
      vertex 0.14468 -5.37895e-10 0.067
    endloop
  endfacet
  facet normal -1 1.7949e-09 3.22166e-18
    outer loop
      vertex 0.14468 0.4 0.067
      vertex 0.14468 -5.00409e-10 0.0461157
      vertex 0.14468 -5.37895e-10 0.067
    endloop
  endfacet
  facet normal -3.22165e-18 -1.7949e-09 1
    outer loop
      vertex 0.445 0.4 0.067
      vertex 0.14468 0.4 0.067
      vertex 0.14468 -5.37895e-10 0.067
    endloop
  endfacet
  facet normal -1.7949e-09 -1 -1.7949e-09
    outer loop
      vertex 0.42238 -9.98852e-10 0.0461157
      vertex 0.445 -8.27986e-10 -0.0717
      vertex 0.445 -1.07694e-09 0.067
    endloop
  endfacet
  facet normal 1 -1.7949e-09 -8.03671e-16
    outer loop
      vertex 0.445 0.4 -0.0717
      vertex 0.445 -1.07694e-09 0.067
      vertex 0.445 -8.27986e-10 -0.0717
    endloop
  endfacet
  facet normal 1 -1.7949e-09 7.97228e-16
    outer loop
      vertex 0.445 0.4 0.067
      vertex 0.445 -1.07694e-09 0.067
      vertex 0.445 0.4 -0.0717
    endloop
  endfacet
  facet normal -1.7949e-09 -1 -1.7949e-09
    outer loop
      vertex 0.14468 -1.40104e-10 -0.154623
      vertex 0.14468 -9.20006e-11 -0.181423
      vertex 0.445 -8.27986e-10 -0.0717
    endloop
  endfacet
  facet normal 0.343168 1.06995e-09 -0.939274
    outer loop
      vertex 0.14468 0.4 -0.181423
      vertex 0.445 -8.27986e-10 -0.0717
      vertex 0.14468 -9.20006e-11 -0.181423
    endloop
  endfacet
  facet normal -1.7949e-09 -1 -1.7949e-09
    outer loop
      vertex 0.42238 -8.20655e-10 -0.0531643
      vertex 0.14468 -1.40104e-10 -0.154623
      vertex 0.445 -8.27986e-10 -0.0717
    endloop
  endfacet
  facet normal -1.7949e-09 -1 -1.7949e-09
    outer loop
      vertex 0.42238 -9.98852e-10 0.0461157
      vertex 0.42238 -8.20655e-10 -0.0531643
      vertex 0.445 -8.27986e-10 -0.0717
    endloop
  endfacet
  facet normal 0.343168 1.06995e-09 -0.939274
    outer loop
      vertex 0.445 0.4 -0.0717
      vertex 0.445 -8.27986e-10 -0.0717
      vertex 0.14468 0.4 -0.181423
    endloop
  endfacet
  facet normal -1 1.7949e-09 3.22165e-18
    outer loop
      vertex 0.14468 0.4 -0.154623
      vertex 0.14468 -9.20006e-11 -0.181423
      vertex 0.14468 -1.40104e-10 -0.154623
    endloop
  endfacet
  facet normal -1 1.7949e-09 1.03888e-15
    outer loop
      vertex 0.14468 0.4 -0.181423
      vertex 0.14468 -9.20006e-11 -0.181423
      vertex 0.14468 0.4 -0.154623
    endloop
  endfacet
  facet normal -0.343168 -1.06995e-09 0.939274
    outer loop
      vertex 0.42238 0.4 -0.0531643
      vertex 0.14468 -1.40104e-10 -0.154623
      vertex 0.42238 -8.20655e-10 -0.0531643
    endloop
  endfacet
  facet normal -0.343168 -1.06995e-09 0.939274
    outer loop
      vertex 0.14468 0.4 -0.154623
      vertex 0.14468 -1.40104e-10 -0.154623
      vertex 0.42238 0.4 -0.0531643
    endloop
  endfacet
  facet normal -1 1.7949e-09 3.22166e-18
    outer loop
      vertex 0.42238 0.4 0.0461157
      vertex 0.42238 -8.20655e-10 -0.0531643
      vertex 0.42238 -9.98852e-10 0.0461157
    endloop
  endfacet
  facet normal -1 1.7949e-09 3.22165e-18
    outer loop
      vertex 0.42238 0.4 -0.0531643
      vertex 0.42238 -8.20655e-10 -0.0531643
      vertex 0.42238 0.4 0.0461157
    endloop
  endfacet
  facet normal 3.22165e-18 1.7949e-09 -1
    outer loop
      vertex 0.14468 0.4 0.0461157
      vertex 0.42238 -9.98852e-10 0.0461157
      vertex 0.14468 -5.00409e-10 0.0461157
    endloop
  endfacet
  facet normal 3.22165e-18 1.7949e-09 -1
    outer loop
      vertex 0.42238 0.4 0.0461157
      vertex 0.42238 -9.98852e-10 0.0461157
      vertex 0.14468 0.4 0.0461157
    endloop
  endfacet
  facet normal -1 1.7949e-09 3.22166e-18
    outer loop
      vertex 0.14468 0.4 0.0461157
      vertex 0.14468 -5.00409e-10 0.0461157
      vertex 0.14468 0.4 0.067
    endloop
  endfacet
  facet normal 1.7949e-09 1 1.7949e-09
    outer loop
      vertex 0.445 0.4 0.067
      vertex 0.14468 0.4 0.0461157
      vertex 0.14468 0.4 0.067
    endloop
  endfacet
  facet normal 1.7949e-09 1 1.7949e-09
    outer loop
      vertex 0.445 0.4 0.067
      vertex 0.42238 0.4 0.0461157
      vertex 0.14468 0.4 0.0461157
    endloop
  endfacet
  facet normal 1.7949e-09 1 1.7949e-09
    outer loop
      vertex 0.445 0.4 0.067
      vertex 0.42238 0.4 -0.0531643
      vertex 0.42238 0.4 0.0461157
    endloop
  endfacet
  facet normal 1.7949e-09 1 1.7949e-09
    outer loop
      vertex 0.14468 0.4 -0.181423
      vertex 0.14468 0.4 -0.154623
      vertex 0.42238 0.4 -0.0531643
    endloop
  endfacet
  facet normal 1.7949e-09 1 1.7949e-09
    outer loop
      vertex 0.445 0.4 -0.0717
      vertex 0.14468 0.4 -0.181423
      vertex 0.42238 0.4 -0.0531643
    endloop
  endfacet
  facet normal 1.7949e-09 1 1.7949e-09
    outer loop
      vertex 0.445 0.4 0.067
      vertex 0.445 0.4 -0.0717
      vertex 0.42238 0.4 -0.0531643
    endloop
  endfacet
endsolid LIGGGHTS_STL_EXPORT
