solid LIGGGHTS_STL_EXPORT
  facet normal -1.7949e-09 -1 -1.7949e-09
    outer loop
      vertex 0.10738 -9.98852e-10 -0.142884
      vertex 0.13 -1.07694e-09 -0.122
      vertex -0.17032 -5.37895e-10 -0.122
    endloop
  endfacet
  facet normal -3.22165e-18 -1.7949e-09 1
    outer loop
      vertex 0.13 0.4 -0.122
      vertex -0.17032 -5.37895e-10 -0.122
      vertex 0.13 -1.07694e-09 -0.122
    endloop
  endfacet
  facet normal -1.7949e-09 -1 -1.7949e-09
    outer loop
      vertex -0.17032 -5.00409e-10 -0.142884
      vertex 0.10738 -9.98852e-10 -0.142884
      vertex -0.17032 -5.37895e-10 -0.122
    endloop
  endfacet
  facet normal -1 1.7949e-09 3.22166e-18
    outer loop
      vertex -0.17032 0.4 -0.122
      vertex -0.17032 -5.00409e-10 -0.142884
      vertex -0.17032 -5.37895e-10 -0.122
    endloop
  endfacet
  facet normal -3.22165e-18 -1.7949e-09 1
    outer loop
      vertex 0.13 0.4 -0.122
      vertex -0.17032 0.4 -0.122
      vertex -0.17032 -5.37895e-10 -0.122
    endloop
  endfacet
  facet normal -1.7949e-09 -1 -1.7949e-09
    outer loop
      vertex 0.10738 -9.98852e-10 -0.142884
      vertex 0.13 -8.27986e-10 -0.2607
      vertex 0.13 -1.07694e-09 -0.122
    endloop
  endfacet
  facet normal 1 -1.7949e-09 -8.03671e-16
    outer loop
      vertex 0.13 0.4 -0.2607
      vertex 0.13 -1.07694e-09 -0.122
      vertex 0.13 -8.27986e-10 -0.2607
    endloop
  endfacet
  facet normal 1 -1.7949e-09 7.97228e-16
    outer loop
      vertex 0.13 0.4 -0.122
      vertex 0.13 -1.07694e-09 -0.122
      vertex 0.13 0.4 -0.2607
    endloop
  endfacet
  facet normal -1.7949e-09 -1 -1.7949e-09
    outer loop
      vertex -0.17032 -1.40104e-10 -0.343623
      vertex -0.17032 -9.20006e-11 -0.370423
      vertex 0.13 -8.27986e-10 -0.2607
    endloop
  endfacet
  facet normal 0.343168 1.06995e-09 -0.939274
    outer loop
      vertex -0.17032 0.4 -0.370423
      vertex 0.13 -8.27986e-10 -0.2607
      vertex -0.17032 -9.20006e-11 -0.370423
    endloop
  endfacet
  facet normal -1.7949e-09 -1 -1.7949e-09
    outer loop
      vertex 0.10738 -8.20655e-10 -0.242164
      vertex -0.17032 -1.40104e-10 -0.343623
      vertex 0.13 -8.27986e-10 -0.2607
    endloop
  endfacet
  facet normal -1.7949e-09 -1 -1.7949e-09
    outer loop
      vertex 0.10738 -9.98852e-10 -0.142884
      vertex 0.10738 -8.20655e-10 -0.242164
      vertex 0.13 -8.27986e-10 -0.2607
    endloop
  endfacet
  facet normal 0.343168 1.06995e-09 -0.939274
    outer loop
      vertex 0.13 0.4 -0.2607
      vertex 0.13 -8.27986e-10 -0.2607
      vertex -0.17032 0.4 -0.370423
    endloop
  endfacet
  facet normal -1 1.7949e-09 3.22165e-18
    outer loop
      vertex -0.17032 0.4 -0.343623
      vertex -0.17032 -9.20006e-11 -0.370423
      vertex -0.17032 -1.40104e-10 -0.343623
    endloop
  endfacet
  facet normal -1 1.7949e-09 1.03888e-15
    outer loop
      vertex -0.17032 0.4 -0.370423
      vertex -0.17032 -9.20006e-11 -0.370423
      vertex -0.17032 0.4 -0.343623
    endloop
  endfacet
  facet normal -0.343168 -1.06995e-09 0.939274
    outer loop
      vertex 0.10738 0.4 -0.242164
      vertex -0.17032 -1.40104e-10 -0.343623
      vertex 0.10738 -8.20655e-10 -0.242164
    endloop
  endfacet
  facet normal -0.343168 -1.06995e-09 0.939274
    outer loop
      vertex -0.17032 0.4 -0.343623
      vertex -0.17032 -1.40104e-10 -0.343623
      vertex 0.10738 0.4 -0.242164
    endloop
  endfacet
  facet normal -1 1.7949e-09 3.22166e-18
    outer loop
      vertex 0.10738 0.4 -0.142884
      vertex 0.10738 -8.20655e-10 -0.242164
      vertex 0.10738 -9.98852e-10 -0.142884
    endloop
  endfacet
  facet normal -1 1.7949e-09 3.22165e-18
    outer loop
      vertex 0.10738 0.4 -0.242164
      vertex 0.10738 -8.20655e-10 -0.242164
      vertex 0.10738 0.4 -0.142884
    endloop
  endfacet
  facet normal 3.22165e-18 1.7949e-09 -1
    outer loop
      vertex -0.17032 0.4 -0.142884
      vertex 0.10738 -9.98852e-10 -0.142884
      vertex -0.17032 -5.00409e-10 -0.142884
    endloop
  endfacet
  facet normal 3.22165e-18 1.7949e-09 -1
    outer loop
      vertex 0.10738 0.4 -0.142884
      vertex 0.10738 -9.98852e-10 -0.142884
      vertex -0.17032 0.4 -0.142884
    endloop
  endfacet
  facet normal -1 1.7949e-09 3.22166e-18
    outer loop
      vertex -0.17032 0.4 -0.142884
      vertex -0.17032 -5.00409e-10 -0.142884
      vertex -0.17032 0.4 -0.122
    endloop
  endfacet
  facet normal 1.7949e-09 1 1.7949e-09
    outer loop
      vertex 0.13 0.4 -0.122
      vertex -0.17032 0.4 -0.142884
      vertex -0.17032 0.4 -0.122
    endloop
  endfacet
  facet normal 1.7949e-09 1 1.7949e-09
    outer loop
      vertex 0.13 0.4 -0.122
      vertex 0.10738 0.4 -0.142884
      vertex -0.17032 0.4 -0.142884
    endloop
  endfacet
  facet normal 1.7949e-09 1 1.7949e-09
    outer loop
      vertex 0.13 0.4 -0.122
      vertex 0.10738 0.4 -0.242164
      vertex 0.10738 0.4 -0.142884
    endloop
  endfacet
  facet normal 1.7949e-09 1 1.7949e-09
    outer loop
      vertex -0.17032 0.4 -0.370423
      vertex -0.17032 0.4 -0.343623
      vertex 0.10738 0.4 -0.242164
    endloop
  endfacet
  facet normal 1.7949e-09 1 1.7949e-09
    outer loop
      vertex 0.13 0.4 -0.2607
      vertex -0.17032 0.4 -0.370423
      vertex 0.10738 0.4 -0.242164
    endloop
  endfacet
  facet normal 1.7949e-09 1 1.7949e-09
    outer loop
      vertex 0.13 0.4 -0.122
      vertex 0.13 0.4 -0.2607
      vertex 0.10738 0.4 -0.242164
    endloop
  endfacet
endsolid LIGGGHTS_STL_EXPORT
