solid LIGGGHTS_STL_EXPORT
  facet normal -1.7949e-09 -1 -1.7949e-09
    outer loop
      vertex 0.33238 -9.98852e-10 -0.00788432
      vertex 0.355 -1.07694e-09 0.013
      vertex 0.05468 -5.37895e-10 0.013
    endloop
  endfacet
  facet normal -3.22165e-18 -1.7949e-09 1
    outer loop
      vertex 0.355 0.4 0.013
      vertex 0.05468 -5.37895e-10 0.013
      vertex 0.355 -1.07694e-09 0.013
    endloop
  endfacet
  facet normal -1.7949e-09 -1 -1.7949e-09
    outer loop
      vertex 0.05468 -5.00409e-10 -0.00788432
      vertex 0.33238 -9.98852e-10 -0.00788432
      vertex 0.05468 -5.37895e-10 0.013
    endloop
  endfacet
  facet normal -1 1.7949e-09 3.22166e-18
    outer loop
      vertex 0.05468 0.4 0.013
      vertex 0.05468 -5.00409e-10 -0.00788432
      vertex 0.05468 -5.37895e-10 0.013
    endloop
  endfacet
  facet normal -3.22165e-18 -1.7949e-09 1
    outer loop
      vertex 0.355 0.4 0.013
      vertex 0.05468 0.4 0.013
      vertex 0.05468 -5.37895e-10 0.013
    endloop
  endfacet
  facet normal -1.7949e-09 -1 -1.7949e-09
    outer loop
      vertex 0.33238 -9.98852e-10 -0.00788432
      vertex 0.355 -8.27986e-10 -0.1257
      vertex 0.355 -1.07694e-09 0.013
    endloop
  endfacet
  facet normal 1 -1.7949e-09 -8.03671e-16
    outer loop
      vertex 0.355 0.4 -0.1257
      vertex 0.355 -1.07694e-09 0.013
      vertex 0.355 -8.27986e-10 -0.1257
    endloop
  endfacet
  facet normal 1 -1.7949e-09 7.97228e-16
    outer loop
      vertex 0.355 0.4 0.013
      vertex 0.355 -1.07694e-09 0.013
      vertex 0.355 0.4 -0.1257
    endloop
  endfacet
  facet normal -1.7949e-09 -1 -1.7949e-09
    outer loop
      vertex 0.05468 -1.40104e-10 -0.208623
      vertex 0.05468 -9.20006e-11 -0.235423
      vertex 0.355 -8.27986e-10 -0.1257
    endloop
  endfacet
  facet normal 0.343168 1.06995e-09 -0.939274
    outer loop
      vertex 0.05468 0.4 -0.235423
      vertex 0.355 -8.27986e-10 -0.1257
      vertex 0.05468 -9.20006e-11 -0.235423
    endloop
  endfacet
  facet normal -1.7949e-09 -1 -1.7949e-09
    outer loop
      vertex 0.33238 -8.20655e-10 -0.107164
      vertex 0.05468 -1.40104e-10 -0.208623
      vertex 0.355 -8.27986e-10 -0.1257
    endloop
  endfacet
  facet normal -1.7949e-09 -1 -1.7949e-09
    outer loop
      vertex 0.33238 -9.98852e-10 -0.00788432
      vertex 0.33238 -8.20655e-10 -0.107164
      vertex 0.355 -8.27986e-10 -0.1257
    endloop
  endfacet
  facet normal 0.343168 1.06995e-09 -0.939274
    outer loop
      vertex 0.355 0.4 -0.1257
      vertex 0.355 -8.27986e-10 -0.1257
      vertex 0.05468 0.4 -0.235423
    endloop
  endfacet
  facet normal -1 1.7949e-09 3.22165e-18
    outer loop
      vertex 0.05468 0.4 -0.208623
      vertex 0.05468 -9.20006e-11 -0.235423
      vertex 0.05468 -1.40104e-10 -0.208623
    endloop
  endfacet
  facet normal -1 1.7949e-09 1.03888e-15
    outer loop
      vertex 0.05468 0.4 -0.235423
      vertex 0.05468 -9.20006e-11 -0.235423
      vertex 0.05468 0.4 -0.208623
    endloop
  endfacet
  facet normal -0.343168 -1.06995e-09 0.939274
    outer loop
      vertex 0.33238 0.4 -0.107164
      vertex 0.05468 -1.40104e-10 -0.208623
      vertex 0.33238 -8.20655e-10 -0.107164
    endloop
  endfacet
  facet normal -0.343168 -1.06995e-09 0.939274
    outer loop
      vertex 0.05468 0.4 -0.208623
      vertex 0.05468 -1.40104e-10 -0.208623
      vertex 0.33238 0.4 -0.107164
    endloop
  endfacet
  facet normal -1 1.7949e-09 3.22166e-18
    outer loop
      vertex 0.33238 0.4 -0.00788432
      vertex 0.33238 -8.20655e-10 -0.107164
      vertex 0.33238 -9.98852e-10 -0.00788432
    endloop
  endfacet
  facet normal -1 1.7949e-09 3.22165e-18
    outer loop
      vertex 0.33238 0.4 -0.107164
      vertex 0.33238 -8.20655e-10 -0.107164
      vertex 0.33238 0.4 -0.00788432
    endloop
  endfacet
  facet normal 3.22165e-18 1.7949e-09 -1
    outer loop
      vertex 0.05468 0.4 -0.00788432
      vertex 0.33238 -9.98852e-10 -0.00788432
      vertex 0.05468 -5.00409e-10 -0.00788432
    endloop
  endfacet
  facet normal 3.22165e-18 1.7949e-09 -1
    outer loop
      vertex 0.33238 0.4 -0.00788432
      vertex 0.33238 -9.98852e-10 -0.00788432
      vertex 0.05468 0.4 -0.00788432
    endloop
  endfacet
  facet normal -1 1.7949e-09 3.22166e-18
    outer loop
      vertex 0.05468 0.4 -0.00788432
      vertex 0.05468 -5.00409e-10 -0.00788432
      vertex 0.05468 0.4 0.013
    endloop
  endfacet
  facet normal 1.7949e-09 1 1.7949e-09
    outer loop
      vertex 0.355 0.4 0.013
      vertex 0.05468 0.4 -0.00788432
      vertex 0.05468 0.4 0.013
    endloop
  endfacet
  facet normal 1.7949e-09 1 1.7949e-09
    outer loop
      vertex 0.355 0.4 0.013
      vertex 0.33238 0.4 -0.00788432
      vertex 0.05468 0.4 -0.00788432
    endloop
  endfacet
  facet normal 1.7949e-09 1 1.7949e-09
    outer loop
      vertex 0.355 0.4 0.013
      vertex 0.33238 0.4 -0.107164
      vertex 0.33238 0.4 -0.00788432
    endloop
  endfacet
  facet normal 1.7949e-09 1 1.7949e-09
    outer loop
      vertex 0.05468 0.4 -0.235423
      vertex 0.05468 0.4 -0.208623
      vertex 0.33238 0.4 -0.107164
    endloop
  endfacet
  facet normal 1.7949e-09 1 1.7949e-09
    outer loop
      vertex 0.355 0.4 -0.1257
      vertex 0.05468 0.4 -0.235423
      vertex 0.33238 0.4 -0.107164
    endloop
  endfacet
  facet normal 1.7949e-09 1 1.7949e-09
    outer loop
      vertex 0.355 0.4 0.013
      vertex 0.355 0.4 -0.1257
      vertex 0.33238 0.4 -0.107164
    endloop
  endfacet
endsolid LIGGGHTS_STL_EXPORT
