solid LIGGGHTS_STL_EXPORT
  facet normal 3.18143e-10 -1 2.51835e-09
    outer loop
      vertex -0.17031 -9.98852e-10 0.0525218
      vertex -0.175383 -1.07694e-09 0.022156
      vertex 0.0619166 -5.37895e-10 0.206224
    endloop
  endfacet
  facet normal 0.612907 -1.79489e-09 -0.790155
    outer loop
      vertex -0.175383 0.4 0.022156
      vertex 0.0619166 -5.37895e-10 0.206224
      vertex -0.175383 -1.07694e-09 0.022156
    endloop
  endfacet
  facet normal 3.18142e-10 -1 2.51835e-09
    outer loop
      vertex 0.0491164 -5.00409e-10 0.222726
      vertex -0.17031 -9.98852e-10 0.0525218
      vertex 0.0619166 -5.37895e-10 0.206224
    endloop
  endfacet
  facet normal 0.790155 1.79489e-09 0.612907
    outer loop
      vertex 0.0619166 0.4 0.206224
      vertex 0.0491164 -5.00409e-10 0.222726
      vertex 0.0619166 -5.37895e-10 0.206224
    endloop
  endfacet
  facet normal 0.612907 -1.79489e-09 -0.790155
    outer loop
      vertex -0.175383 0.4 0.022156
      vertex 0.0619166 0.4 0.206224
      vertex 0.0619166 -5.37895e-10 0.206224
    endloop
  endfacet
  facet normal 3.18141e-10 -1 2.51835e-09
    outer loop
      vertex -0.17031 -9.98852e-10 0.0525218
      vertex -0.260393 -8.27986e-10 0.13175
      vertex -0.175383 -1.07694e-09 0.022156
    endloop
  endfacet
  facet normal -0.790155 -1.7949e-09 -0.612907
    outer loop
      vertex -0.260393 0.4 0.13175
      vertex -0.175383 -1.07694e-09 0.022156
      vertex -0.260393 -8.27986e-10 0.13175
    endloop
  endfacet
  facet normal -0.790155 -1.7949e-09 -0.612907
    outer loop
      vertex -0.175383 0.4 0.022156
      vertex -0.175383 -1.07694e-09 0.022156
      vertex -0.260393 0.4 0.13175
    endloop
  endfacet
  facet normal 3.18141e-10 -1 2.51835e-09
    outer loop
      vertex -0.0739178 -1.40104e-10 0.381341
      vertex -0.0903437 -9.20006e-11 0.402517
      vertex -0.260393 -8.27986e-10 0.13175
    endloop
  endfacet
  facet normal -0.846843 1.06996e-09 0.531842
    outer loop
      vertex -0.0903437 0.4 0.402517
      vertex -0.260393 -8.27986e-10 0.13175
      vertex -0.0903437 -9.20006e-11 0.402517
    endloop
  endfacet
  facet normal 3.18143e-10 -1 2.51835e-09
    outer loop
      vertex -0.231159 -8.20655e-10 0.130968
      vertex -0.0739178 -1.40104e-10 0.381341
      vertex -0.260393 -8.27986e-10 0.13175
    endloop
  endfacet
  facet normal 3.18143e-10 -1 2.51835e-09
    outer loop
      vertex -0.17031 -9.98852e-10 0.0525218
      vertex -0.231159 -8.20655e-10 0.130968
      vertex -0.260393 -8.27986e-10 0.13175
    endloop
  endfacet
  facet normal -0.846843 1.06995e-09 0.531842
    outer loop
      vertex -0.260393 0.4 0.13175
      vertex -0.260393 -8.27986e-10 0.13175
      vertex -0.0903437 0.4 0.402517
    endloop
  endfacet
  facet normal 0.790155 1.7949e-09 0.612907
    outer loop
      vertex -0.0739178 0.4 0.381341
      vertex -0.0903437 -9.20006e-11 0.402517
      vertex -0.0739178 -1.40104e-10 0.381341
    endloop
  endfacet
  facet normal 0.790155 1.79488e-09 0.612907
    outer loop
      vertex -0.0903437 0.4 0.402517
      vertex -0.0903437 -9.20006e-11 0.402517
      vertex -0.0739178 0.4 0.381341
    endloop
  endfacet
  facet normal 0.846843 -1.06996e-09 -0.531842
    outer loop
      vertex -0.231159 0.4 0.130968
      vertex -0.0739178 -1.40104e-10 0.381341
      vertex -0.231159 -8.20655e-10 0.130968
    endloop
  endfacet
  facet normal 0.846843 -1.06994e-09 -0.531842
    outer loop
      vertex -0.0739178 0.4 0.381341
      vertex -0.0739178 -1.40104e-10 0.381341
      vertex -0.231159 0.4 0.130968
    endloop
  endfacet
  facet normal 0.790155 1.79489e-09 0.612907
    outer loop
      vertex -0.17031 0.4 0.0525218
      vertex -0.231159 -8.20655e-10 0.130968
      vertex -0.17031 -9.98852e-10 0.0525218
    endloop
  endfacet
  facet normal 0.790155 1.7949e-09 0.612907
    outer loop
      vertex -0.231159 0.4 0.130968
      vertex -0.231159 -8.20655e-10 0.130968
      vertex -0.17031 0.4 0.0525218
    endloop
  endfacet
  facet normal -0.612907 1.7949e-09 0.790155
    outer loop
      vertex 0.0491164 0.4 0.222726
      vertex -0.17031 -9.98852e-10 0.0525218
      vertex 0.0491164 -5.00409e-10 0.222726
    endloop
  endfacet
  facet normal -0.612907 1.79489e-09 0.790155
    outer loop
      vertex -0.17031 0.4 0.0525218
      vertex -0.17031 -9.98852e-10 0.0525218
      vertex 0.0491164 0.4 0.222726
    endloop
  endfacet
  facet normal 0.790155 1.7949e-09 0.612907
    outer loop
      vertex 0.0491164 0.4 0.222726
      vertex 0.0491164 -5.00409e-10 0.222726
      vertex 0.0619166 0.4 0.206224
    endloop
  endfacet
  facet normal -3.18141e-10 1 -2.51835e-09
    outer loop
      vertex -0.175383 0.4 0.022156
      vertex 0.0491164 0.4 0.222726
      vertex 0.0619166 0.4 0.206224
    endloop
  endfacet
  facet normal -2.8809e-10 1 -2.55199e-09
    outer loop
      vertex -0.175383 0.4 0.022156
      vertex -0.17031 0.4 0.0525218
      vertex 0.0491164 0.4 0.222726
    endloop
  endfacet
  facet normal -3.48496e-10 1 -2.5419e-09
    outer loop
      vertex -0.175383 0.4 0.022156
      vertex -0.231159 0.4 0.130968
      vertex -0.17031 0.4 0.0525218
    endloop
  endfacet
  facet normal -3.15669e-10 1 -2.51643e-09
    outer loop
      vertex -0.0903437 0.4 0.402517
      vertex -0.0739178 0.4 0.381341
      vertex -0.231159 0.4 0.130968
    endloop
  endfacet
  facet normal -3.18059e-10 1 -2.51519e-09
    outer loop
      vertex -0.260393 0.4 0.13175
      vertex -0.0903437 0.4 0.402517
      vertex -0.231159 0.4 0.130968
    endloop
  endfacet
  facet normal -3.1836e-10 1 -2.52645e-09
    outer loop
      vertex -0.175383 0.4 0.022156
      vertex -0.260393 0.4 0.13175
      vertex -0.231159 0.4 0.130968
    endloop
  endfacet
endsolid LIGGGHTS_STL_EXPORT
