solid LIGGGHTS_STL_EXPORT
  facet normal -1.7949e-09 -1 -1.7949e-09
    outer loop
      vertex 0.31238 -9.98852e-10 -0.0198843
      vertex 0.335 -1.07694e-09 0.001
      vertex 0.03468 -5.37895e-10 0.001
    endloop
  endfacet
  facet normal -3.22165e-18 -1.7949e-09 1
    outer loop
      vertex 0.335 0.4 0.001
      vertex 0.03468 -5.37895e-10 0.001
      vertex 0.335 -1.07694e-09 0.001
    endloop
  endfacet
  facet normal -1.7949e-09 -1 -1.7949e-09
    outer loop
      vertex 0.03468 -5.00409e-10 -0.0198843
      vertex 0.31238 -9.98852e-10 -0.0198843
      vertex 0.03468 -5.37895e-10 0.001
    endloop
  endfacet
  facet normal -1 1.7949e-09 3.22166e-18
    outer loop
      vertex 0.03468 0.4 0.001
      vertex 0.03468 -5.00409e-10 -0.0198843
      vertex 0.03468 -5.37895e-10 0.001
    endloop
  endfacet
  facet normal -3.22165e-18 -1.7949e-09 1
    outer loop
      vertex 0.335 0.4 0.001
      vertex 0.03468 0.4 0.001
      vertex 0.03468 -5.37895e-10 0.001
    endloop
  endfacet
  facet normal -1.7949e-09 -1 -1.7949e-09
    outer loop
      vertex 0.31238 -9.98852e-10 -0.0198843
      vertex 0.335 -8.27986e-10 -0.1377
      vertex 0.335 -1.07694e-09 0.001
    endloop
  endfacet
  facet normal 1 -1.7949e-09 -8.03671e-16
    outer loop
      vertex 0.335 0.4 -0.1377
      vertex 0.335 -1.07694e-09 0.001
      vertex 0.335 -8.27986e-10 -0.1377
    endloop
  endfacet
  facet normal 1 -1.7949e-09 7.97228e-16
    outer loop
      vertex 0.335 0.4 0.001
      vertex 0.335 -1.07694e-09 0.001
      vertex 0.335 0.4 -0.1377
    endloop
  endfacet
  facet normal -1.7949e-09 -1 -1.7949e-09
    outer loop
      vertex 0.03468 -1.40104e-10 -0.220623
      vertex 0.03468 -9.20006e-11 -0.247423
      vertex 0.335 -8.27986e-10 -0.1377
    endloop
  endfacet
  facet normal 0.343168 1.06995e-09 -0.939274
    outer loop
      vertex 0.03468 0.4 -0.247423
      vertex 0.335 -8.27986e-10 -0.1377
      vertex 0.03468 -9.20006e-11 -0.247423
    endloop
  endfacet
  facet normal -1.7949e-09 -1 -1.7949e-09
    outer loop
      vertex 0.31238 -8.20655e-10 -0.119164
      vertex 0.03468 -1.40104e-10 -0.220623
      vertex 0.335 -8.27986e-10 -0.1377
    endloop
  endfacet
  facet normal -1.7949e-09 -1 -1.7949e-09
    outer loop
      vertex 0.31238 -9.98852e-10 -0.0198843
      vertex 0.31238 -8.20655e-10 -0.119164
      vertex 0.335 -8.27986e-10 -0.1377
    endloop
  endfacet
  facet normal 0.343168 1.06995e-09 -0.939274
    outer loop
      vertex 0.335 0.4 -0.1377
      vertex 0.335 -8.27986e-10 -0.1377
      vertex 0.03468 0.4 -0.247423
    endloop
  endfacet
  facet normal -1 1.7949e-09 3.22165e-18
    outer loop
      vertex 0.03468 0.4 -0.220623
      vertex 0.03468 -9.20006e-11 -0.247423
      vertex 0.03468 -1.40104e-10 -0.220623
    endloop
  endfacet
  facet normal -1 1.7949e-09 1.03888e-15
    outer loop
      vertex 0.03468 0.4 -0.247423
      vertex 0.03468 -9.20006e-11 -0.247423
      vertex 0.03468 0.4 -0.220623
    endloop
  endfacet
  facet normal -0.343168 -1.06995e-09 0.939274
    outer loop
      vertex 0.31238 0.4 -0.119164
      vertex 0.03468 -1.40104e-10 -0.220623
      vertex 0.31238 -8.20655e-10 -0.119164
    endloop
  endfacet
  facet normal -0.343168 -1.06995e-09 0.939274
    outer loop
      vertex 0.03468 0.4 -0.220623
      vertex 0.03468 -1.40104e-10 -0.220623
      vertex 0.31238 0.4 -0.119164
    endloop
  endfacet
  facet normal -1 1.7949e-09 3.22166e-18
    outer loop
      vertex 0.31238 0.4 -0.0198843
      vertex 0.31238 -8.20655e-10 -0.119164
      vertex 0.31238 -9.98852e-10 -0.0198843
    endloop
  endfacet
  facet normal -1 1.7949e-09 3.22165e-18
    outer loop
      vertex 0.31238 0.4 -0.119164
      vertex 0.31238 -8.20655e-10 -0.119164
      vertex 0.31238 0.4 -0.0198843
    endloop
  endfacet
  facet normal 3.22165e-18 1.7949e-09 -1
    outer loop
      vertex 0.03468 0.4 -0.0198843
      vertex 0.31238 -9.98852e-10 -0.0198843
      vertex 0.03468 -5.00409e-10 -0.0198843
    endloop
  endfacet
  facet normal 3.22165e-18 1.7949e-09 -1
    outer loop
      vertex 0.31238 0.4 -0.0198843
      vertex 0.31238 -9.98852e-10 -0.0198843
      vertex 0.03468 0.4 -0.0198843
    endloop
  endfacet
  facet normal -1 1.7949e-09 3.22166e-18
    outer loop
      vertex 0.03468 0.4 -0.0198843
      vertex 0.03468 -5.00409e-10 -0.0198843
      vertex 0.03468 0.4 0.001
    endloop
  endfacet
  facet normal 1.7949e-09 1 1.7949e-09
    outer loop
      vertex 0.335 0.4 0.001
      vertex 0.03468 0.4 -0.0198843
      vertex 0.03468 0.4 0.001
    endloop
  endfacet
  facet normal 1.7949e-09 1 1.7949e-09
    outer loop
      vertex 0.335 0.4 0.001
      vertex 0.31238 0.4 -0.0198843
      vertex 0.03468 0.4 -0.0198843
    endloop
  endfacet
  facet normal 1.7949e-09 1 1.7949e-09
    outer loop
      vertex 0.335 0.4 0.001
      vertex 0.31238 0.4 -0.119164
      vertex 0.31238 0.4 -0.0198843
    endloop
  endfacet
  facet normal 1.7949e-09 1 1.7949e-09
    outer loop
      vertex 0.03468 0.4 -0.247423
      vertex 0.03468 0.4 -0.220623
      vertex 0.31238 0.4 -0.119164
    endloop
  endfacet
  facet normal 1.7949e-09 1 1.7949e-09
    outer loop
      vertex 0.335 0.4 -0.1377
      vertex 0.03468 0.4 -0.247423
      vertex 0.31238 0.4 -0.119164
    endloop
  endfacet
  facet normal 1.7949e-09 1 1.7949e-09
    outer loop
      vertex 0.335 0.4 0.001
      vertex 0.335 0.4 -0.1377
      vertex 0.31238 0.4 -0.119164
    endloop
  endfacet
endsolid LIGGGHTS_STL_EXPORT
