solid LIGGGHTS_STL_EXPORT
  facet normal -1.7949e-09 -1 -1.7949e-09
    outer loop
      vertex 0.22738 -9.98852e-10 -0.0708843
      vertex 0.25 -1.07694e-09 -0.05
      vertex -0.05032 -5.37895e-10 -0.05
    endloop
  endfacet
  facet normal -3.22165e-18 -1.7949e-09 1
    outer loop
      vertex 0.25 0.4 -0.05
      vertex -0.05032 -5.37895e-10 -0.05
      vertex 0.25 -1.07694e-09 -0.05
    endloop
  endfacet
  facet normal -1.7949e-09 -1 -1.7949e-09
    outer loop
      vertex -0.05032 -5.00409e-10 -0.0708843
      vertex 0.22738 -9.98852e-10 -0.0708843
      vertex -0.05032 -5.37895e-10 -0.05
    endloop
  endfacet
  facet normal -1 1.7949e-09 3.22166e-18
    outer loop
      vertex -0.05032 0.4 -0.05
      vertex -0.05032 -5.00409e-10 -0.0708843
      vertex -0.05032 -5.37895e-10 -0.05
    endloop
  endfacet
  facet normal -3.22165e-18 -1.7949e-09 1
    outer loop
      vertex 0.25 0.4 -0.05
      vertex -0.05032 0.4 -0.05
      vertex -0.05032 -5.37895e-10 -0.05
    endloop
  endfacet
  facet normal -1.7949e-09 -1 -1.7949e-09
    outer loop
      vertex 0.22738 -9.98852e-10 -0.0708843
      vertex 0.25 -8.27986e-10 -0.1887
      vertex 0.25 -1.07694e-09 -0.05
    endloop
  endfacet
  facet normal 1 -1.7949e-09 -8.03671e-16
    outer loop
      vertex 0.25 0.4 -0.1887
      vertex 0.25 -1.07694e-09 -0.05
      vertex 0.25 -8.27986e-10 -0.1887
    endloop
  endfacet
  facet normal 1 -1.7949e-09 7.97228e-16
    outer loop
      vertex 0.25 0.4 -0.05
      vertex 0.25 -1.07694e-09 -0.05
      vertex 0.25 0.4 -0.1887
    endloop
  endfacet
  facet normal -1.7949e-09 -1 -1.7949e-09
    outer loop
      vertex -0.05032 -1.40104e-10 -0.271623
      vertex -0.05032 -9.20006e-11 -0.298423
      vertex 0.25 -8.27986e-10 -0.1887
    endloop
  endfacet
  facet normal 0.343168 1.06995e-09 -0.939274
    outer loop
      vertex -0.05032 0.4 -0.298423
      vertex 0.25 -8.27986e-10 -0.1887
      vertex -0.05032 -9.20006e-11 -0.298423
    endloop
  endfacet
  facet normal -1.7949e-09 -1 -1.7949e-09
    outer loop
      vertex 0.22738 -8.20655e-10 -0.170164
      vertex -0.05032 -1.40104e-10 -0.271623
      vertex 0.25 -8.27986e-10 -0.1887
    endloop
  endfacet
  facet normal -1.7949e-09 -1 -1.7949e-09
    outer loop
      vertex 0.22738 -9.98852e-10 -0.0708843
      vertex 0.22738 -8.20655e-10 -0.170164
      vertex 0.25 -8.27986e-10 -0.1887
    endloop
  endfacet
  facet normal 0.343168 1.06995e-09 -0.939274
    outer loop
      vertex 0.25 0.4 -0.1887
      vertex 0.25 -8.27986e-10 -0.1887
      vertex -0.05032 0.4 -0.298423
    endloop
  endfacet
  facet normal -1 1.7949e-09 3.22165e-18
    outer loop
      vertex -0.05032 0.4 -0.271623
      vertex -0.05032 -9.20006e-11 -0.298423
      vertex -0.05032 -1.40104e-10 -0.271623
    endloop
  endfacet
  facet normal -1 1.7949e-09 1.03888e-15
    outer loop
      vertex -0.05032 0.4 -0.298423
      vertex -0.05032 -9.20006e-11 -0.298423
      vertex -0.05032 0.4 -0.271623
    endloop
  endfacet
  facet normal -0.343168 -1.06995e-09 0.939274
    outer loop
      vertex 0.22738 0.4 -0.170164
      vertex -0.05032 -1.40104e-10 -0.271623
      vertex 0.22738 -8.20655e-10 -0.170164
    endloop
  endfacet
  facet normal -0.343168 -1.06995e-09 0.939274
    outer loop
      vertex -0.05032 0.4 -0.271623
      vertex -0.05032 -1.40104e-10 -0.271623
      vertex 0.22738 0.4 -0.170164
    endloop
  endfacet
  facet normal -1 1.7949e-09 3.22166e-18
    outer loop
      vertex 0.22738 0.4 -0.0708843
      vertex 0.22738 -8.20655e-10 -0.170164
      vertex 0.22738 -9.98852e-10 -0.0708843
    endloop
  endfacet
  facet normal -1 1.7949e-09 3.22165e-18
    outer loop
      vertex 0.22738 0.4 -0.170164
      vertex 0.22738 -8.20655e-10 -0.170164
      vertex 0.22738 0.4 -0.0708843
    endloop
  endfacet
  facet normal 3.22165e-18 1.7949e-09 -1
    outer loop
      vertex -0.05032 0.4 -0.0708843
      vertex 0.22738 -9.98852e-10 -0.0708843
      vertex -0.05032 -5.00409e-10 -0.0708843
    endloop
  endfacet
  facet normal 3.22165e-18 1.7949e-09 -1
    outer loop
      vertex 0.22738 0.4 -0.0708843
      vertex 0.22738 -9.98852e-10 -0.0708843
      vertex -0.05032 0.4 -0.0708843
    endloop
  endfacet
  facet normal -1 1.7949e-09 3.22166e-18
    outer loop
      vertex -0.05032 0.4 -0.0708843
      vertex -0.05032 -5.00409e-10 -0.0708843
      vertex -0.05032 0.4 -0.05
    endloop
  endfacet
  facet normal 1.7949e-09 1 1.7949e-09
    outer loop
      vertex 0.25 0.4 -0.05
      vertex -0.05032 0.4 -0.0708843
      vertex -0.05032 0.4 -0.05
    endloop
  endfacet
  facet normal 1.7949e-09 1 1.7949e-09
    outer loop
      vertex 0.25 0.4 -0.05
      vertex 0.22738 0.4 -0.0708843
      vertex -0.05032 0.4 -0.0708843
    endloop
  endfacet
  facet normal 1.7949e-09 1 1.7949e-09
    outer loop
      vertex 0.25 0.4 -0.05
      vertex 0.22738 0.4 -0.170164
      vertex 0.22738 0.4 -0.0708843
    endloop
  endfacet
  facet normal 1.7949e-09 1 1.7949e-09
    outer loop
      vertex -0.05032 0.4 -0.298423
      vertex -0.05032 0.4 -0.271623
      vertex 0.22738 0.4 -0.170164
    endloop
  endfacet
  facet normal 1.7949e-09 1 1.7949e-09
    outer loop
      vertex 0.25 0.4 -0.1887
      vertex -0.05032 0.4 -0.298423
      vertex 0.22738 0.4 -0.170164
    endloop
  endfacet
  facet normal 1.7949e-09 1 1.7949e-09
    outer loop
      vertex 0.25 0.4 -0.05
      vertex 0.25 0.4 -0.1887
      vertex 0.22738 0.4 -0.170164
    endloop
  endfacet
endsolid LIGGGHTS_STL_EXPORT
