solid LIGGGHTS_STL_EXPORT
  facet normal -1.7949e-09 -1 -1.7949e-09
    outer loop
      vertex 0.44738 -9.98852e-10 0.0611157
      vertex 0.47 -1.07694e-09 0.082
      vertex 0.16968 -5.37895e-10 0.082
    endloop
  endfacet
  facet normal -3.22165e-18 -1.7949e-09 1
    outer loop
      vertex 0.47 0.4 0.082
      vertex 0.16968 -5.37895e-10 0.082
      vertex 0.47 -1.07694e-09 0.082
    endloop
  endfacet
  facet normal -1.7949e-09 -1 -1.7949e-09
    outer loop
      vertex 0.16968 -5.00409e-10 0.0611157
      vertex 0.44738 -9.98852e-10 0.0611157
      vertex 0.16968 -5.37895e-10 0.082
    endloop
  endfacet
  facet normal -1 1.7949e-09 3.22166e-18
    outer loop
      vertex 0.16968 0.4 0.082
      vertex 0.16968 -5.00409e-10 0.0611157
      vertex 0.16968 -5.37895e-10 0.082
    endloop
  endfacet
  facet normal -3.22165e-18 -1.7949e-09 1
    outer loop
      vertex 0.47 0.4 0.082
      vertex 0.16968 0.4 0.082
      vertex 0.16968 -5.37895e-10 0.082
    endloop
  endfacet
  facet normal -1.7949e-09 -1 -1.7949e-09
    outer loop
      vertex 0.44738 -9.98852e-10 0.0611157
      vertex 0.47 -8.27986e-10 -0.0567
      vertex 0.47 -1.07694e-09 0.082
    endloop
  endfacet
  facet normal 1 -1.7949e-09 -8.03671e-16
    outer loop
      vertex 0.47 0.4 -0.0567
      vertex 0.47 -1.07694e-09 0.082
      vertex 0.47 -8.27986e-10 -0.0567
    endloop
  endfacet
  facet normal 1 -1.7949e-09 7.97228e-16
    outer loop
      vertex 0.47 0.4 0.082
      vertex 0.47 -1.07694e-09 0.082
      vertex 0.47 0.4 -0.0567
    endloop
  endfacet
  facet normal -1.7949e-09 -1 -1.7949e-09
    outer loop
      vertex 0.16968 -1.40104e-10 -0.139623
      vertex 0.16968 -9.20006e-11 -0.166423
      vertex 0.47 -8.27986e-10 -0.0567
    endloop
  endfacet
  facet normal 0.343168 1.06995e-09 -0.939274
    outer loop
      vertex 0.16968 0.4 -0.166423
      vertex 0.47 -8.27986e-10 -0.0567
      vertex 0.16968 -9.20006e-11 -0.166423
    endloop
  endfacet
  facet normal -1.7949e-09 -1 -1.7949e-09
    outer loop
      vertex 0.44738 -8.20655e-10 -0.0381643
      vertex 0.16968 -1.40104e-10 -0.139623
      vertex 0.47 -8.27986e-10 -0.0567
    endloop
  endfacet
  facet normal -1.7949e-09 -1 -1.7949e-09
    outer loop
      vertex 0.44738 -9.98852e-10 0.0611157
      vertex 0.44738 -8.20655e-10 -0.0381643
      vertex 0.47 -8.27986e-10 -0.0567
    endloop
  endfacet
  facet normal 0.343168 1.06995e-09 -0.939274
    outer loop
      vertex 0.47 0.4 -0.0567
      vertex 0.47 -8.27986e-10 -0.0567
      vertex 0.16968 0.4 -0.166423
    endloop
  endfacet
  facet normal -1 1.7949e-09 3.22165e-18
    outer loop
      vertex 0.16968 0.4 -0.139623
      vertex 0.16968 -9.20006e-11 -0.166423
      vertex 0.16968 -1.40104e-10 -0.139623
    endloop
  endfacet
  facet normal -1 1.7949e-09 1.03888e-15
    outer loop
      vertex 0.16968 0.4 -0.166423
      vertex 0.16968 -9.20006e-11 -0.166423
      vertex 0.16968 0.4 -0.139623
    endloop
  endfacet
  facet normal -0.343168 -1.06995e-09 0.939274
    outer loop
      vertex 0.44738 0.4 -0.0381643
      vertex 0.16968 -1.40104e-10 -0.139623
      vertex 0.44738 -8.20655e-10 -0.0381643
    endloop
  endfacet
  facet normal -0.343168 -1.06995e-09 0.939274
    outer loop
      vertex 0.16968 0.4 -0.139623
      vertex 0.16968 -1.40104e-10 -0.139623
      vertex 0.44738 0.4 -0.0381643
    endloop
  endfacet
  facet normal -1 1.7949e-09 3.22166e-18
    outer loop
      vertex 0.44738 0.4 0.0611157
      vertex 0.44738 -8.20655e-10 -0.0381643
      vertex 0.44738 -9.98852e-10 0.0611157
    endloop
  endfacet
  facet normal -1 1.7949e-09 3.22165e-18
    outer loop
      vertex 0.44738 0.4 -0.0381643
      vertex 0.44738 -8.20655e-10 -0.0381643
      vertex 0.44738 0.4 0.0611157
    endloop
  endfacet
  facet normal 3.22165e-18 1.7949e-09 -1
    outer loop
      vertex 0.16968 0.4 0.0611157
      vertex 0.44738 -9.98852e-10 0.0611157
      vertex 0.16968 -5.00409e-10 0.0611157
    endloop
  endfacet
  facet normal 3.22165e-18 1.7949e-09 -1
    outer loop
      vertex 0.44738 0.4 0.0611157
      vertex 0.44738 -9.98852e-10 0.0611157
      vertex 0.16968 0.4 0.0611157
    endloop
  endfacet
  facet normal -1 1.7949e-09 3.22166e-18
    outer loop
      vertex 0.16968 0.4 0.0611157
      vertex 0.16968 -5.00409e-10 0.0611157
      vertex 0.16968 0.4 0.082
    endloop
  endfacet
  facet normal 1.7949e-09 1 1.7949e-09
    outer loop
      vertex 0.47 0.4 0.082
      vertex 0.16968 0.4 0.0611157
      vertex 0.16968 0.4 0.082
    endloop
  endfacet
  facet normal 1.7949e-09 1 1.7949e-09
    outer loop
      vertex 0.47 0.4 0.082
      vertex 0.44738 0.4 0.0611157
      vertex 0.16968 0.4 0.0611157
    endloop
  endfacet
  facet normal 1.7949e-09 1 1.7949e-09
    outer loop
      vertex 0.47 0.4 0.082
      vertex 0.44738 0.4 -0.0381643
      vertex 0.44738 0.4 0.0611157
    endloop
  endfacet
  facet normal 1.7949e-09 1 1.7949e-09
    outer loop
      vertex 0.16968 0.4 -0.166423
      vertex 0.16968 0.4 -0.139623
      vertex 0.44738 0.4 -0.0381643
    endloop
  endfacet
  facet normal 1.7949e-09 1 1.7949e-09
    outer loop
      vertex 0.47 0.4 -0.0567
      vertex 0.16968 0.4 -0.166423
      vertex 0.44738 0.4 -0.0381643
    endloop
  endfacet
  facet normal 1.7949e-09 1 1.7949e-09
    outer loop
      vertex 0.47 0.4 0.082
      vertex 0.47 0.4 -0.0567
      vertex 0.44738 0.4 -0.0381643
    endloop
  endfacet
endsolid LIGGGHTS_STL_EXPORT
