solid LIGGGHTS_STL_EXPORT
  facet normal -1.7949e-09 -1 -1.7949e-09
    outer loop
      vertex 0.19738 -9.98852e-10 -0.0888843
      vertex 0.22 -1.07694e-09 -0.068
      vertex -0.08032 -5.37895e-10 -0.068
    endloop
  endfacet
  facet normal -3.22165e-18 -1.7949e-09 1
    outer loop
      vertex 0.22 0.4 -0.068
      vertex -0.08032 -5.37895e-10 -0.068
      vertex 0.22 -1.07694e-09 -0.068
    endloop
  endfacet
  facet normal -1.7949e-09 -1 -1.7949e-09
    outer loop
      vertex -0.08032 -5.00409e-10 -0.0888843
      vertex 0.19738 -9.98852e-10 -0.0888843
      vertex -0.08032 -5.37895e-10 -0.068
    endloop
  endfacet
  facet normal -1 1.7949e-09 3.22166e-18
    outer loop
      vertex -0.08032 0.4 -0.068
      vertex -0.08032 -5.00409e-10 -0.0888843
      vertex -0.08032 -5.37895e-10 -0.068
    endloop
  endfacet
  facet normal -3.22165e-18 -1.7949e-09 1
    outer loop
      vertex 0.22 0.4 -0.068
      vertex -0.08032 0.4 -0.068
      vertex -0.08032 -5.37895e-10 -0.068
    endloop
  endfacet
  facet normal -1.7949e-09 -1 -1.7949e-09
    outer loop
      vertex 0.19738 -9.98852e-10 -0.0888843
      vertex 0.22 -8.27986e-10 -0.2067
      vertex 0.22 -1.07694e-09 -0.068
    endloop
  endfacet
  facet normal 1 -1.7949e-09 -8.03671e-16
    outer loop
      vertex 0.22 0.4 -0.2067
      vertex 0.22 -1.07694e-09 -0.068
      vertex 0.22 -8.27986e-10 -0.2067
    endloop
  endfacet
  facet normal 1 -1.7949e-09 7.97228e-16
    outer loop
      vertex 0.22 0.4 -0.068
      vertex 0.22 -1.07694e-09 -0.068
      vertex 0.22 0.4 -0.2067
    endloop
  endfacet
  facet normal -1.7949e-09 -1 -1.7949e-09
    outer loop
      vertex -0.08032 -1.40104e-10 -0.289623
      vertex -0.08032 -9.20006e-11 -0.316423
      vertex 0.22 -8.27986e-10 -0.2067
    endloop
  endfacet
  facet normal 0.343168 1.06995e-09 -0.939274
    outer loop
      vertex -0.08032 0.4 -0.316423
      vertex 0.22 -8.27986e-10 -0.2067
      vertex -0.08032 -9.20006e-11 -0.316423
    endloop
  endfacet
  facet normal -1.7949e-09 -1 -1.7949e-09
    outer loop
      vertex 0.19738 -8.20655e-10 -0.188164
      vertex -0.08032 -1.40104e-10 -0.289623
      vertex 0.22 -8.27986e-10 -0.2067
    endloop
  endfacet
  facet normal -1.7949e-09 -1 -1.7949e-09
    outer loop
      vertex 0.19738 -9.98852e-10 -0.0888843
      vertex 0.19738 -8.20655e-10 -0.188164
      vertex 0.22 -8.27986e-10 -0.2067
    endloop
  endfacet
  facet normal 0.343168 1.06995e-09 -0.939274
    outer loop
      vertex 0.22 0.4 -0.2067
      vertex 0.22 -8.27986e-10 -0.2067
      vertex -0.08032 0.4 -0.316423
    endloop
  endfacet
  facet normal -1 1.7949e-09 3.22165e-18
    outer loop
      vertex -0.08032 0.4 -0.289623
      vertex -0.08032 -9.20006e-11 -0.316423
      vertex -0.08032 -1.40104e-10 -0.289623
    endloop
  endfacet
  facet normal -1 1.7949e-09 1.03888e-15
    outer loop
      vertex -0.08032 0.4 -0.316423
      vertex -0.08032 -9.20006e-11 -0.316423
      vertex -0.08032 0.4 -0.289623
    endloop
  endfacet
  facet normal -0.343168 -1.06995e-09 0.939274
    outer loop
      vertex 0.19738 0.4 -0.188164
      vertex -0.08032 -1.40104e-10 -0.289623
      vertex 0.19738 -8.20655e-10 -0.188164
    endloop
  endfacet
  facet normal -0.343168 -1.06995e-09 0.939274
    outer loop
      vertex -0.08032 0.4 -0.289623
      vertex -0.08032 -1.40104e-10 -0.289623
      vertex 0.19738 0.4 -0.188164
    endloop
  endfacet
  facet normal -1 1.7949e-09 3.22166e-18
    outer loop
      vertex 0.19738 0.4 -0.0888843
      vertex 0.19738 -8.20655e-10 -0.188164
      vertex 0.19738 -9.98852e-10 -0.0888843
    endloop
  endfacet
  facet normal -1 1.7949e-09 3.22165e-18
    outer loop
      vertex 0.19738 0.4 -0.188164
      vertex 0.19738 -8.20655e-10 -0.188164
      vertex 0.19738 0.4 -0.0888843
    endloop
  endfacet
  facet normal 3.22165e-18 1.7949e-09 -1
    outer loop
      vertex -0.08032 0.4 -0.0888843
      vertex 0.19738 -9.98852e-10 -0.0888843
      vertex -0.08032 -5.00409e-10 -0.0888843
    endloop
  endfacet
  facet normal 3.22165e-18 1.7949e-09 -1
    outer loop
      vertex 0.19738 0.4 -0.0888843
      vertex 0.19738 -9.98852e-10 -0.0888843
      vertex -0.08032 0.4 -0.0888843
    endloop
  endfacet
  facet normal -1 1.7949e-09 3.22166e-18
    outer loop
      vertex -0.08032 0.4 -0.0888843
      vertex -0.08032 -5.00409e-10 -0.0888843
      vertex -0.08032 0.4 -0.068
    endloop
  endfacet
  facet normal 1.7949e-09 1 1.7949e-09
    outer loop
      vertex 0.22 0.4 -0.068
      vertex -0.08032 0.4 -0.0888843
      vertex -0.08032 0.4 -0.068
    endloop
  endfacet
  facet normal 1.7949e-09 1 1.7949e-09
    outer loop
      vertex 0.22 0.4 -0.068
      vertex 0.19738 0.4 -0.0888843
      vertex -0.08032 0.4 -0.0888843
    endloop
  endfacet
  facet normal 1.7949e-09 1 1.7949e-09
    outer loop
      vertex 0.22 0.4 -0.068
      vertex 0.19738 0.4 -0.188164
      vertex 0.19738 0.4 -0.0888843
    endloop
  endfacet
  facet normal 1.7949e-09 1 1.7949e-09
    outer loop
      vertex -0.08032 0.4 -0.316423
      vertex -0.08032 0.4 -0.289623
      vertex 0.19738 0.4 -0.188164
    endloop
  endfacet
  facet normal 1.7949e-09 1 1.7949e-09
    outer loop
      vertex 0.22 0.4 -0.2067
      vertex -0.08032 0.4 -0.316423
      vertex 0.19738 0.4 -0.188164
    endloop
  endfacet
  facet normal 1.7949e-09 1 1.7949e-09
    outer loop
      vertex 0.22 0.4 -0.068
      vertex 0.22 0.4 -0.2067
      vertex 0.19738 0.4 -0.188164
    endloop
  endfacet
endsolid LIGGGHTS_STL_EXPORT
