solid LIGGGHTS_STL_EXPORT
  facet normal -1.7949e-09 -1 -1.7949e-09
    outer loop
      vertex 0.47738 -9.98852e-10 0.0791157
      vertex 0.5 -1.07694e-09 0.1
      vertex 0.19968 -5.37895e-10 0.1
    endloop
  endfacet
  facet normal -3.22165e-18 -1.7949e-09 1
    outer loop
      vertex 0.5 0.4 0.1
      vertex 0.19968 -5.37895e-10 0.1
      vertex 0.5 -1.07694e-09 0.1
    endloop
  endfacet
  facet normal -1.7949e-09 -1 -1.7949e-09
    outer loop
      vertex 0.19968 -5.00409e-10 0.0791157
      vertex 0.47738 -9.98852e-10 0.0791157
      vertex 0.19968 -5.37895e-10 0.1
    endloop
  endfacet
  facet normal -1 1.7949e-09 3.22166e-18
    outer loop
      vertex 0.19968 0.4 0.1
      vertex 0.19968 -5.00409e-10 0.0791157
      vertex 0.19968 -5.37895e-10 0.1
    endloop
  endfacet
  facet normal -3.22165e-18 -1.7949e-09 1
    outer loop
      vertex 0.5 0.4 0.1
      vertex 0.19968 0.4 0.1
      vertex 0.19968 -5.37895e-10 0.1
    endloop
  endfacet
  facet normal -1.7949e-09 -1 -1.7949e-09
    outer loop
      vertex 0.47738 -9.98852e-10 0.0791157
      vertex 0.5 -8.27986e-10 -0.0387
      vertex 0.5 -1.07694e-09 0.1
    endloop
  endfacet
  facet normal 1 -1.7949e-09 -8.03671e-16
    outer loop
      vertex 0.5 0.4 -0.0387
      vertex 0.5 -1.07694e-09 0.1
      vertex 0.5 -8.27986e-10 -0.0387
    endloop
  endfacet
  facet normal 1 -1.7949e-09 7.97228e-16
    outer loop
      vertex 0.5 0.4 0.1
      vertex 0.5 -1.07694e-09 0.1
      vertex 0.5 0.4 -0.0387
    endloop
  endfacet
  facet normal -1.7949e-09 -1 -1.7949e-09
    outer loop
      vertex 0.19968 -1.40104e-10 -0.121623
      vertex 0.19968 -9.20006e-11 -0.148423
      vertex 0.5 -8.27986e-10 -0.0387
    endloop
  endfacet
  facet normal 0.343168 1.06995e-09 -0.939274
    outer loop
      vertex 0.19968 0.4 -0.148423
      vertex 0.5 -8.27986e-10 -0.0387
      vertex 0.19968 -9.20006e-11 -0.148423
    endloop
  endfacet
  facet normal -1.7949e-09 -1 -1.7949e-09
    outer loop
      vertex 0.47738 -8.20655e-10 -0.0201643
      vertex 0.19968 -1.40104e-10 -0.121623
      vertex 0.5 -8.27986e-10 -0.0387
    endloop
  endfacet
  facet normal -1.7949e-09 -1 -1.7949e-09
    outer loop
      vertex 0.47738 -9.98852e-10 0.0791157
      vertex 0.47738 -8.20655e-10 -0.0201643
      vertex 0.5 -8.27986e-10 -0.0387
    endloop
  endfacet
  facet normal 0.343168 1.06995e-09 -0.939274
    outer loop
      vertex 0.5 0.4 -0.0387
      vertex 0.5 -8.27986e-10 -0.0387
      vertex 0.19968 0.4 -0.148423
    endloop
  endfacet
  facet normal -1 1.7949e-09 3.22165e-18
    outer loop
      vertex 0.19968 0.4 -0.121623
      vertex 0.19968 -9.20006e-11 -0.148423
      vertex 0.19968 -1.40104e-10 -0.121623
    endloop
  endfacet
  facet normal -1 1.7949e-09 1.03888e-15
    outer loop
      vertex 0.19968 0.4 -0.148423
      vertex 0.19968 -9.20006e-11 -0.148423
      vertex 0.19968 0.4 -0.121623
    endloop
  endfacet
  facet normal -0.343168 -1.06995e-09 0.939274
    outer loop
      vertex 0.47738 0.4 -0.0201643
      vertex 0.19968 -1.40104e-10 -0.121623
      vertex 0.47738 -8.20655e-10 -0.0201643
    endloop
  endfacet
  facet normal -0.343168 -1.06995e-09 0.939274
    outer loop
      vertex 0.19968 0.4 -0.121623
      vertex 0.19968 -1.40104e-10 -0.121623
      vertex 0.47738 0.4 -0.0201643
    endloop
  endfacet
  facet normal -1 1.7949e-09 3.22166e-18
    outer loop
      vertex 0.47738 0.4 0.0791157
      vertex 0.47738 -8.20655e-10 -0.0201643
      vertex 0.47738 -9.98852e-10 0.0791157
    endloop
  endfacet
  facet normal -1 1.7949e-09 3.22165e-18
    outer loop
      vertex 0.47738 0.4 -0.0201643
      vertex 0.47738 -8.20655e-10 -0.0201643
      vertex 0.47738 0.4 0.0791157
    endloop
  endfacet
  facet normal 3.22165e-18 1.7949e-09 -1
    outer loop
      vertex 0.19968 0.4 0.0791157
      vertex 0.47738 -9.98852e-10 0.0791157
      vertex 0.19968 -5.00409e-10 0.0791157
    endloop
  endfacet
  facet normal 3.22165e-18 1.7949e-09 -1
    outer loop
      vertex 0.47738 0.4 0.0791157
      vertex 0.47738 -9.98852e-10 0.0791157
      vertex 0.19968 0.4 0.0791157
    endloop
  endfacet
  facet normal -1 1.7949e-09 3.22166e-18
    outer loop
      vertex 0.19968 0.4 0.0791157
      vertex 0.19968 -5.00409e-10 0.0791157
      vertex 0.19968 0.4 0.1
    endloop
  endfacet
  facet normal 1.7949e-09 1 1.7949e-09
    outer loop
      vertex 0.5 0.4 0.1
      vertex 0.19968 0.4 0.0791157
      vertex 0.19968 0.4 0.1
    endloop
  endfacet
  facet normal 1.7949e-09 1 1.7949e-09
    outer loop
      vertex 0.5 0.4 0.1
      vertex 0.47738 0.4 0.0791157
      vertex 0.19968 0.4 0.0791157
    endloop
  endfacet
  facet normal 1.7949e-09 1 1.7949e-09
    outer loop
      vertex 0.5 0.4 0.1
      vertex 0.47738 0.4 -0.0201643
      vertex 0.47738 0.4 0.0791157
    endloop
  endfacet
  facet normal 1.7949e-09 1 1.7949e-09
    outer loop
      vertex 0.19968 0.4 -0.148423
      vertex 0.19968 0.4 -0.121623
      vertex 0.47738 0.4 -0.0201643
    endloop
  endfacet
  facet normal 1.7949e-09 1 1.7949e-09
    outer loop
      vertex 0.5 0.4 -0.0387
      vertex 0.19968 0.4 -0.148423
      vertex 0.47738 0.4 -0.0201643
    endloop
  endfacet
  facet normal 1.7949e-09 1 1.7949e-09
    outer loop
      vertex 0.5 0.4 0.1
      vertex 0.5 0.4 -0.0387
      vertex 0.47738 0.4 -0.0201643
    endloop
  endfacet
endsolid LIGGGHTS_STL_EXPORT
