solid LIGGGHTS_STL_EXPORT
  facet normal -2.09943e-09 -1 -1.42677e-09
    outer loop
      vertex 0.0732306 -9.98852e-10 -0.162484
      vertex 0.0993632 -1.07694e-09 -0.146209
      vertex -0.195637 -5.37895e-10 -0.0899342
    endloop
  endfacet
  facet normal 0.187381 -1.7949e-09 0.982287
    outer loop
      vertex 0.0993632 0.4 -0.146209
      vertex -0.195637 -5.37895e-10 -0.0899342
      vertex 0.0993632 -1.07694e-09 -0.146209
    endloop
  endfacet
  facet normal -2.09943e-09 -1 -1.42677e-09
    outer loop
      vertex -0.199551 -5.00409e-10 -0.110449
      vertex 0.0732306 -9.98852e-10 -0.162484
      vertex -0.195637 -5.37895e-10 -0.0899342
    endloop
  endfacet
  facet normal -0.982287 1.7949e-09 0.187381
    outer loop
      vertex -0.195637 0.4 -0.0899342
      vertex -0.199551 -5.00409e-10 -0.110449
      vertex -0.195637 -5.37895e-10 -0.0899342
    endloop
  endfacet
  facet normal 0.187381 -1.7949e-09 0.982287
    outer loop
      vertex 0.0993632 0.4 -0.146209
      vertex -0.195637 0.4 -0.0899342
      vertex -0.195637 -5.37895e-10 -0.0899342
    endloop
  endfacet
  facet normal -2.09943e-09 -1 -1.42677e-09
    outer loop
      vertex 0.0732306 -9.98852e-10 -0.162484
      vertex 0.0733735 -8.27986e-10 -0.282452
      vertex 0.0993632 -1.07694e-09 -0.146209
    endloop
  endfacet
  facet normal 0.982287 -1.7949e-09 -0.187381
    outer loop
      vertex 0.0733735 0.4 -0.282452
      vertex 0.0993632 -1.07694e-09 -0.146209
      vertex 0.0733735 -8.27986e-10 -0.282452
    endloop
  endfacet
  facet normal 0.982287 -1.7949e-09 -0.187381
    outer loop
      vertex 0.0993632 0.4 -0.146209
      vertex 0.0993632 -1.07694e-09 -0.146209
      vertex 0.0733735 0.4 -0.282452
    endloop
  endfacet
  facet normal -2.09943e-09 -1 -1.42677e-09
    outer loop
      vertex -0.237165 -1.40104e-10 -0.307632
      vertex -0.242187 -9.20006e-11 -0.333957
      vertex 0.0733735 -8.27986e-10 -0.282452
    endloop
  endfacet
  facet normal 0.161087 1.06995e-09 -0.98694
    outer loop
      vertex -0.242187 0.4 -0.333957
      vertex 0.0733735 -8.27986e-10 -0.282452
      vertex -0.242187 -9.20006e-11 -0.333957
    endloop
  endfacet
  facet normal -2.09943e-09 -1 -1.42677e-09
    outer loop
      vertex 0.0546274 -8.20655e-10 -0.260006
      vertex -0.237165 -1.40104e-10 -0.307632
      vertex 0.0733735 -8.27986e-10 -0.282452
    endloop
  endfacet
  facet normal -2.09944e-09 -1 -1.42677e-09
    outer loop
      vertex 0.0732306 -9.98852e-10 -0.162484
      vertex 0.0546274 -8.20655e-10 -0.260006
      vertex 0.0733735 -8.27986e-10 -0.282452
    endloop
  endfacet
  facet normal 0.161087 1.06994e-09 -0.98694
    outer loop
      vertex 0.0733735 0.4 -0.282452
      vertex 0.0733735 -8.27986e-10 -0.282452
      vertex -0.242187 0.4 -0.333957
    endloop
  endfacet
  facet normal -0.982287 1.79489e-09 0.187381
    outer loop
      vertex -0.237165 0.4 -0.307632
      vertex -0.242187 -9.20006e-11 -0.333957
      vertex -0.237165 -1.40104e-10 -0.307632
    endloop
  endfacet
  facet normal -0.982287 1.79489e-09 0.187381
    outer loop
      vertex -0.242187 0.4 -0.333957
      vertex -0.242187 -9.20006e-11 -0.333957
      vertex -0.237165 0.4 -0.307632
    endloop
  endfacet
  facet normal -0.161087 -1.06995e-09 0.98694
    outer loop
      vertex 0.0546274 0.4 -0.260006
      vertex -0.237165 -1.40104e-10 -0.307632
      vertex 0.0546274 -8.20655e-10 -0.260006
    endloop
  endfacet
  facet normal -0.161087 -1.06995e-09 0.98694
    outer loop
      vertex -0.237165 0.4 -0.307632
      vertex -0.237165 -1.40104e-10 -0.307632
      vertex 0.0546274 0.4 -0.260006
    endloop
  endfacet
  facet normal -0.982287 1.7949e-09 0.187381
    outer loop
      vertex 0.0732306 0.4 -0.162484
      vertex 0.0546274 -8.20655e-10 -0.260006
      vertex 0.0732306 -9.98852e-10 -0.162484
    endloop
  endfacet
  facet normal -0.982287 1.7949e-09 0.187381
    outer loop
      vertex 0.0546274 0.4 -0.260006
      vertex 0.0546274 -8.20655e-10 -0.260006
      vertex 0.0732306 0.4 -0.162484
    endloop
  endfacet
  facet normal -0.187381 1.7949e-09 -0.982287
    outer loop
      vertex -0.199551 0.4 -0.110449
      vertex 0.0732306 -9.98852e-10 -0.162484
      vertex -0.199551 -5.00409e-10 -0.110449
    endloop
  endfacet
  facet normal -0.187381 1.7949e-09 -0.982287
    outer loop
      vertex 0.0732306 0.4 -0.162484
      vertex 0.0732306 -9.98852e-10 -0.162484
      vertex -0.199551 0.4 -0.110449
    endloop
  endfacet
  facet normal -0.982287 1.7949e-09 0.187381
    outer loop
      vertex -0.199551 0.4 -0.110449
      vertex -0.199551 -5.00409e-10 -0.110449
      vertex -0.195637 0.4 -0.0899342
    endloop
  endfacet
  facet normal 2.09943e-09 1 1.42678e-09
    outer loop
      vertex 0.0993632 0.4 -0.146209
      vertex -0.199551 0.4 -0.110449
      vertex -0.195637 0.4 -0.0899342
    endloop
  endfacet
  facet normal 2.09976e-09 1 1.42953e-09
    outer loop
      vertex 0.0993632 0.4 -0.146209
      vertex 0.0732306 0.4 -0.162484
      vertex -0.199551 0.4 -0.110449
    endloop
  endfacet
  facet normal 2.10176e-09 1 1.42633e-09
    outer loop
      vertex 0.0993632 0.4 -0.146209
      vertex 0.0546274 0.4 -0.260006
      vertex 0.0732306 0.4 -0.162484
    endloop
  endfacet
  facet normal 2.09924e-09 1 1.42681e-09
    outer loop
      vertex -0.242187 0.4 -0.333957
      vertex -0.237165 0.4 -0.307632
      vertex 0.0546274 0.4 -0.260006
    endloop
  endfacet
  facet normal 2.09929e-09 1 1.42665e-09
    outer loop
      vertex 0.0733735 0.4 -0.282452
      vertex -0.242187 0.4 -0.333957
      vertex 0.0546274 0.4 -0.260006
    endloop
  endfacet
  facet normal 2.09982e-09 1 1.42709e-09
    outer loop
      vertex 0.0993632 0.4 -0.146209
      vertex 0.0733735 0.4 -0.282452
      vertex 0.0546274 0.4 -0.260006
    endloop
  endfacet
endsolid LIGGGHTS_STL_EXPORT
