solid LIGGGHTS_STL_EXPORT
  facet normal -1.7949e-09 -1 -1.7949e-09
    outer loop
      vertex 0.39238 -9.98852e-10 0.0281157
      vertex 0.415 -1.07694e-09 0.049
      vertex 0.11468 -5.37895e-10 0.049
    endloop
  endfacet
  facet normal -3.22165e-18 -1.7949e-09 1
    outer loop
      vertex 0.415 0.4 0.049
      vertex 0.11468 -5.37895e-10 0.049
      vertex 0.415 -1.07694e-09 0.049
    endloop
  endfacet
  facet normal -1.7949e-09 -1 -1.7949e-09
    outer loop
      vertex 0.11468 -5.00409e-10 0.0281157
      vertex 0.39238 -9.98852e-10 0.0281157
      vertex 0.11468 -5.37895e-10 0.049
    endloop
  endfacet
  facet normal -1 1.7949e-09 3.22166e-18
    outer loop
      vertex 0.11468 0.4 0.049
      vertex 0.11468 -5.00409e-10 0.0281157
      vertex 0.11468 -5.37895e-10 0.049
    endloop
  endfacet
  facet normal -3.22165e-18 -1.7949e-09 1
    outer loop
      vertex 0.415 0.4 0.049
      vertex 0.11468 0.4 0.049
      vertex 0.11468 -5.37895e-10 0.049
    endloop
  endfacet
  facet normal -1.7949e-09 -1 -1.7949e-09
    outer loop
      vertex 0.39238 -9.98852e-10 0.0281157
      vertex 0.415 -8.27986e-10 -0.0897
      vertex 0.415 -1.07694e-09 0.049
    endloop
  endfacet
  facet normal 1 -1.7949e-09 -8.03671e-16
    outer loop
      vertex 0.415 0.4 -0.0897
      vertex 0.415 -1.07694e-09 0.049
      vertex 0.415 -8.27986e-10 -0.0897
    endloop
  endfacet
  facet normal 1 -1.7949e-09 7.97228e-16
    outer loop
      vertex 0.415 0.4 0.049
      vertex 0.415 -1.07694e-09 0.049
      vertex 0.415 0.4 -0.0897
    endloop
  endfacet
  facet normal -1.7949e-09 -1 -1.7949e-09
    outer loop
      vertex 0.11468 -1.40104e-10 -0.172623
      vertex 0.11468 -9.20006e-11 -0.199423
      vertex 0.415 -8.27986e-10 -0.0897
    endloop
  endfacet
  facet normal 0.343168 1.06995e-09 -0.939274
    outer loop
      vertex 0.11468 0.4 -0.199423
      vertex 0.415 -8.27986e-10 -0.0897
      vertex 0.11468 -9.20006e-11 -0.199423
    endloop
  endfacet
  facet normal -1.7949e-09 -1 -1.7949e-09
    outer loop
      vertex 0.39238 -8.20655e-10 -0.0711643
      vertex 0.11468 -1.40104e-10 -0.172623
      vertex 0.415 -8.27986e-10 -0.0897
    endloop
  endfacet
  facet normal -1.7949e-09 -1 -1.7949e-09
    outer loop
      vertex 0.39238 -9.98852e-10 0.0281157
      vertex 0.39238 -8.20655e-10 -0.0711643
      vertex 0.415 -8.27986e-10 -0.0897
    endloop
  endfacet
  facet normal 0.343168 1.06995e-09 -0.939274
    outer loop
      vertex 0.415 0.4 -0.0897
      vertex 0.415 -8.27986e-10 -0.0897
      vertex 0.11468 0.4 -0.199423
    endloop
  endfacet
  facet normal -1 1.7949e-09 3.22165e-18
    outer loop
      vertex 0.11468 0.4 -0.172623
      vertex 0.11468 -9.20006e-11 -0.199423
      vertex 0.11468 -1.40104e-10 -0.172623
    endloop
  endfacet
  facet normal -1 1.7949e-09 1.03888e-15
    outer loop
      vertex 0.11468 0.4 -0.199423
      vertex 0.11468 -9.20006e-11 -0.199423
      vertex 0.11468 0.4 -0.172623
    endloop
  endfacet
  facet normal -0.343168 -1.06995e-09 0.939274
    outer loop
      vertex 0.39238 0.4 -0.0711643
      vertex 0.11468 -1.40104e-10 -0.172623
      vertex 0.39238 -8.20655e-10 -0.0711643
    endloop
  endfacet
  facet normal -0.343168 -1.06995e-09 0.939274
    outer loop
      vertex 0.11468 0.4 -0.172623
      vertex 0.11468 -1.40104e-10 -0.172623
      vertex 0.39238 0.4 -0.0711643
    endloop
  endfacet
  facet normal -1 1.7949e-09 3.22166e-18
    outer loop
      vertex 0.39238 0.4 0.0281157
      vertex 0.39238 -8.20655e-10 -0.0711643
      vertex 0.39238 -9.98852e-10 0.0281157
    endloop
  endfacet
  facet normal -1 1.7949e-09 3.22165e-18
    outer loop
      vertex 0.39238 0.4 -0.0711643
      vertex 0.39238 -8.20655e-10 -0.0711643
      vertex 0.39238 0.4 0.0281157
    endloop
  endfacet
  facet normal 3.22165e-18 1.7949e-09 -1
    outer loop
      vertex 0.11468 0.4 0.0281157
      vertex 0.39238 -9.98852e-10 0.0281157
      vertex 0.11468 -5.00409e-10 0.0281157
    endloop
  endfacet
  facet normal 3.22165e-18 1.7949e-09 -1
    outer loop
      vertex 0.39238 0.4 0.0281157
      vertex 0.39238 -9.98852e-10 0.0281157
      vertex 0.11468 0.4 0.0281157
    endloop
  endfacet
  facet normal -1 1.7949e-09 3.22166e-18
    outer loop
      vertex 0.11468 0.4 0.0281157
      vertex 0.11468 -5.00409e-10 0.0281157
      vertex 0.11468 0.4 0.049
    endloop
  endfacet
  facet normal 1.7949e-09 1 1.7949e-09
    outer loop
      vertex 0.415 0.4 0.049
      vertex 0.11468 0.4 0.0281157
      vertex 0.11468 0.4 0.049
    endloop
  endfacet
  facet normal 1.7949e-09 1 1.7949e-09
    outer loop
      vertex 0.415 0.4 0.049
      vertex 0.39238 0.4 0.0281157
      vertex 0.11468 0.4 0.0281157
    endloop
  endfacet
  facet normal 1.7949e-09 1 1.7949e-09
    outer loop
      vertex 0.415 0.4 0.049
      vertex 0.39238 0.4 -0.0711643
      vertex 0.39238 0.4 0.0281157
    endloop
  endfacet
  facet normal 1.7949e-09 1 1.7949e-09
    outer loop
      vertex 0.11468 0.4 -0.199423
      vertex 0.11468 0.4 -0.172623
      vertex 0.39238 0.4 -0.0711643
    endloop
  endfacet
  facet normal 1.7949e-09 1 1.7949e-09
    outer loop
      vertex 0.415 0.4 -0.0897
      vertex 0.11468 0.4 -0.199423
      vertex 0.39238 0.4 -0.0711643
    endloop
  endfacet
  facet normal 1.7949e-09 1 1.7949e-09
    outer loop
      vertex 0.415 0.4 0.049
      vertex 0.415 0.4 -0.0897
      vertex 0.39238 0.4 -0.0711643
    endloop
  endfacet
endsolid LIGGGHTS_STL_EXPORT
