solid LIGGGHTS_STL_EXPORT
  facet normal -2.05358e-09 -1 1.49202e-09
    outer loop
      vertex -0.128072 -9.98852e-10 -0.123941
      vertex -0.103907 -1.07694e-09 -0.143015
      vertex -0.150887 -5.37895e-10 0.153607
    endloop
  endfacet
  facet normal 0.987688 -1.79489e-09 0.156434
    outer loop
      vertex -0.103907 0.4 -0.143015
      vertex -0.150887 -5.37895e-10 0.153607
      vertex -0.103907 -1.07694e-09 -0.143015
    endloop
  endfacet
  facet normal -2.05358e-09 -1 1.49201e-09
    outer loop
      vertex -0.171514 -5.00409e-10 0.15034
      vertex -0.128072 -9.98852e-10 -0.123941
      vertex -0.150887 -5.37895e-10 0.153607
    endloop
  endfacet
  facet normal -0.156434 1.7949e-09 0.987688
    outer loop
      vertex -0.150887 0.4 0.153607
      vertex -0.171514 -5.00409e-10 0.15034
      vertex -0.150887 -5.37895e-10 0.153607
    endloop
  endfacet
  facet normal 0.987688 -1.7949e-09 0.156434
    outer loop
      vertex -0.103907 0.4 -0.143015
      vertex -0.150887 0.4 0.153607
      vertex -0.150887 -5.37895e-10 0.153607
    endloop
  endfacet
  facet normal -2.05358e-09 -1 1.49201e-09
    outer loop
      vertex -0.128072 -9.98852e-10 -0.123941
      vertex -0.240899 -8.27986e-10 -0.164713
      vertex -0.103907 -1.07694e-09 -0.143015
    endloop
  endfacet
  facet normal 0.156434 -1.7949e-09 -0.987688
    outer loop
      vertex -0.240899 0.4 -0.164713
      vertex -0.103907 -1.07694e-09 -0.143015
      vertex -0.240899 -8.27986e-10 -0.164713
    endloop
  endfacet
  facet normal 0.156434 -1.7949e-09 -0.987688
    outer loop
      vertex -0.103907 0.4 -0.143015
      vertex -0.103907 -1.07694e-09 -0.143015
      vertex -0.240899 0.4 -0.164713
    endloop
  endfacet
  facet normal -2.05358e-09 -1 1.49201e-09
    outer loop
      vertex -0.369782 -1.40104e-10 0.118938
      vertex -0.396252 -9.20006e-11 0.114745
      vertex -0.240899 -8.27986e-10 -0.164713
    endloop
  endfacet
  facet normal -0.874027 1.06995e-09 -0.485878
    outer loop
      vertex -0.396252 0.4 0.114745
      vertex -0.240899 -8.27986e-10 -0.164713
      vertex -0.396252 -9.20006e-11 0.114745
    endloop
  endfacet
  facet normal -2.05358e-09 -1 1.49202e-09
    outer loop
      vertex -0.22613 -8.20655e-10 -0.139472
      vertex -0.369782 -1.40104e-10 0.118938
      vertex -0.240899 -8.27986e-10 -0.164713
    endloop
  endfacet
  facet normal -2.05358e-09 -1 1.49202e-09
    outer loop
      vertex -0.128072 -9.98852e-10 -0.123941
      vertex -0.22613 -8.20655e-10 -0.139472
      vertex -0.240899 -8.27986e-10 -0.164713
    endloop
  endfacet
  facet normal -0.874027 1.06995e-09 -0.485878
    outer loop
      vertex -0.240899 0.4 -0.164713
      vertex -0.240899 -8.27986e-10 -0.164713
      vertex -0.396252 0.4 0.114745
    endloop
  endfacet
  facet normal -0.156434 1.7949e-09 0.987688
    outer loop
      vertex -0.369782 0.4 0.118938
      vertex -0.396252 -9.20006e-11 0.114745
      vertex -0.369782 -1.40104e-10 0.118938
    endloop
  endfacet
  facet normal -0.156434 1.79489e-09 0.987688
    outer loop
      vertex -0.396252 0.4 0.114745
      vertex -0.396252 -9.20006e-11 0.114745
      vertex -0.369782 0.4 0.118938
    endloop
  endfacet
  facet normal 0.874027 -1.06995e-09 0.485878
    outer loop
      vertex -0.22613 0.4 -0.139472
      vertex -0.369782 -1.40104e-10 0.118938
      vertex -0.22613 -8.20655e-10 -0.139472
    endloop
  endfacet
  facet normal 0.874027 -1.06994e-09 0.485878
    outer loop
      vertex -0.369782 0.4 0.118938
      vertex -0.369782 -1.40104e-10 0.118938
      vertex -0.22613 0.4 -0.139472
    endloop
  endfacet
  facet normal -0.156434 1.79489e-09 0.987688
    outer loop
      vertex -0.128072 0.4 -0.123941
      vertex -0.22613 -8.20655e-10 -0.139472
      vertex -0.128072 -9.98852e-10 -0.123941
    endloop
  endfacet
  facet normal -0.156434 1.7949e-09 0.987688
    outer loop
      vertex -0.22613 0.4 -0.139472
      vertex -0.22613 -8.20655e-10 -0.139472
      vertex -0.128072 0.4 -0.123941
    endloop
  endfacet
  facet normal -0.987688 1.7949e-09 -0.156434
    outer loop
      vertex -0.171514 0.4 0.15034
      vertex -0.128072 -9.98852e-10 -0.123941
      vertex -0.171514 -5.00409e-10 0.15034
    endloop
  endfacet
  facet normal -0.987688 1.7949e-09 -0.156434
    outer loop
      vertex -0.128072 0.4 -0.123941
      vertex -0.128072 -9.98852e-10 -0.123941
      vertex -0.171514 0.4 0.15034
    endloop
  endfacet
  facet normal -0.156434 1.7949e-09 0.987688
    outer loop
      vertex -0.171514 0.4 0.15034
      vertex -0.171514 -5.00409e-10 0.15034
      vertex -0.150887 0.4 0.153607
    endloop
  endfacet
  facet normal 2.05358e-09 1 -1.49201e-09
    outer loop
      vertex -0.103907 0.4 -0.143015
      vertex -0.171514 0.4 0.15034
      vertex -0.150887 0.4 0.153607
    endloop
  endfacet
  facet normal 2.07819e-09 1 -1.48634e-09
    outer loop
      vertex -0.103907 0.4 -0.143015
      vertex -0.128072 0.4 -0.123941
      vertex -0.171514 0.4 0.15034
    endloop
  endfacet
  facet normal 2.05695e-09 1 -1.51326e-09
    outer loop
      vertex -0.103907 0.4 -0.143015
      vertex -0.22613 0.4 -0.139472
      vertex -0.128072 0.4 -0.123941
    endloop
  endfacet
  facet normal 2.05331e-09 1 -1.49028e-09
    outer loop
      vertex -0.396252 0.4 0.114745
      vertex -0.369782 0.4 0.118938
      vertex -0.22613 0.4 -0.139472
    endloop
  endfacet
  facet normal 2.05206e-09 1 -1.49112e-09
    outer loop
      vertex -0.240899 0.4 -0.164713
      vertex -0.396252 0.4 0.114745
      vertex -0.22613 0.4 -0.139472
    endloop
  endfacet
  facet normal 2.0575e-09 1 -1.49431e-09
    outer loop
      vertex -0.103907 0.4 -0.143015
      vertex -0.240899 0.4 -0.164713
      vertex -0.22613 0.4 -0.139472
    endloop
  endfacet
endsolid LIGGGHTS_STL_EXPORT
