solid LIGGGHTS_STL_EXPORT
  facet normal 2.50711e-09 -1 3.97087e-10
    outer loop
      vertex 0.00292149 -9.98852e-10 0.1782
      vertex -0.027654 -1.07694e-09 0.1746
      vertex 0.21531 -5.37895e-10 -0.00192339
    endloop
  endfacet
  facet normal -0.587785 -1.79489e-09 -0.809017
    outer loop
      vertex -0.027654 0.4 0.1746
      vertex 0.21531 -5.37895e-10 -0.00192339
      vertex -0.027654 -1.07694e-09 0.1746
    endloop
  endfacet
  facet normal 2.50712e-09 -1 3.97088e-10
    outer loop
      vertex 0.227586 -5.00409e-10 0.0149724
      vertex 0.00292149 -9.98852e-10 0.1782
      vertex 0.21531 -5.37895e-10 -0.00192339
    endloop
  endfacet
  facet normal 0.809017 1.79489e-09 -0.587785
    outer loop
      vertex 0.21531 0.4 -0.00192339
      vertex 0.227586 -5.00409e-10 0.0149724
      vertex 0.21531 -5.37895e-10 -0.00192339
    endloop
  endfacet
  facet normal -0.587785 -1.79489e-09 -0.809017
    outer loop
      vertex -0.027654 0.4 0.1746
      vertex 0.21531 0.4 -0.00192339
      vertex 0.21531 -5.37895e-10 -0.00192339
    endloop
  endfacet
  facet normal 2.50711e-09 -1 3.97089e-10
    outer loop
      vertex 0.00292149 -9.98852e-10 0.1782
      vertex 0.0538718 -8.27986e-10 0.286811
      vertex -0.027654 -1.07694e-09 0.1746
    endloop
  endfacet
  facet normal -0.809017 -1.7949e-09 0.587785
    outer loop
      vertex 0.0538718 0.4 0.286811
      vertex -0.027654 -1.07694e-09 0.1746
      vertex 0.0538718 -8.27986e-10 0.286811
    endloop
  endfacet
  facet normal -0.809017 -1.7949e-09 0.587785
    outer loop
      vertex -0.027654 0.4 0.1746
      vertex -0.027654 -1.07694e-09 0.1746
      vertex 0.0538718 0.4 0.286811
    endloop
  endfacet
  facet normal 2.50712e-09 -1 3.97089e-10
    outer loop
      vertex 0.345577 -1.40104e-10 0.177374
      vertex 0.36133 -9.20006e-11 0.199055
      vertex 0.0538718 -8.27986e-10 0.286811
    endloop
  endfacet
  facet normal 0.274463 1.06997e-09 0.961598
    outer loop
      vertex 0.36133 0.4 0.199055
      vertex 0.0538718 -8.27986e-10 0.286811
      vertex 0.36133 -9.20006e-11 0.199055
    endloop
  endfacet
  facet normal 2.50712e-09 -1 3.97087e-10
    outer loop
      vertex 0.0612768 -8.20655e-10 0.25852
      vertex 0.345577 -1.40104e-10 0.177374
      vertex 0.0538718 -8.27986e-10 0.286811
    endloop
  endfacet
  facet normal 2.50712e-09 -1 3.97087e-10
    outer loop
      vertex 0.00292149 -9.98852e-10 0.1782
      vertex 0.0612768 -8.20655e-10 0.25852
      vertex 0.0538718 -8.27986e-10 0.286811
    endloop
  endfacet
  facet normal 0.274463 1.06996e-09 0.961598
    outer loop
      vertex 0.0538718 0.4 0.286811
      vertex 0.0538718 -8.27986e-10 0.286811
      vertex 0.36133 0.4 0.199055
    endloop
  endfacet
  facet normal 0.809017 1.7949e-09 -0.587785
    outer loop
      vertex 0.345577 0.4 0.177374
      vertex 0.36133 -9.20006e-11 0.199055
      vertex 0.345577 -1.40104e-10 0.177374
    endloop
  endfacet
  facet normal 0.809017 1.79488e-09 -0.587785
    outer loop
      vertex 0.36133 0.4 0.199055
      vertex 0.36133 -9.20006e-11 0.199055
      vertex 0.345577 0.4 0.177374
    endloop
  endfacet
  facet normal -0.274463 -1.06996e-09 -0.961598
    outer loop
      vertex 0.0612768 0.4 0.25852
      vertex 0.345577 -1.40104e-10 0.177374
      vertex 0.0612768 -8.20655e-10 0.25852
    endloop
  endfacet
  facet normal -0.274463 -1.06993e-09 -0.961598
    outer loop
      vertex 0.345577 0.4 0.177374
      vertex 0.345577 -1.40104e-10 0.177374
      vertex 0.0612768 0.4 0.25852
    endloop
  endfacet
  facet normal 0.809017 1.79489e-09 -0.587785
    outer loop
      vertex 0.00292149 0.4 0.1782
      vertex 0.0612768 -8.20655e-10 0.25852
      vertex 0.00292149 -9.98852e-10 0.1782
    endloop
  endfacet
  facet normal 0.809017 1.7949e-09 -0.587785
    outer loop
      vertex 0.0612768 0.4 0.25852
      vertex 0.0612768 -8.20655e-10 0.25852
      vertex 0.00292149 0.4 0.1782
    endloop
  endfacet
  facet normal 0.587785 1.79491e-09 0.809017
    outer loop
      vertex 0.227586 0.4 0.0149724
      vertex 0.00292149 -9.98852e-10 0.1782
      vertex 0.227586 -5.00409e-10 0.0149724
    endloop
  endfacet
  facet normal 0.587785 1.7949e-09 0.809017
    outer loop
      vertex 0.00292149 0.4 0.1782
      vertex 0.00292149 -9.98852e-10 0.1782
      vertex 0.227586 0.4 0.0149724
    endloop
  endfacet
  facet normal 0.809017 1.7949e-09 -0.587785
    outer loop
      vertex 0.227586 0.4 0.0149724
      vertex 0.227586 -5.00409e-10 0.0149724
      vertex 0.21531 0.4 -0.00192339
    endloop
  endfacet
  facet normal -2.50712e-09 1 -3.9709e-10
    outer loop
      vertex -0.027654 0.4 0.1746
      vertex 0.227586 0.4 0.0149724
      vertex 0.21531 0.4 -0.00192339
    endloop
  endfacet
  facet normal -2.54377e-09 1 -4.55692e-10
    outer loop
      vertex -0.027654 0.4 0.1746
      vertex 0.00292149 0.4 0.1782
      vertex 0.227586 0.4 0.0149724
    endloop
  endfacet
  facet normal -2.55474e-09 1 -3.62486e-10
    outer loop
      vertex -0.027654 0.4 0.1746
      vertex 0.0612768 0.4 0.25852
      vertex 0.00292149 0.4 0.1782
    endloop
  endfacet
  facet normal -2.50324e-09 1 -3.99907e-10
    outer loop
      vertex 0.36133 0.4 0.199055
      vertex 0.345577 0.4 0.177374
      vertex 0.0612768 0.4 0.25852
    endloop
  endfacet
  facet normal -2.50243e-09 1 -3.95862e-10
    outer loop
      vertex 0.0538718 0.4 0.286811
      vertex 0.36133 0.4 0.199055
      vertex 0.0612768 0.4 0.25852
    endloop
  endfacet
  facet normal -2.51912e-09 1 -4.0023e-10
    outer loop
      vertex -0.027654 0.4 0.1746
      vertex 0.0538718 0.4 0.286811
      vertex 0.0612768 0.4 0.25852
    endloop
  endfacet
endsolid LIGGGHTS_STL_EXPORT
