solid LIGGGHTS_STL_EXPORT
  facet normal -1.7949e-09 -1 -1.7949e-09
    outer loop
      vertex 0.12238 -9.98852e-10 -0.133884
      vertex 0.145 -1.07694e-09 -0.113
      vertex -0.15532 -5.37895e-10 -0.113
    endloop
  endfacet
  facet normal -3.22165e-18 -1.7949e-09 1
    outer loop
      vertex 0.145 0.4 -0.113
      vertex -0.15532 -5.37895e-10 -0.113
      vertex 0.145 -1.07694e-09 -0.113
    endloop
  endfacet
  facet normal -1.7949e-09 -1 -1.7949e-09
    outer loop
      vertex -0.15532 -5.00409e-10 -0.133884
      vertex 0.12238 -9.98852e-10 -0.133884
      vertex -0.15532 -5.37895e-10 -0.113
    endloop
  endfacet
  facet normal -1 1.7949e-09 3.22166e-18
    outer loop
      vertex -0.15532 0.4 -0.113
      vertex -0.15532 -5.00409e-10 -0.133884
      vertex -0.15532 -5.37895e-10 -0.113
    endloop
  endfacet
  facet normal -3.22165e-18 -1.7949e-09 1
    outer loop
      vertex 0.145 0.4 -0.113
      vertex -0.15532 0.4 -0.113
      vertex -0.15532 -5.37895e-10 -0.113
    endloop
  endfacet
  facet normal -1.7949e-09 -1 -1.7949e-09
    outer loop
      vertex 0.12238 -9.98852e-10 -0.133884
      vertex 0.145 -8.27986e-10 -0.2517
      vertex 0.145 -1.07694e-09 -0.113
    endloop
  endfacet
  facet normal 1 -1.7949e-09 -8.03671e-16
    outer loop
      vertex 0.145 0.4 -0.2517
      vertex 0.145 -1.07694e-09 -0.113
      vertex 0.145 -8.27986e-10 -0.2517
    endloop
  endfacet
  facet normal 1 -1.7949e-09 7.97228e-16
    outer loop
      vertex 0.145 0.4 -0.113
      vertex 0.145 -1.07694e-09 -0.113
      vertex 0.145 0.4 -0.2517
    endloop
  endfacet
  facet normal -1.7949e-09 -1 -1.7949e-09
    outer loop
      vertex -0.15532 -1.40104e-10 -0.334623
      vertex -0.15532 -9.20006e-11 -0.361423
      vertex 0.145 -8.27986e-10 -0.2517
    endloop
  endfacet
  facet normal 0.343168 1.06995e-09 -0.939274
    outer loop
      vertex -0.15532 0.4 -0.361423
      vertex 0.145 -8.27986e-10 -0.2517
      vertex -0.15532 -9.20006e-11 -0.361423
    endloop
  endfacet
  facet normal -1.7949e-09 -1 -1.7949e-09
    outer loop
      vertex 0.12238 -8.20655e-10 -0.233164
      vertex -0.15532 -1.40104e-10 -0.334623
      vertex 0.145 -8.27986e-10 -0.2517
    endloop
  endfacet
  facet normal -1.7949e-09 -1 -1.7949e-09
    outer loop
      vertex 0.12238 -9.98852e-10 -0.133884
      vertex 0.12238 -8.20655e-10 -0.233164
      vertex 0.145 -8.27986e-10 -0.2517
    endloop
  endfacet
  facet normal 0.343168 1.06995e-09 -0.939274
    outer loop
      vertex 0.145 0.4 -0.2517
      vertex 0.145 -8.27986e-10 -0.2517
      vertex -0.15532 0.4 -0.361423
    endloop
  endfacet
  facet normal -1 1.7949e-09 3.22165e-18
    outer loop
      vertex -0.15532 0.4 -0.334623
      vertex -0.15532 -9.20006e-11 -0.361423
      vertex -0.15532 -1.40104e-10 -0.334623
    endloop
  endfacet
  facet normal -1 1.7949e-09 1.03888e-15
    outer loop
      vertex -0.15532 0.4 -0.361423
      vertex -0.15532 -9.20006e-11 -0.361423
      vertex -0.15532 0.4 -0.334623
    endloop
  endfacet
  facet normal -0.343168 -1.06995e-09 0.939274
    outer loop
      vertex 0.12238 0.4 -0.233164
      vertex -0.15532 -1.40104e-10 -0.334623
      vertex 0.12238 -8.20655e-10 -0.233164
    endloop
  endfacet
  facet normal -0.343168 -1.06995e-09 0.939274
    outer loop
      vertex -0.15532 0.4 -0.334623
      vertex -0.15532 -1.40104e-10 -0.334623
      vertex 0.12238 0.4 -0.233164
    endloop
  endfacet
  facet normal -1 1.7949e-09 3.22166e-18
    outer loop
      vertex 0.12238 0.4 -0.133884
      vertex 0.12238 -8.20655e-10 -0.233164
      vertex 0.12238 -9.98852e-10 -0.133884
    endloop
  endfacet
  facet normal -1 1.7949e-09 3.22165e-18
    outer loop
      vertex 0.12238 0.4 -0.233164
      vertex 0.12238 -8.20655e-10 -0.233164
      vertex 0.12238 0.4 -0.133884
    endloop
  endfacet
  facet normal 3.22165e-18 1.7949e-09 -1
    outer loop
      vertex -0.15532 0.4 -0.133884
      vertex 0.12238 -9.98852e-10 -0.133884
      vertex -0.15532 -5.00409e-10 -0.133884
    endloop
  endfacet
  facet normal 3.22165e-18 1.7949e-09 -1
    outer loop
      vertex 0.12238 0.4 -0.133884
      vertex 0.12238 -9.98852e-10 -0.133884
      vertex -0.15532 0.4 -0.133884
    endloop
  endfacet
  facet normal -1 1.7949e-09 3.22166e-18
    outer loop
      vertex -0.15532 0.4 -0.133884
      vertex -0.15532 -5.00409e-10 -0.133884
      vertex -0.15532 0.4 -0.113
    endloop
  endfacet
  facet normal 1.7949e-09 1 1.7949e-09
    outer loop
      vertex 0.145 0.4 -0.113
      vertex -0.15532 0.4 -0.133884
      vertex -0.15532 0.4 -0.113
    endloop
  endfacet
  facet normal 1.7949e-09 1 1.7949e-09
    outer loop
      vertex 0.145 0.4 -0.113
      vertex 0.12238 0.4 -0.133884
      vertex -0.15532 0.4 -0.133884
    endloop
  endfacet
  facet normal 1.7949e-09 1 1.7949e-09
    outer loop
      vertex 0.145 0.4 -0.113
      vertex 0.12238 0.4 -0.233164
      vertex 0.12238 0.4 -0.133884
    endloop
  endfacet
  facet normal 1.7949e-09 1 1.7949e-09
    outer loop
      vertex -0.15532 0.4 -0.361423
      vertex -0.15532 0.4 -0.334623
      vertex 0.12238 0.4 -0.233164
    endloop
  endfacet
  facet normal 1.7949e-09 1 1.7949e-09
    outer loop
      vertex 0.145 0.4 -0.2517
      vertex -0.15532 0.4 -0.361423
      vertex 0.12238 0.4 -0.233164
    endloop
  endfacet
  facet normal 1.7949e-09 1 1.7949e-09
    outer loop
      vertex 0.145 0.4 -0.113
      vertex 0.145 0.4 -0.2517
      vertex 0.12238 0.4 -0.233164
    endloop
  endfacet
endsolid LIGGGHTS_STL_EXPORT
