solid LIGGGHTS_STL_EXPORT
  facet normal -1.7949e-09 -1 -1.7949e-09
    outer loop
      vertex 0.25238 -9.98852e-10 -0.0558843
      vertex 0.275 -1.07694e-09 -0.035
      vertex -0.02532 -5.37895e-10 -0.035
    endloop
  endfacet
  facet normal -3.22165e-18 -1.7949e-09 1
    outer loop
      vertex 0.275 0.4 -0.035
      vertex -0.02532 -5.37895e-10 -0.035
      vertex 0.275 -1.07694e-09 -0.035
    endloop
  endfacet
  facet normal -1.7949e-09 -1 -1.7949e-09
    outer loop
      vertex -0.02532 -5.00409e-10 -0.0558843
      vertex 0.25238 -9.98852e-10 -0.0558843
      vertex -0.02532 -5.37895e-10 -0.035
    endloop
  endfacet
  facet normal -1 1.7949e-09 3.22166e-18
    outer loop
      vertex -0.02532 0.4 -0.035
      vertex -0.02532 -5.00409e-10 -0.0558843
      vertex -0.02532 -5.37895e-10 -0.035
    endloop
  endfacet
  facet normal -3.22165e-18 -1.7949e-09 1
    outer loop
      vertex 0.275 0.4 -0.035
      vertex -0.02532 0.4 -0.035
      vertex -0.02532 -5.37895e-10 -0.035
    endloop
  endfacet
  facet normal -1.7949e-09 -1 -1.7949e-09
    outer loop
      vertex 0.25238 -9.98852e-10 -0.0558843
      vertex 0.275 -8.27986e-10 -0.1737
      vertex 0.275 -1.07694e-09 -0.035
    endloop
  endfacet
  facet normal 1 -1.7949e-09 -8.03671e-16
    outer loop
      vertex 0.275 0.4 -0.1737
      vertex 0.275 -1.07694e-09 -0.035
      vertex 0.275 -8.27986e-10 -0.1737
    endloop
  endfacet
  facet normal 1 -1.7949e-09 7.97228e-16
    outer loop
      vertex 0.275 0.4 -0.035
      vertex 0.275 -1.07694e-09 -0.035
      vertex 0.275 0.4 -0.1737
    endloop
  endfacet
  facet normal -1.7949e-09 -1 -1.7949e-09
    outer loop
      vertex -0.02532 -1.40104e-10 -0.256623
      vertex -0.02532 -9.20006e-11 -0.283423
      vertex 0.275 -8.27986e-10 -0.1737
    endloop
  endfacet
  facet normal 0.343168 1.06995e-09 -0.939274
    outer loop
      vertex -0.02532 0.4 -0.283423
      vertex 0.275 -8.27986e-10 -0.1737
      vertex -0.02532 -9.20006e-11 -0.283423
    endloop
  endfacet
  facet normal -1.7949e-09 -1 -1.7949e-09
    outer loop
      vertex 0.25238 -8.20655e-10 -0.155164
      vertex -0.02532 -1.40104e-10 -0.256623
      vertex 0.275 -8.27986e-10 -0.1737
    endloop
  endfacet
  facet normal -1.7949e-09 -1 -1.7949e-09
    outer loop
      vertex 0.25238 -9.98852e-10 -0.0558843
      vertex 0.25238 -8.20655e-10 -0.155164
      vertex 0.275 -8.27986e-10 -0.1737
    endloop
  endfacet
  facet normal 0.343168 1.06995e-09 -0.939274
    outer loop
      vertex 0.275 0.4 -0.1737
      vertex 0.275 -8.27986e-10 -0.1737
      vertex -0.02532 0.4 -0.283423
    endloop
  endfacet
  facet normal -1 1.7949e-09 3.22165e-18
    outer loop
      vertex -0.02532 0.4 -0.256623
      vertex -0.02532 -9.20006e-11 -0.283423
      vertex -0.02532 -1.40104e-10 -0.256623
    endloop
  endfacet
  facet normal -1 1.7949e-09 1.03888e-15
    outer loop
      vertex -0.02532 0.4 -0.283423
      vertex -0.02532 -9.20006e-11 -0.283423
      vertex -0.02532 0.4 -0.256623
    endloop
  endfacet
  facet normal -0.343168 -1.06995e-09 0.939274
    outer loop
      vertex 0.25238 0.4 -0.155164
      vertex -0.02532 -1.40104e-10 -0.256623
      vertex 0.25238 -8.20655e-10 -0.155164
    endloop
  endfacet
  facet normal -0.343168 -1.06995e-09 0.939274
    outer loop
      vertex -0.02532 0.4 -0.256623
      vertex -0.02532 -1.40104e-10 -0.256623
      vertex 0.25238 0.4 -0.155164
    endloop
  endfacet
  facet normal -1 1.7949e-09 3.22166e-18
    outer loop
      vertex 0.25238 0.4 -0.0558843
      vertex 0.25238 -8.20655e-10 -0.155164
      vertex 0.25238 -9.98852e-10 -0.0558843
    endloop
  endfacet
  facet normal -1 1.7949e-09 3.22165e-18
    outer loop
      vertex 0.25238 0.4 -0.155164
      vertex 0.25238 -8.20655e-10 -0.155164
      vertex 0.25238 0.4 -0.0558843
    endloop
  endfacet
  facet normal 3.22165e-18 1.7949e-09 -1
    outer loop
      vertex -0.02532 0.4 -0.0558843
      vertex 0.25238 -9.98852e-10 -0.0558843
      vertex -0.02532 -5.00409e-10 -0.0558843
    endloop
  endfacet
  facet normal 3.22165e-18 1.7949e-09 -1
    outer loop
      vertex 0.25238 0.4 -0.0558843
      vertex 0.25238 -9.98852e-10 -0.0558843
      vertex -0.02532 0.4 -0.0558843
    endloop
  endfacet
  facet normal -1 1.7949e-09 3.22166e-18
    outer loop
      vertex -0.02532 0.4 -0.0558843
      vertex -0.02532 -5.00409e-10 -0.0558843
      vertex -0.02532 0.4 -0.035
    endloop
  endfacet
  facet normal 1.7949e-09 1 1.7949e-09
    outer loop
      vertex 0.275 0.4 -0.035
      vertex -0.02532 0.4 -0.0558843
      vertex -0.02532 0.4 -0.035
    endloop
  endfacet
  facet normal 1.7949e-09 1 1.7949e-09
    outer loop
      vertex 0.275 0.4 -0.035
      vertex 0.25238 0.4 -0.0558843
      vertex -0.02532 0.4 -0.0558843
    endloop
  endfacet
  facet normal 1.7949e-09 1 1.7949e-09
    outer loop
      vertex 0.275 0.4 -0.035
      vertex 0.25238 0.4 -0.155164
      vertex 0.25238 0.4 -0.0558843
    endloop
  endfacet
  facet normal 1.7949e-09 1 1.7949e-09
    outer loop
      vertex -0.02532 0.4 -0.283423
      vertex -0.02532 0.4 -0.256623
      vertex 0.25238 0.4 -0.155164
    endloop
  endfacet
  facet normal 1.7949e-09 1 1.7949e-09
    outer loop
      vertex 0.275 0.4 -0.1737
      vertex -0.02532 0.4 -0.283423
      vertex 0.25238 0.4 -0.155164
    endloop
  endfacet
  facet normal 1.7949e-09 1 1.7949e-09
    outer loop
      vertex 0.275 0.4 -0.035
      vertex 0.275 0.4 -0.1737
      vertex 0.25238 0.4 -0.155164
    endloop
  endfacet
endsolid LIGGGHTS_STL_EXPORT
