solid LIGGGHTS_STL_EXPORT
  facet normal -1.7949e-09 -1 -1.7949e-09
    outer loop
      vertex 0.29738 -9.98852e-10 -0.0288843
      vertex 0.32 -1.07694e-09 -0.008
      vertex 0.01968 -5.37895e-10 -0.008
    endloop
  endfacet
  facet normal -3.22165e-18 -1.7949e-09 1
    outer loop
      vertex 0.32 0.4 -0.008
      vertex 0.01968 -5.37895e-10 -0.008
      vertex 0.32 -1.07694e-09 -0.008
    endloop
  endfacet
  facet normal -1.7949e-09 -1 -1.7949e-09
    outer loop
      vertex 0.01968 -5.00409e-10 -0.0288843
      vertex 0.29738 -9.98852e-10 -0.0288843
      vertex 0.01968 -5.37895e-10 -0.008
    endloop
  endfacet
  facet normal -1 1.7949e-09 3.22166e-18
    outer loop
      vertex 0.01968 0.4 -0.008
      vertex 0.01968 -5.00409e-10 -0.0288843
      vertex 0.01968 -5.37895e-10 -0.008
    endloop
  endfacet
  facet normal -3.22165e-18 -1.7949e-09 1
    outer loop
      vertex 0.32 0.4 -0.008
      vertex 0.01968 0.4 -0.008
      vertex 0.01968 -5.37895e-10 -0.008
    endloop
  endfacet
  facet normal -1.7949e-09 -1 -1.7949e-09
    outer loop
      vertex 0.29738 -9.98852e-10 -0.0288843
      vertex 0.32 -8.27986e-10 -0.1467
      vertex 0.32 -1.07694e-09 -0.008
    endloop
  endfacet
  facet normal 1 -1.7949e-09 -8.03671e-16
    outer loop
      vertex 0.32 0.4 -0.1467
      vertex 0.32 -1.07694e-09 -0.008
      vertex 0.32 -8.27986e-10 -0.1467
    endloop
  endfacet
  facet normal 1 -1.7949e-09 7.97228e-16
    outer loop
      vertex 0.32 0.4 -0.008
      vertex 0.32 -1.07694e-09 -0.008
      vertex 0.32 0.4 -0.1467
    endloop
  endfacet
  facet normal -1.7949e-09 -1 -1.7949e-09
    outer loop
      vertex 0.01968 -1.40104e-10 -0.229623
      vertex 0.01968 -9.20006e-11 -0.256423
      vertex 0.32 -8.27986e-10 -0.1467
    endloop
  endfacet
  facet normal 0.343168 1.06995e-09 -0.939274
    outer loop
      vertex 0.01968 0.4 -0.256423
      vertex 0.32 -8.27986e-10 -0.1467
      vertex 0.01968 -9.20006e-11 -0.256423
    endloop
  endfacet
  facet normal -1.7949e-09 -1 -1.7949e-09
    outer loop
      vertex 0.29738 -8.20655e-10 -0.128164
      vertex 0.01968 -1.40104e-10 -0.229623
      vertex 0.32 -8.27986e-10 -0.1467
    endloop
  endfacet
  facet normal -1.7949e-09 -1 -1.7949e-09
    outer loop
      vertex 0.29738 -9.98852e-10 -0.0288843
      vertex 0.29738 -8.20655e-10 -0.128164
      vertex 0.32 -8.27986e-10 -0.1467
    endloop
  endfacet
  facet normal 0.343168 1.06995e-09 -0.939274
    outer loop
      vertex 0.32 0.4 -0.1467
      vertex 0.32 -8.27986e-10 -0.1467
      vertex 0.01968 0.4 -0.256423
    endloop
  endfacet
  facet normal -1 1.7949e-09 3.22165e-18
    outer loop
      vertex 0.01968 0.4 -0.229623
      vertex 0.01968 -9.20006e-11 -0.256423
      vertex 0.01968 -1.40104e-10 -0.229623
    endloop
  endfacet
  facet normal -1 1.7949e-09 1.03888e-15
    outer loop
      vertex 0.01968 0.4 -0.256423
      vertex 0.01968 -9.20006e-11 -0.256423
      vertex 0.01968 0.4 -0.229623
    endloop
  endfacet
  facet normal -0.343168 -1.06995e-09 0.939274
    outer loop
      vertex 0.29738 0.4 -0.128164
      vertex 0.01968 -1.40104e-10 -0.229623
      vertex 0.29738 -8.20655e-10 -0.128164
    endloop
  endfacet
  facet normal -0.343168 -1.06995e-09 0.939274
    outer loop
      vertex 0.01968 0.4 -0.229623
      vertex 0.01968 -1.40104e-10 -0.229623
      vertex 0.29738 0.4 -0.128164
    endloop
  endfacet
  facet normal -1 1.7949e-09 3.22166e-18
    outer loop
      vertex 0.29738 0.4 -0.0288843
      vertex 0.29738 -8.20655e-10 -0.128164
      vertex 0.29738 -9.98852e-10 -0.0288843
    endloop
  endfacet
  facet normal -1 1.7949e-09 3.22165e-18
    outer loop
      vertex 0.29738 0.4 -0.128164
      vertex 0.29738 -8.20655e-10 -0.128164
      vertex 0.29738 0.4 -0.0288843
    endloop
  endfacet
  facet normal 3.22165e-18 1.7949e-09 -1
    outer loop
      vertex 0.01968 0.4 -0.0288843
      vertex 0.29738 -9.98852e-10 -0.0288843
      vertex 0.01968 -5.00409e-10 -0.0288843
    endloop
  endfacet
  facet normal 3.22165e-18 1.7949e-09 -1
    outer loop
      vertex 0.29738 0.4 -0.0288843
      vertex 0.29738 -9.98852e-10 -0.0288843
      vertex 0.01968 0.4 -0.0288843
    endloop
  endfacet
  facet normal -1 1.7949e-09 3.22166e-18
    outer loop
      vertex 0.01968 0.4 -0.0288843
      vertex 0.01968 -5.00409e-10 -0.0288843
      vertex 0.01968 0.4 -0.008
    endloop
  endfacet
  facet normal 1.7949e-09 1 1.7949e-09
    outer loop
      vertex 0.32 0.4 -0.008
      vertex 0.01968 0.4 -0.0288843
      vertex 0.01968 0.4 -0.008
    endloop
  endfacet
  facet normal 1.7949e-09 1 1.7949e-09
    outer loop
      vertex 0.32 0.4 -0.008
      vertex 0.29738 0.4 -0.0288843
      vertex 0.01968 0.4 -0.0288843
    endloop
  endfacet
  facet normal 1.7949e-09 1 1.7949e-09
    outer loop
      vertex 0.32 0.4 -0.008
      vertex 0.29738 0.4 -0.128164
      vertex 0.29738 0.4 -0.0288843
    endloop
  endfacet
  facet normal 1.7949e-09 1 1.7949e-09
    outer loop
      vertex 0.01968 0.4 -0.256423
      vertex 0.01968 0.4 -0.229623
      vertex 0.29738 0.4 -0.128164
    endloop
  endfacet
  facet normal 1.7949e-09 1 1.7949e-09
    outer loop
      vertex 0.32 0.4 -0.1467
      vertex 0.01968 0.4 -0.256423
      vertex 0.29738 0.4 -0.128164
    endloop
  endfacet
  facet normal 1.7949e-09 1 1.7949e-09
    outer loop
      vertex 0.32 0.4 -0.008
      vertex 0.32 0.4 -0.1467
      vertex 0.29738 0.4 -0.128164
    endloop
  endfacet
endsolid LIGGGHTS_STL_EXPORT
