solid LIGGGHTS_STL_EXPORT
  facet normal -2.18488e-09 -1 -1.29213e-09
    outer loop
      vertex 0.0628836 -9.98852e-10 -0.166762
      vertex 0.0899867 -1.07694e-09 -0.152159
      vertex -0.200898 -5.37895e-10 -0.0774726
    endloop
  endfacet
  facet normal 0.24869 -1.7949e-09 0.968583
    outer loop
      vertex 0.0899867 0.4 -0.152159
      vertex -0.200898 -5.37895e-10 -0.0774726
      vertex 0.0899867 -1.07694e-09 -0.152159
    endloop
  endfacet
  facet normal -2.18488e-09 -1 -1.29213e-09
    outer loop
      vertex -0.206092 -5.00409e-10 -0.0977008
      vertex 0.0628836 -9.98852e-10 -0.166762
      vertex -0.200898 -5.37895e-10 -0.0774726
    endloop
  endfacet
  facet normal -0.968583 1.7949e-09 0.24869
    outer loop
      vertex -0.200898 0.4 -0.0774726
      vertex -0.206092 -5.00409e-10 -0.0977008
      vertex -0.200898 -5.37895e-10 -0.0774726
    endloop
  endfacet
  facet normal 0.24869 -1.7949e-09 0.968583
    outer loop
      vertex 0.0899867 0.4 -0.152159
      vertex -0.200898 0.4 -0.0774726
      vertex -0.200898 -5.37895e-10 -0.0774726
    endloop
  endfacet
  facet normal -2.18488e-09 -1 -1.29213e-09
    outer loop
      vertex 0.0628836 -9.98852e-10 -0.166762
      vertex 0.0554934 -8.27986e-10 -0.286502
      vertex 0.0899867 -1.07694e-09 -0.152159
    endloop
  endfacet
  facet normal 0.968583 -1.7949e-09 -0.24869
    outer loop
      vertex 0.0554934 0.4 -0.286502
      vertex 0.0899867 -1.07694e-09 -0.152159
      vertex 0.0554934 -8.27986e-10 -0.286502
    endloop
  endfacet
  facet normal 0.968583 -1.7949e-09 -0.24869
    outer loop
      vertex 0.0899867 0.4 -0.152159
      vertex 0.0899867 -1.07694e-09 -0.152159
      vertex 0.0554934 0.4 -0.286502
    endloop
  endfacet
  facet normal -2.18488e-09 -1 -1.29213e-09
    outer loop
      vertex -0.256014 -1.40104e-10 -0.292133
      vertex -0.262679 -9.20006e-11 -0.318091
      vertex 0.0554934 -8.27986e-10 -0.286502
    endloop
  endfacet
  facet normal 0.0987986 1.06995e-09 -0.995107
    outer loop
      vertex -0.262679 0.4 -0.318091
      vertex 0.0554934 -8.27986e-10 -0.286502
      vertex -0.262679 -9.20006e-11 -0.318091
    endloop
  endfacet
  facet normal -2.18488e-09 -1 -1.29213e-09
    outer loop
      vertex 0.0381937 -8.20655e-10 -0.262923
      vertex -0.256014 -1.40104e-10 -0.292133
      vertex 0.0554934 -8.27986e-10 -0.286502
    endloop
  endfacet
  facet normal -2.18488e-09 -1 -1.29213e-09
    outer loop
      vertex 0.0628836 -9.98852e-10 -0.166762
      vertex 0.0381937 -8.20655e-10 -0.262923
      vertex 0.0554934 -8.27986e-10 -0.286502
    endloop
  endfacet
  facet normal 0.0987986 1.06994e-09 -0.995107
    outer loop
      vertex 0.0554934 0.4 -0.286502
      vertex 0.0554934 -8.27986e-10 -0.286502
      vertex -0.262679 0.4 -0.318091
    endloop
  endfacet
  facet normal -0.968583 1.7949e-09 0.24869
    outer loop
      vertex -0.256014 0.4 -0.292133
      vertex -0.262679 -9.20006e-11 -0.318091
      vertex -0.256014 -1.40104e-10 -0.292133
    endloop
  endfacet
  facet normal -0.968583 1.79489e-09 0.24869
    outer loop
      vertex -0.262679 0.4 -0.318091
      vertex -0.262679 -9.20006e-11 -0.318091
      vertex -0.256014 0.4 -0.292133
    endloop
  endfacet
  facet normal -0.0987986 -1.06995e-09 0.995107
    outer loop
      vertex 0.0381937 0.4 -0.262923
      vertex -0.256014 -1.40104e-10 -0.292133
      vertex 0.0381937 -8.20655e-10 -0.262923
    endloop
  endfacet
  facet normal -0.0987986 -1.06995e-09 0.995107
    outer loop
      vertex -0.256014 0.4 -0.292133
      vertex -0.256014 -1.40104e-10 -0.292133
      vertex 0.0381937 0.4 -0.262923
    endloop
  endfacet
  facet normal -0.968583 1.7949e-09 0.24869
    outer loop
      vertex 0.0628836 0.4 -0.166762
      vertex 0.0381937 -8.20655e-10 -0.262923
      vertex 0.0628836 -9.98852e-10 -0.166762
    endloop
  endfacet
  facet normal -0.968583 1.7949e-09 0.24869
    outer loop
      vertex 0.0381937 0.4 -0.262923
      vertex 0.0381937 -8.20655e-10 -0.262923
      vertex 0.0628836 0.4 -0.166762
    endloop
  endfacet
  facet normal -0.24869 1.7949e-09 -0.968583
    outer loop
      vertex -0.206092 0.4 -0.0977008
      vertex 0.0628836 -9.98852e-10 -0.166762
      vertex -0.206092 -5.00409e-10 -0.0977008
    endloop
  endfacet
  facet normal -0.24869 1.7949e-09 -0.968583
    outer loop
      vertex 0.0628836 0.4 -0.166762
      vertex 0.0628836 -9.98852e-10 -0.166762
      vertex -0.206092 0.4 -0.0977008
    endloop
  endfacet
  facet normal -0.968583 1.7949e-09 0.24869
    outer loop
      vertex -0.206092 0.4 -0.0977008
      vertex -0.206092 -5.00409e-10 -0.0977008
      vertex -0.200898 0.4 -0.0774726
    endloop
  endfacet
  facet normal 2.18488e-09 1 1.29214e-09
    outer loop
      vertex 0.0899867 0.4 -0.152159
      vertex -0.206092 0.4 -0.0977008
      vertex -0.200898 0.4 -0.0774726
    endloop
  endfacet
  facet normal 2.18566e-09 1 1.29639e-09
    outer loop
      vertex 0.0899867 0.4 -0.152159
      vertex 0.0628836 0.4 -0.166762
      vertex -0.206092 0.4 -0.0977008
    endloop
  endfacet
  facet normal 2.18845e-09 1 1.29122e-09
    outer loop
      vertex 0.0899867 0.4 -0.152159
      vertex 0.0381937 0.4 -0.262923
      vertex 0.0628836 0.4 -0.166762
    endloop
  endfacet
  facet normal 2.18459e-09 1 1.29221e-09
    outer loop
      vertex -0.262679 0.4 -0.318091
      vertex -0.256014 0.4 -0.292133
      vertex 0.0381937 0.4 -0.262923
    endloop
  endfacet
  facet normal 2.18464e-09 1 1.29195e-09
    outer loop
      vertex 0.0554934 0.4 -0.286502
      vertex -0.262679 0.4 -0.318091
      vertex 0.0381937 0.4 -0.262923
    endloop
  endfacet
  facet normal 2.18551e-09 1 1.29259e-09
    outer loop
      vertex 0.0899867 0.4 -0.152159
      vertex 0.0554934 0.4 -0.286502
      vertex 0.0381937 0.4 -0.262923
    endloop
  endfacet
endsolid LIGGGHTS_STL_EXPORT
